<svg xmlns="http://www.w3.org/2000/svg" viewBox="0 0 46.04 53.66"><defs><style>.badbf98d-080a-4436-8f59-c99cd85002fe{fill:none;}.a1f9eab7-4905-44f5-8ef5-62a97f6bc705{fill:#8c734b;}.bdf1952b-de2c-4fe3-85b1-5bef9f2a6a6a{fill:#fff;}.f994e8c8-a9f6-40b6-8100-06581f22ff0c{fill:#c4ad8b;}.f2b12425-ce06-4ca0-8aac-85677c4a3da9{fill:#00263a;}</style></defs><g id="a66771ed-bf32-4b09-8f60-41160583cada" data-name="Layer 2"><g id="bad8770c-860e-432d-a28d-af289a011ca8" data-name="Layer 1"><path class="badbf98d-080a-4436-8f59-c99cd85002fe" d="M12.89,43.8,8,38.94A2.36,2.36,0,1,0,4.7,42.28l4.85,4.86A2.36,2.36,0,0,0,12.89,43.8Z"/><path class="badbf98d-080a-4436-8f59-c99cd85002fe" d="M13.75,34.35,8.89,29.49a2.36,2.36,0,1,0-3.34,3.34l4.86,4.86A2.36,2.36,0,0,0,13.75,34.35Z"/><path class="badbf98d-080a-4436-8f59-c99cd85002fe" d="M16.06,13.53A11.36,11.36,0,0,1,31,14l1.47-1.47a3,3,0,0,1,2.19-.91,3.09,3.09,0,0,1,2.2.91l.15.19V8.15H10v9.14c.16.12,2.28,2.23,2.28,2.23A11.4,11.4,0,0,1,16.06,13.53Z"/><path class="badbf98d-080a-4436-8f59-c99cd85002fe" d="M18.3,19.37a3.09,3.09,0,0,1,2.17.88l2.17,2.11L29.5,15.5a9.23,9.23,0,0,0-15.4,5.86l1.1,1.11a3.09,3.09,0,0,1,3.1-3.1Z"/><path class="badbf98d-080a-4436-8f59-c99cd85002fe" d="M22.33,31.5A9.21,9.21,0,0,0,32.46,21.32l-7.6,7.6a3.1,3.1,0,0,1-4.36,0l-4-3.87A4.54,4.54,0,0,1,16,28,9.18,9.18,0,0,0,22.33,31.5Z"/><path class="badbf98d-080a-4436-8f59-c99cd85002fe" d="M34.28,19.5a11.36,11.36,0,0,1-19.8,10,4.38,4.38,0,0,1-1.85.66l2.64,2.64a4.62,4.62,0,0,1,1.29,2.65,4.52,4.52,0,0,1-3.93,5l1.78,1.78a4.78,4.78,0,0,1,.54.65h15.2v-.64a8,8,0,0,1,3.18-6.36L37,33.16V16.73l-.15.19Z"/><path class="badbf98d-080a-4436-8f59-c99cd85002fe" d="M37,2.79a.64.64,0,0,0-.64-.64H10.62a.65.65,0,0,0-.65.64V6H37Z"/><path class="badbf98d-080a-4436-8f59-c99cd85002fe" d="M13.75,24.05,8.89,19.19a2.36,2.36,0,1,0-3.34,3.34l4.86,4.86A2.36,2.36,0,0,0,13.75,24.05Z"/><path class="badbf98d-080a-4436-8f59-c99cd85002fe" d="M15.73,45.47A4.5,4.5,0,0,1,11.22,50,4.43,4.43,0,0,1,10,49.8v1.07a.66.66,0,0,0,.65.65H30.15V45.08H15.71C15.72,45.21,15.73,45.34,15.73,45.47Zm5.09,1.76h5.47a1.07,1.07,0,1,1,0,2.14H20.82a1.07,1.07,0,1,1,0-2.14Z"/><path class="badbf98d-080a-4436-8f59-c99cd85002fe" d="M7.83,8.68,6.18,7a2.37,2.37,0,0,0-4,1.67,2.28,2.28,0,0,0,.69,1.67l5,5Z"/><path class="a1f9eab7-4905-44f5-8ef5-62a97f6bc705" d="M24.24,13.14A9.21,9.21,0,0,1,29.5,15.5L31,14a11.37,11.37,0,0,0-18.76,5.52l1.85,1.84A9.23,9.23,0,0,1,24.24,13.14Z"/><path class="a1f9eab7-4905-44f5-8ef5-62a97f6bc705" d="M30.49,31.11A11.35,11.35,0,0,0,34.28,19.5l-1.82,1.82A9.23,9.23,0,0,1,16,28l-1.51,1.56A11.37,11.37,0,0,0,30.49,31.11Z"/><path class="bdf1952b-de2c-4fe3-85b1-5bef9f2a6a6a" d="M36.87,12.53a3.09,3.09,0,0,0-2.2-.91,3,3,0,0,0-2.19.91L31,14q.33.3.63.63l1.47-1.47a2.2,2.2,0,0,1,3.12,0,2.21,2.21,0,0,1,0,3.12L34,18.53c.11.32.21.64.29,1l2.59-2.58.15-.19v-4Z"/><path class="bdf1952b-de2c-4fe3-85b1-5bef9f2a6a6a" d="M22.67,29.83a3,3,0,0,0,2.19-.91l7.6-7.6a9.36,9.36,0,0,0-.18-1.08l-8,8.05a2.22,2.22,0,0,1-1.56.64,2.2,2.2,0,0,1-1.54-.62l-4.37-4.26a2.16,2.16,0,0,1-.66-1.55,2.2,2.2,0,0,1,3.74-1.61l2.81,2.73,7.48-7.48c-.2-.22-.41-.43-.63-.64l-6.86,6.86-2.17-2.11a3.1,3.1,0,0,0-5.27,2.22l.07.06a4.53,4.53,0,0,1,1.27,2.55l4,3.87A3.07,3.07,0,0,0,22.67,29.83Z"/><path class="f994e8c8-a9f6-40b6-8100-06581f22ff0c" d="M20.82,49.37h5.47a1.07,1.07,0,1,0,0-2.14H20.82a1.07,1.07,0,1,0,0,2.14Z"/><path class="f994e8c8-a9f6-40b6-8100-06581f22ff0c" d="M45,17.17a8.36,8.36,0,0,0-5.41,1.75l-.38.35V2.79A2.8,2.8,0,0,0,36.38,0H10.62A2.79,2.79,0,0,0,7.83,2.79V5.65L7.7,5.51a4.51,4.51,0,0,0-6.38,6.38L6,16.53A4.51,4.51,0,0,0,4,24.05l2.64,2.64a4.51,4.51,0,0,0-3.93,5A4.44,4.44,0,0,0,4,34.35l1.78,1.79a4.5,4.5,0,0,0-3.93,5A4.56,4.56,0,0,0,3.18,43.8l4.65,4.65v2.42a2.79,2.79,0,0,0,2.79,2.79H31.23a1.07,1.07,0,0,0,1.07-1.07V42.29a5.8,5.8,0,0,1,2.32-4.64l4.12-3.09a1.07,1.07,0,0,0,.43-.86V25.11c0-4.27,2.61-5.46,4.72-5.73V52.59a1.08,1.08,0,0,0,2.15,0V18.25A1.08,1.08,0,0,0,45,17.17ZM10,2.79a.65.65,0,0,1,.65-.64H36.38a.64.64,0,0,1,.64.64V6H10ZM2.84,10.37A2.28,2.28,0,0,1,2.15,8.7,2.37,2.37,0,0,1,6.18,7L7.83,8.68v6.68ZM5.55,22.53a2.36,2.36,0,1,1,3.34-3.34l4.86,4.86a2.36,2.36,0,0,1-3.34,3.34Zm0,10.3a2.36,2.36,0,1,1,3.34-3.34l4.86,4.86a2.36,2.36,0,0,1-3.34,3.34ZM4.7,42.28A2.36,2.36,0,1,1,8,38.94l4.85,4.86a2.36,2.36,0,0,1-3.34,3.34Zm25.45,9.24H10.62a.66.66,0,0,1-.65-.65V49.8a4.43,4.43,0,0,0,1.25.17,4.5,4.5,0,0,0,4.51-4.5c0-.13,0-.26,0-.39H30.15ZM37,33.16l-3.69,2.77a8,8,0,0,0-3.18,6.36v.64H15a4.78,4.78,0,0,0-.54-.65L12.63,40.5a4.52,4.52,0,0,0,3.93-5,4.62,4.62,0,0,0-1.29-2.65l-2.64-2.64a4.38,4.38,0,0,0,1.85-.66L16,28a4.53,4.53,0,0,0-.72-5.44l-.07-.06-1.1-1.11-1.85-1.84S10.13,17.41,10,17.29V8.15H37v25Z"/><path class="bdf1952b-de2c-4fe3-85b1-5bef9f2a6a6a" d="M30.13,16.14l1.51-1.51q-.3-.33-.63-.63L29.5,15.5C29.72,15.71,29.93,15.92,30.13,16.14Z"/><path class="bdf1952b-de2c-4fe3-85b1-5bef9f2a6a6a" d="M32.46,21.32l1.82-1.82c-.08-.33-.18-.65-.29-1l-1.71,1.71A9.36,9.36,0,0,1,32.46,21.32Z"/><path class="bdf1952b-de2c-4fe3-85b1-5bef9f2a6a6a" d="M32.22,15.32l1.53-1.52a1.28,1.28,0,0,1,.92-.39,1.32,1.32,0,0,1,.93,2.24l-2,2c.14.3.26.6.37.91l2.24-2.25a2.21,2.21,0,0,0,0-3.12,2.2,2.2,0,0,0-3.12,0l-1.47,1.47c.14.16.29.31.43.48S32.17,15.25,32.22,15.32Z"/><path class="bdf1952b-de2c-4fe3-85b1-5bef9f2a6a6a" d="M23.59,27.65a1.27,1.27,0,0,1-.92.38,1.32,1.32,0,0,1-.92-.37l-4.36-4.25a1.31,1.31,0,0,1,0-1.85,1.3,1.3,0,0,1,.94-.4,1.32,1.32,0,0,1,.92.37l3.44,3.35,8-8c-.18-.24-.37-.48-.57-.7l-7.48,7.48-2.81-2.73a2.16,2.16,0,0,0-1.54-.63,2.2,2.2,0,0,0-2.2,2.24,2.16,2.16,0,0,0,.66,1.55l4.37,4.26a2.2,2.2,0,0,0,1.54.62,2.22,2.22,0,0,0,1.56-.64l8.05-8a10.11,10.11,0,0,0-.29-1Z"/><path class="bdf1952b-de2c-4fe3-85b1-5bef9f2a6a6a" d="M30.7,16.84l1.52-1.52c0-.07-.09-.14-.15-.21s-.29-.32-.43-.48l-1.51,1.51C30.33,16.36,30.52,16.6,30.7,16.84Z"/><path class="bdf1952b-de2c-4fe3-85b1-5bef9f2a6a6a" d="M32,19.26a10.11,10.11,0,0,1,.29,1L34,18.53c-.11-.31-.23-.61-.37-.91Z"/><path class="f2b12425-ce06-4ca0-8aac-85677c4a3da9" d="M35.6,13.8a1.3,1.3,0,0,0-.93-.39,1.28,1.28,0,0,0-.92.39l-1.53,1.52L30.7,16.84l-8,8-3.44-3.35a1.32,1.32,0,0,0-.92-.37,1.3,1.3,0,0,0-.94.4,1.31,1.31,0,0,0,0,1.85l4.36,4.25a1.32,1.32,0,0,0,.92.37,1.27,1.27,0,0,0,.92-.38L32,19.26l1.63-1.64,2-2A1.31,1.31,0,0,0,35.6,13.8Z"/></g></g></svg>