<svg xmlns="http://www.w3.org/2000/svg" viewBox="0 0 58.01 55.65"><defs><style>.a2566dad-38ae-4135-9e28-7e0d14862ec4{fill:#8c734b;}.edf70904-bd00-46f2-bca2-73b2cac331fc{fill:#c4ad8b;}.ecd89adf-e138-4eb0-863a-9998247591d6{fill:#00263a;}.e3967e65-57db-4d1a-a040-778ad15064c2{fill:none;}.eb25cd09-07ca-4fda-989b-9d1d3455a6a0{fill:#fff;}</style></defs><g id="b0cb4ecd-5659-4bb5-a4bc-fb80c4462e7d" data-name="Layer 2"><g id="a830eea1-ea25-48d2-95ff-e7f7c217ffc8" data-name="Layer 1"><path d="M39.21,34.13a.84.84,0,1,0,.25.6A.86.86,0,0,0,39.21,34.13Z"/><path d="M43.57,34.13a.82.82,0,0,0-.6-.25.85.85,0,0,0,0,1.7.84.84,0,0,0,.6-.25.85.85,0,0,0,0-1.2Z"/><path d="M39.21,39a.84.84,0,1,0,.25.6A.86.86,0,0,0,39.21,39Z"/><path d="M43,38.72a.85.85,0,0,0,0,1.7.82.82,0,0,0,.6-.25.84.84,0,0,0,0-1.2A.82.82,0,0,0,43,38.72Z"/><path d="M39.21,43.81a.84.84,0,1,0,.25.6A.86.86,0,0,0,39.21,43.81Z"/><path d="M38.61,48.4a.85.85,0,1,0,.6.25A.86.86,0,0,0,38.61,48.4Z"/><path class="a2566dad-38ae-4135-9e28-7e0d14862ec4" d="M57.57,50.8A3.41,3.41,0,0,0,58,49.62a1.24,1.24,0,0,0-.27-1,1.53,1.53,0,0,0-.18-.18A3.52,3.52,0,0,0,58,47.26a1.24,1.24,0,0,0-.27-1,1.53,1.53,0,0,0-.18-.18A3.52,3.52,0,0,0,58,44.9a1.28,1.28,0,0,0-.27-1l-.18-.17A3.52,3.52,0,0,0,58,42.54a1.28,1.28,0,0,0-.27-1,1.21,1.21,0,0,0-.92-.42h-2.2V38.82a.85.85,0,1,0-1.69,0v2.32H43.54a1.17,1.17,0,0,0-.91.42,1.2,1.2,0,0,0-.27,1,3.16,3.16,0,0,0,.45,1.21,1,1,0,0,0-.18.17,1.2,1.2,0,0,0-.27,1,3.16,3.16,0,0,0,.45,1.21,1,1,0,0,0-.18.17,1.2,1.2,0,0,0-.27,1,3.16,3.16,0,0,0,.45,1.21.77.77,0,0,0-.18.18,1.17,1.17,0,0,0-.27,1,3,3,0,0,0,.23.79H37V33.18a2.46,2.46,0,0,1,.58-1.42l5.24-5.31A7.28,7.28,0,0,0,44.33,26v.23a2.79,2.79,0,0,0,1.6,2.43l6.42,2.76a1.12,1.12,0,0,1,.56.86v2.53a.85.85,0,0,0,1.7,0V32.32A2.77,2.77,0,0,0,53,29.9L46.6,27.14a1.13,1.13,0,0,1-.57-.87V25.13a7.75,7.75,0,0,0,3.07-4.44h.52a2.32,2.32,0,0,0,2.31-2.31V16.61a2.31,2.31,0,0,0-2.31-2.3h-.28v-3.5A4.8,4.8,0,0,0,44.8,2.5a4.81,4.81,0,0,0-8.44,0,4.8,4.8,0,0,0-4.42,8.4v3.41h-.4a2.31,2.31,0,0,0-2.31,2.3v1.77a2.32,2.32,0,0,0,2.31,2.31h.63a7.8,7.8,0,0,0,3,4.36v1.22a1.15,1.15,0,0,1-.57.87L28.14,29.9a2.77,2.77,0,0,0-1.59,2.42v2.5a10,10,0,0,0-5.71-2.38V31.19a1.8,1.8,0,0,0-1.79-1.8H14.33a1.8,1.8,0,0,0-1.79,1.8v1.25a10,10,0,0,0-8.77,7.11H.85a.85.85,0,0,0,0,1.7h.29v1.3A1.41,1.41,0,0,0,2.55,44H2.7v2.62a2,2,0,0,0,2,2v1.84H1.42A1.42,1.42,0,0,0,0,51.82v2.41a1.43,1.43,0,0,0,1.42,1.42h47a.85.85,0,0,0,0-1.7H1.7V52.11H56.31V54H52.46a.85.85,0,1,0,0,1.7H56.6A1.42,1.42,0,0,0,58,54.23V51.82A1.41,1.41,0,0,0,57.57,50.8ZM49.62,16a.61.61,0,0,1,.61.6v1.77a.62.62,0,0,1-.61.61h-.29c0-.07,0-.14,0-.2V16ZM31.54,19a.62.62,0,0,1-.61-.61V16.61a.61.61,0,0,1,.61-.6h.4v3Zm1.68-9.27A3.11,3.11,0,0,1,34.8,3.94a3.06,3.06,0,0,1,1.57.43.84.84,0,0,0,.74.06.83.83,0,0,0,.51-.54,3.1,3.1,0,0,1,5.92,0,.86.86,0,0,0,.51.54.84.84,0,0,0,.74-.06,3.06,3.06,0,0,1,1.57-.43A3.11,3.11,0,0,1,48,9.66a.85.85,0,0,0-.39.72v2.85h-14V10.45A.84.84,0,0,0,33.22,9.72Zm-.12,9.07V14.93h15v3.86c0,3.34-3.19,6.06-6.55,6.06H39.72C36.37,24.85,33.1,22.13,33.1,18.79ZM14.24,31.19a.1.1,0,0,1,.09-.1h4.72a.1.1,0,0,1,.09.1v1.22h-4.9ZM7.75,36.28a8.24,8.24,0,0,1,5.58-2.17h6.72a8.31,8.31,0,0,1,7.78,5.44H5.55A8.31,8.31,0,0,1,7.75,36.28Zm-4.91,6v-1h27.7v1ZM7,50.41H6.38V48.57H7Zm20,0h-.66V48.57H27ZM14.62,46.87a.85.85,0,1,0,0,1.7h10v1.84H8.74V48.57h1.91a.85.85,0,0,0,0-1.7h-6a.29.29,0,0,1-.29-.29V44H29v2.62a.29.29,0,0,1-.29.29ZM35.27,33.18V50.41H28.7V48.57a2,2,0,0,0,2-2V44h.15a1.41,1.41,0,0,0,1.41-1.41v-1.3h.29a.85.85,0,0,0,0-1.7H29.61a10,10,0,0,0-1.36-2.85V32.32a1.12,1.12,0,0,1,.56-.86l6.42-2.76a2.79,2.79,0,0,0,1.6-2.43V26a8.23,8.23,0,0,0,1.49.43l1,1.07-3,3.06A4.17,4.17,0,0,0,35.27,33.18ZM55.69,50.41h-11a1.66,1.66,0,0,1-.42-.49H56.11A1.66,1.66,0,0,1,55.69,50.41Zm-.28-2.19H44.94a1.65,1.65,0,0,1-.7-.66H56.11A1.65,1.65,0,0,1,55.41,48.22Zm0-2.36H44.94a1.71,1.71,0,0,1-.7-.66H56.11A1.71,1.71,0,0,1,55.41,45.86Zm0-2.36H44.94a1.71,1.71,0,0,1-.7-.66H56.11A1.71,1.71,0,0,1,55.41,43.5Z"/><path class="edf70904-bd00-46f2-bca2-73b2cac331fc" d="M14.86,21.49h2a1.89,1.89,0,0,1,0,3.77h-2a.85.85,0,1,0,0,1.7h2a3.59,3.59,0,0,0,0-7.17h-2a.85.85,0,0,0,0,1.7Z"/><path class="edf70904-bd00-46f2-bca2-73b2cac331fc" d="M9.3,21.49h2.39a.85.85,0,1,0,0-1.7H9.3a2.21,2.21,0,0,1,0-4.41H12a.85.85,0,1,0,0-1.7H9.3a3.91,3.91,0,0,0,0,7.81Z"/><path class="edf70904-bd00-46f2-bca2-73b2cac331fc" d="M15.19,16.87A.85.85,0,0,0,16,16v-.49a1.23,1.23,0,0,1,1.22-1.23h4.91a3.33,3.33,0,0,0,0-6.65H20.46a.85.85,0,1,0,0,1.7h1.71a1.63,1.63,0,0,1,0,3.25H17.26a2.93,2.93,0,0,0-2.92,2.93V16A.85.85,0,0,0,15.19,16.87Z"/><path class="ecd89adf-e138-4eb0-863a-9998247591d6" d="M40.66,25.85c-4.8,0-8.71-3.58-8.71-8V16.76h1.21l.36,1.12c0,3.6,3.2,6.53,7.14,6.53a7.08,7.08,0,0,0,7.28-6.53l.29-1.11h1l.18,1.12C49.37,22.27,45.46,25.85,40.66,25.85Z"/><path class="ecd89adf-e138-4eb0-863a-9998247591d6" d="M45.69,20.51a10.64,10.64,0,0,1-1.95-.28A14.94,14.94,0,0,0,41,19.85a17.74,17.74,0,0,0-2.77.26,7.55,7.55,0,0,1-3.2.06,4.32,4.32,0,0,1-3-3.49l1-.1A4.09,4.09,0,0,0,35.49,19a7.64,7.64,0,0,0,2.5-.14,19.42,19.42,0,0,1,3-.26A15.58,15.58,0,0,1,44,19a5.19,5.19,0,0,0,2.1.19,2.41,2.41,0,0,0,2-2.24l1.11-.19a3.33,3.33,0,0,1-2.67,3.62A3.17,3.17,0,0,1,45.69,20.51Z"/><rect class="e3967e65-57db-4d1a-a040-778ad15064c2" x="33.16" y="15.3" width="14.91" height="9.44"/><rect class="eb25cd09-07ca-4fda-989b-9d1d3455a6a0" x="33.16" y="13.18" width="14.91" height="0.94"/><path class="ecd89adf-e138-4eb0-863a-9998247591d6" d="M48.27,11.9h0Z"/><path class="ecd89adf-e138-4eb0-863a-9998247591d6" d="M32.69,11.94a.5.5,0,0,1,.13,0Z"/><path class="ecd89adf-e138-4eb0-863a-9998247591d6" d="M48.4,11.91a.5.5,0,0,1,.13,0Z"/><rect class="ecd89adf-e138-4eb0-863a-9998247591d6" x="33.16" y="14.71" width="14.91" height="0.59"/><rect class="ecd89adf-e138-4eb0-863a-9998247591d6" x="33.16" y="14.12" width="14.91" height="0.59"/><path class="ecd89adf-e138-4eb0-863a-9998247591d6" d="M48.4,11.91h0Z"/><path class="ecd89adf-e138-4eb0-863a-9998247591d6" d="M32.83,11.91h0Z"/><path class="ecd89adf-e138-4eb0-863a-9998247591d6" d="M48.53,11.94a1,1,0,0,1,.75,1v1.36a1,1,0,0,1-1,1h-.2v9.43H33.16V15.3H33a1,1,0,0,1-1-1V12.92a1,1,0,0,1,.75-1,.93.93,0,0,0-.79.91V25.07a.93.93,0,0,0,.93.93H48.4a.93.93,0,0,0,.92-.93V12.85A.92.92,0,0,0,48.53,11.94Z"/><polygon class="ecd89adf-e138-4eb0-863a-9998247591d6" points="48.11 13.08 33.11 13.08 33.11 14.12 33.16 14.12 33.16 13.18 48.07 13.18 48.07 14.12 48.11 14.12 48.11 13.08"/><path class="ecd89adf-e138-4eb0-863a-9998247591d6" d="M31.94,12.92v1.36a1,1,0,0,0,1,1h.2v-.59H33a.43.43,0,0,1-.43-.43V12.92a.43.43,0,0,1,.43-.43H48.27a.42.42,0,0,1,.42.43v1.36a.43.43,0,0,1-.42.43h-.2v.59h.2a1,1,0,0,0,1-1V12.92a1,1,0,0,0-.75-1,.5.5,0,0,0-.13,0H32.82a.5.5,0,0,0-.13,0A1,1,0,0,0,31.94,12.92Z"/><path class="ecd89adf-e138-4eb0-863a-9998247591d6" d="M33.11,14.12v-1h15v1h0v.59h.2a.43.43,0,0,0,.42-.43V12.92a.42.42,0,0,0-.42-.43H33a.43.43,0,0,0-.43.43v1.36a.43.43,0,0,0,.43.43h.2v-.59Z"/><rect class="a2566dad-38ae-4135-9e28-7e0d14862ec4" x="36.35" y="16.16" width="1.44" height="1.57"/><rect class="a2566dad-38ae-4135-9e28-7e0d14862ec4" x="43.86" y="16.16" width="1.45" height="1.57"/></g></g></svg>