<svg xmlns="http://www.w3.org/2000/svg" viewBox="0 0 23.99 48.92"><defs><style>.b6d0d071-4306-40c9-932f-603fbf6112ee{fill:#c4ad8b;}.a053a4c2-41bb-4339-acd0-cbdf93436dfd{fill:#00263a;}.a748fc1a-3b96-4422-9f02-c234ebc8c8a8{fill:#8c734b;}</style></defs><g id="a5973167-4bde-4a33-a1bd-fe76bd10a947" data-name="Layer 2"><g id="e801be0d-3899-4dc9-8322-ec05819f8e86" data-name="Layer 1"><g id="a7f7c3a3-2405-4396-afd5-8e5c9ce35b74" data-name="WEcKUp.tif"><path d="M15,25.4c0,1.05-.43,1.58-1.27,1.48a.76.76,0,0,1-.53-.5,13.5,13.5,0,0,1,0-1.56c0-.48.06-.85.65-.86s1.06.11,1.17.77A3.75,3.75,0,0,1,15,25.4Z"/><path class="b6d0d071-4306-40c9-932f-603fbf6112ee" d="M23,9.43A.87.87,0,0,0,24,8.5a.86.86,0,0,0-.87-1c-2,0-4,0-6,0V9.44Z"/><path class="b6d0d071-4306-40c9-932f-603fbf6112ee" d="M22.75,27.6c-1.65,0-3.31,0-5,0h-.71v1.92c2,0,3.84,0,5.71,0,.75,0,1.19-.38,1.2-1S23.57,27.6,22.75,27.6Z"/><path class="b6d0d071-4306-40c9-932f-603fbf6112ee" d="M20.56,17.56H17.1v1.91c2,0,4,0,6,0a.85.85,0,0,0,.87-.94.89.89,0,0,0-.95-.95C22.21,17.54,21.39,17.56,20.56,17.56Z"/><path class="b6d0d071-4306-40c9-932f-603fbf6112ee" d="M21,14.47a.9.9,0,0,0,1-.87c0-.51-.19-1-.7-1-1.39-.06-2.78,0-4.17,0v1.89C18.46,14.48,19.73,14.5,21,14.47Z"/><path class="b6d0d071-4306-40c9-932f-603fbf6112ee" d="M17.09,24.48h2.2a4.44,4.44,0,0,0,1.41,0H21a.91.91,0,0,0,.88-.53.76.76,0,0,0,.07-.57.73.73,0,0,0-.69-.76c-1.39-.06-2.78,0-4.17,0v0h0v.94h0Z"/><path class="a053a4c2-41bb-4339-acd0-cbdf93436dfd" d="M11.73,34.45a1.07,1.07,0,0,1-.79-1V32.3c0-1.71,0-3.41,0-5.11h0V12.58H8V28.37c0,.11,0,.22,0,.32,0,1.56,0,3.11,0,4.66a.93.93,0,0,1-.67,1,5.46,5.46,0,0,0,2,10.49,5.47,5.47,0,0,0,5.46-4.18A5.4,5.4,0,0,0,11.73,34.45Z"/><path class="a748fc1a-3b96-4422-9f02-c234ebc8c8a8" d="M15.56,32.15a1.48,1.48,0,0,1-.6-1.33c0-1.36,0-2.73,0-4h0v-3c0-6.14,0-12.28,0-18.42A5.47,5.47,0,0,0,4,5.41C4,11.18,4,16.94,4,22.7c0,.07,0,.14,0,.21v2.55H4C4,27.29,4,29,4,30.74a1.61,1.61,0,0,1-.67,1.45A9.43,9.43,0,0,0,.6,42.75a9.55,9.55,0,0,0,9,6.17,9.56,9.56,0,0,0,8.79-6.29A9.43,9.43,0,0,0,15.56,32.15Zm1.1,9.66A7.64,7.64,0,0,1,9.31,47a7.61,7.61,0,0,1-7.09-5.53,7.46,7.46,0,0,1,3.19-8.37,1,1,0,0,0,.55-1c0-.64,0-1.28,0-1.93H6V12.58H6V5.68A3.51,3.51,0,0,1,7.18,2.82a3.29,3.29,0,0,1,3.71-.57A3.41,3.41,0,0,1,13,5.58c0,5.21,0,10.43,0,15.64h0v6h0v2.92h0c0,.58,0,1.16,0,1.75a1.35,1.35,0,0,0,.71,1.32A7.5,7.5,0,0,1,16.66,41.81Z"/></g></g></g></svg>