<svg xmlns="http://www.w3.org/2000/svg" viewBox="0 0 66.92 42.53"><defs><style>.f1f4322e-e0da-48a5-b3f6-30b391b22cff{fill:#c4ad8b;}.ab0189a6-b096-40f8-bbc3-993c876b7107{fill:#8c734b;}.bee77675-7a70-486a-8121-e1a72efc35b2{fill:#00263a;}</style></defs><g id="bfb0c641-54b1-47f4-b237-deb49d245239" data-name="Layer 2"><g id="b7312ca0-f84b-4e25-ba40-291adadc8947" data-name="Layer 1"><path class="f1f4322e-e0da-48a5-b3f6-30b391b22cff" d="M63.39,0H3.53A3.53,3.53,0,0,0,0,3.52V39a3.54,3.54,0,0,0,3.53,3.53H63.39A3.54,3.54,0,0,0,66.92,39V3.52A3.53,3.53,0,0,0,63.39,0ZM1.91,35.84V4.11A1.92,1.92,0,0,1,3.83,2.19H63.09A1.92,1.92,0,0,1,65,4.11V35.84ZM65,37.69v.73a1.92,1.92,0,0,1-1.92,1.92H3.83a1.92,1.92,0,0,1-1.92-1.92v-.73Z"/><path class="ab0189a6-b096-40f8-bbc3-993c876b7107" d="M42.5,9.85l-.31-.21c-3-1.94-14.44-1.94-17.46,0l-.31.21a.42.42,0,0,0-.21.36l-.09,10.67c0,.1.11,9.7,9.41,10.47h.21c8.39-.83,9-10.37,9-10.47L42.7,10.21A.4.4,0,0,0,42.5,9.85Zm-1.72,11c0,.42-.68,7.87-7.11,8.55-7.44-.65-7.53-8.16-7.53-8.47l.09-10c3-1.18,11.5-1.18,14.46,0Z"/><rect class="bee77675-7a70-486a-8121-e1a72efc35b2" x="32.03" y="16.78" width="2.86" height="9.97" rx="0.44"/><path class="bee77675-7a70-486a-8121-e1a72efc35b2" d="M31.79,13.81a1.67,1.67,0,1,0,1.67-1.67A1.67,1.67,0,0,0,31.79,13.81Z"/></g></g></svg>