<svg xmlns="http://www.w3.org/2000/svg" viewBox="0 0 54.4 56.27"><defs><style>.a09cf3aa-6c28-4f43-8023-025db5b29706{fill:#c4ad8b;}.b85798b7-c6e1-4143-bc4c-64df49908a78{fill:#00263a;}.e53d9b2a-bd47-4513-b172-15f4dba3aa65{fill:#8c734b;}</style></defs><g id="e9539a36-58dc-4464-8d51-87b7a1464f0e" data-name="Layer 2"><g id="fd5e020a-1c2b-4f8c-8aa1-4d80a1591b11" data-name="Layer 1"><g id="bab3ba17-60ea-47a1-a3aa-d007b89f14ef" data-name="IAwcpX.tif"><path class="a09cf3aa-6c28-4f43-8023-025db5b29706" d="M18.23,23.34l1.69,1.42c.5.42,1,.77,1.38,1.18a1.5,1.5,0,0,0,1.14.4H51.88c.39,0,.85,0,1.3,0a1.22,1.22,0,0,1,1.22.55v5.95a1.26,1.26,0,0,1-1.27.55c-.49,0-1,0-1.49,0l-1.49,9.69c1.06,0,2.05,0,3,0a1.25,1.25,0,0,1,1.22.56V47.8a1.33,1.33,0,0,1-1.27.56c-1.26,0-2.52,0-3.79,0-.31,2-.58,3.92-.91,5.85-.12.73,0,1.57-.75,2.07H24.26a1.6,1.6,0,0,1-1.6-1.55v-.23c0-1.77,0-21.13,0-21.13,0-1.18,0-2.3,0-3.42a1,1,0,0,0-.41-.88m23.13,17.4a5.64,5.64,0,0,1-3.12-1.9Q36.9,39.13,31.44,33.72a1.27,1.27,0,0,0-.78-.33c-2.05,0-4.1,0-6.15,0l0,0V52.89a1.6,1.6,0,0,0,1.6,1.6h20.5l.92-6c-.58-.12-1.25-.07-1.58-.38S45.61,47.1,45.43,46.46Zm4.4-13.06H33.7l.41.44,3.5,3.51L44,43.69a3.08,3.08,0,0,0,1.64,1v-.42c0-.91.27-1.16,1.19-1.16h1.57Zm2.79-5.26H24.09c.7,1.1.17,2.32.42,3.43h4.84c-.39-.38-.7-.66-1-1a.91.91,0,0,1-.09-1.4.93.93,0,0,1,1.36.14c.64.63,1.28,1.26,1.9,1.91a1.07,1.07,0,0,0,.86.37H52.07l.55,0Zm0,16.72H47.4v1.7h5.21Z"/><path class="b85798b7-c6e1-4143-bc4c-64df49908a78" d="M18.23,23.34a.59.59,0,0,0,.52,0c1-.47,1.93-1,2.91-1.45a6.11,6.11,0,0,0,2.1-1.64,5.82,5.82,0,0,1,5.82-2.17,7.13,7.13,0,0,0,3.83-.27c.41-.14.84-.25,1.26-.36a5.84,5.84,0,0,1,5,.54,7.11,7.11,0,0,0,4.87,1.3c.23,0,.47,0,.71,0,2.06,0,5.44,1.76,6.21,4.59.21.78.29,1.6.44,2.45H50a4.6,4.6,0,0,0-2-4.22,6.15,6.15,0,0,0-4-1.07,7.06,7.06,0,0,1-5-1.42A3.14,3.14,0,0,0,36.49,19a21,21,0,0,0-2.72.62,8.68,8.68,0,0,1-4.38.28A4.24,4.24,0,0,0,25,21.5a7.49,7.49,0,0,1-2.48,2l-2.61,1.3Z"/><path class="b85798b7-c6e1-4143-bc4c-64df49908a78" d="M35,23.67H33.3V22H35Z"/><path class="b85798b7-c6e1-4143-bc4c-64df49908a78" d="M45.58,22v1.68H43.87V22Z"/><path class="b85798b7-c6e1-4143-bc4c-64df49908a78" d="M24.48,25.42V23.73h1.7v1.69Z"/><path class="b85798b7-c6e1-4143-bc4c-64df49908a78" d="M39.47,23.72h1.69v1.69H39.47Z"/><path class="b85798b7-c6e1-4143-bc4c-64df49908a78" d="M29.72,22v1.67H28V22Z"/><path class="b85798b7-c6e1-4143-bc4c-64df49908a78" d="M37.69,22.77V21.08H39.4v1.69Z"/><g id="b45e92ce-0cf2-485c-b3de-53e11b99502a" data-name="2fOmir.tif"><path class="e53d9b2a-bd47-4513-b172-15f4dba3aa65" d="M5.08,56.27A.6.6,0,0,0,5,56.18,5,5,0,0,1,.9,51v-5.7c0-.69.3-1,.82-1s.77.34.77,1c0,1.9,0,3.8,0,5.7a3.47,3.47,0,0,0,3.78,3.77h13a3.39,3.39,0,0,0,3.52-3.52q0-8.53,0-17.06a16.87,16.87,0,0,0-.11-2.25,13,13,0,0,0-4.32-8.17.76.76,0,0,0-.51-.19H7.47A.79.79,0,0,0,7,23.7a12.77,12.77,0,0,0-4.39,8.89c-.13,2.18-.06,4.36-.08,6.54,0,.89,0,1.78,0,2.67a.79.79,0,0,1-.74.85.83.83,0,0,1-.82-.73,1.88,1.88,0,0,1,0-.41c0-2.57,0-5.13,0-7.7a15.28,15.28,0,0,1,1.3-6.24,14.86,14.86,0,0,1,2.85-4.25,9.67,9.67,0,0,1-.57-1.73,19.2,19.2,0,0,1,0-2.4,2,2,0,0,1,.8-1.63.72.72,0,0,0,.25-.51c0-.83,0-1.67,0-2.51a3.82,3.82,0,0,0-3-3.61,3.15,3.15,0,0,1-2.43-4,2.93,2.93,0,0,1,3-2.11H26.68a2,2,0,0,1,2.24-1.57h.57a1.82,1.82,0,0,1,1.93,1.85c0,1.93,0,3.87,0,5.81A1.8,1.8,0,0,1,30,12.68a5.11,5.11,0,0,1-1,.05,2,2,0,0,1-2.27-1.55H25.44c0,.23.06.43.09.64A22.71,22.71,0,0,0,28.08,19a2.12,2.12,0,0,1-.55,2.85,2.17,2.17,0,0,1-2.93-.33,16.79,16.79,0,0,1-2.82-3.94c-.54-1.08-1-2.21-1.5-3.35l-.55.17c0,.92,0,1.81,0,2.7a.6.6,0,0,0,.22.41,1.88,1.88,0,0,1,.85,1.64c0,.6,0,1.19,0,1.78,0,.83.05,1.65-.69,2.2.05.08.05.1.06.11l.39.43a14.16,14.16,0,0,1,3.77,9.44c.07,6.11,0,12.22,0,18.32A4.78,4.78,0,0,1,23,54.78a5.74,5.74,0,0,1-2.81,1.49ZM26.69,6.35H3.07A1.39,1.39,0,0,0,1.61,7.62,1.51,1.51,0,0,0,2.86,9.39a4.81,4.81,0,0,1,3.15,2,4.86,4.86,0,0,1,.6,1,.65.65,0,0,0,.72.44H19.11c.85,0,1.08-.22,1.15-1.06a2.37,2.37,0,0,1,2.3-2.15h4.13Zm-8.55,8.08h-11v2.8H13c.72,0,1.17.65.78,1.17a1.12,1.12,0,0,1-.79.37c-2.07,0-4.15,0-6.22,0-.71,0-.75,0-.75.73s0,1.29,0,1.93c0,.35.13.49.5.49H18.74c.36,0,.49-.12.48-.49q0-1.09,0-2.19c0-.35-.13-.47-.46-.47H16.4c-.56,0-.86-.26-.88-.73a.77.77,0,0,1,.85-.83h1.77Zm5.32-3.27c-1.73-.18-2,.59-1.62,2.24a14.93,14.93,0,0,0,3.88,7c.23.24.48.43.81.2a.55.55,0,0,0,.16-.82,24.18,24.18,0,0,1-2.83-8.3c0-.1-.05-.19-.07-.3Zm4.84-.46c0,.34.12.46.46.47,1.09,0,1.09.05,1.09-1.06,0-1.55,0-3.11,0-4.66,0-.21-.12-.6-.22-.61a5,5,0,0,0-1.22,0s-.09.28-.09.42c0,.89,0,1.78,0,2.67S28.31,9.79,28.3,10.7Z"/><path class="b85798b7-c6e1-4143-bc4c-64df49908a78" d="M12.64,30.77A8.34,8.34,0,1,1,4.32,39.1,8.38,8.38,0,0,1,12.64,30.77Zm6.75,8.3a6.75,6.75,0,1,0-6.72,6.77A6.75,6.75,0,0,0,19.39,39.07Z"/><path class="b85798b7-c6e1-4143-bc4c-64df49908a78" d="M34.82,4.44A.8.8,0,0,0,36,5.23a20.73,20.73,0,0,0,1.92-1.15.71.71,0,0,0,.17-1,.67.67,0,0,0-.94-.29,20.43,20.43,0,0,0-2,1.17A1.2,1.2,0,0,0,34.82,4.44Z"/><path class="b85798b7-c6e1-4143-bc4c-64df49908a78" d="M39.53,1.77a.8.8,0,0,0,1.14.8A19.73,19.73,0,0,0,42.6,1.41a.71.71,0,0,0,.17-1,.69.69,0,0,0-1-.3c-.67.36-1.33.75-2,1.18C39.68,1.39,39.6,1.66,39.53,1.77Z"/><path class="b85798b7-c6e1-4143-bc4c-64df49908a78" d="M34.82,12a2.65,2.65,0,0,0,.47.55c.53.36,1.1.68,1.66,1a.77.77,0,0,0,1.1-.21.78.78,0,0,0-.28-1.12c-.57-.37-1.15-.73-1.75-1A.82.82,0,0,0,34.82,12Z"/><path class="b85798b7-c6e1-4143-bc4c-64df49908a78" d="M39.82,14.73a2.42,2.42,0,0,0,.47.55c.53.36,1.1.68,1.66,1a.77.77,0,0,0,1.1-.22.78.78,0,0,0-.28-1.12c-.57-.37-1.15-.73-1.75-1A.82.82,0,0,0,39.82,14.73Z"/><path class="b85798b7-c6e1-4143-bc4c-64df49908a78" d="M36.48,7.4c-.29,0-.59,0-.89,0a.8.8,0,0,0-.77.76.78.78,0,0,0,.74.79c.63,0,1.26,0,1.88,0a.73.73,0,0,0,.74-.78.76.76,0,0,0-.76-.77C37.11,7.38,36.8,7.4,36.48,7.4Z"/><path class="b85798b7-c6e1-4143-bc4c-64df49908a78" d="M41.92,7.4c-.3,0-.6,0-.89,0a.8.8,0,0,0-.78.76A.78.78,0,0,0,41,9c.62,0,1.25,0,1.88,0a.72.72,0,0,0,.73-.78.74.74,0,0,0-.75-.77C42.54,7.38,42.23,7.4,41.92,7.4Z"/><path class="b85798b7-c6e1-4143-bc4c-64df49908a78" d="M11.42,42.83a3,3,0,0,0-2.52-2.5A1.19,1.19,0,0,1,8,39.1a1.3,1.3,0,0,1,.9-1.23c.45-.18.9-.36,1.37-.51a.78.78,0,0,0,.59-.57,15.08,15.08,0,0,1,.55-1.46,1.21,1.21,0,0,1,1.22-.82,1.12,1.12,0,0,1,1.19.84,3,3,0,0,0,2.54,2.55,1.29,1.29,0,0,1,0,2.42,3.05,3.05,0,0,0-2.57,2.59,1.12,1.12,0,0,1-1.16.81A1.16,1.16,0,0,1,11.42,42.83Zm1.22-1.28a2.78,2.78,0,0,1,2.42-2.41,2.84,2.84,0,0,1-2.4-2.48,2.86,2.86,0,0,1-2.43,2.46A2.78,2.78,0,0,1,12.64,41.55Z"/></g></g></g></g></svg>