<svg xmlns="http://www.w3.org/2000/svg" viewBox="0 0 44.17 44.16"><defs><style>.f5dcfdba-295a-46cc-b0f2-0d4b25820f06{fill:#00263a;}</style></defs><g id="e4b0a4c1-9012-47be-a414-a571e68fcc8a" data-name="Layer 2"><g id="b35ad390-c980-41c2-aad9-7a4e3bf22015" data-name="Layer 1"><g id="f2f828ea-13e5-4bcb-b45b-a222dea342fb" data-name="76YSgi"><path class="f5dcfdba-295a-46cc-b0f2-0d4b25820f06" d="M44.17,11.3V40.71a.86.86,0,0,0-.07.21,3.83,3.83,0,0,1-3.33,3.19,5.84,5.84,0,0,1-.73,0H19.43a3.82,3.82,0,0,1-3.87-2.59,10.8,10.8,0,0,1-.37-2.07c-.15-1-.27-2.1-.4-3.19h-.54c-3.37,0-6.73,0-10.09,0a5,5,0,0,1-1.92-.39A3.73,3.73,0,0,1,0,32.28c0-2.54,0-5.09,0-7.63Q0,14.38,0,4.12A3.76,3.76,0,0,1,1.62.78,9.6,9.6,0,0,1,3.45,0H17.69l.24.08a3.57,3.57,0,0,1,2.84,2.36,17.56,17.56,0,0,1,.53,2.91c.13.82.22,1.64.33,2.5H40.05a3.75,3.75,0,0,1,3.34,1.61A10.82,10.82,0,0,1,44.17,11.3ZM19.75,41.58H40c1.13,0,1.6-.48,1.6-1.6V12c0-1.13-.47-1.6-1.59-1.6H22c0,.12,0,.19,0,.26.43,3.46.87,6.92,1.3,10.39.56,4.51,1.11,9,1.68,13.55A1.61,1.61,0,0,1,24.55,36c-.45.5-.88,1-1.33,1.53Zm2.49-7.85c-.29-2.26-.56-4.45-.84-6.65Q20.7,21.35,20,15.62L18.54,4a1.41,1.41,0,0,0-1.61-1.45H4.21c-1.15,0-1.62.46-1.62,1.62V32.1c0,1.16.47,1.63,1.62,1.63h18Zm-1.39,2.61H17.41l.43,3.48Z"/><path class="f5dcfdba-295a-46cc-b0f2-0d4b25820f06" d="M32.45,29.64,29.51,32a1.39,1.39,0,0,1-1.19.38,1.29,1.29,0,0,1-.55-2.29c.78-.66,1.58-1.29,2.37-1.94.17-.13.33-.28.4-.34-.75-1.28-1.5-2.5-2.19-3.76a12.08,12.08,0,0,1-.66-1.67c-.07-.21-.14-.33-.41-.34A1.27,1.27,0,0,1,26,20.77a1.3,1.3,0,0,1,1.4-1.27h3.77V18.34a1.3,1.3,0,1,1,2.59,0c0,.38,0,.75,0,1.17h3.81a1.29,1.29,0,0,1,1.36,1.25,1.31,1.31,0,0,1-1.29,1.34.5.5,0,0,0-.38.23,16.83,16.83,0,0,1-3,5.44l2.44,2c.15.12.32.24.47.37A1.29,1.29,0,0,1,37.32,32a1.26,1.26,0,0,1-1.77.22c-.87-.67-1.7-1.38-2.55-2.07C32.82,30,32.65,29.81,32.45,29.64Zm0-3.8a13.27,13.27,0,0,0,2.1-3.74h-4.2A13,13,0,0,0,32.44,25.84Z"/><path class="f5dcfdba-295a-46cc-b0f2-0d4b25820f06" d="M13.52,19.52H10c-.27,1.32-.53,2.62-.8,3.93A1.3,1.3,0,1,1,6.62,23c.84-4.2,1.67-8.39,2.52-12.58a1.35,1.35,0,0,1,1.53-1.25h2.19a1.34,1.34,0,0,1,1.46,1.18q1.29,6.38,2.55,12.75a1.3,1.3,0,0,1-1,1.58,1.31,1.31,0,0,1-1.51-1.09C14.06,22.23,13.8,20.89,13.52,19.52ZM13,16.89l-1-5.16-.46,0-1,5.14Z"/></g></g></g></svg>