<svg xmlns="http://www.w3.org/2000/svg" viewBox="0 0 49.98 61.97"><defs><style>.adf10b6a-8c6e-4ea7-a404-191a7728d744{fill:#c4ad8b;}.eb054eac-1c8c-48fd-bcec-0396c44a4cb0{fill:#8c734b;}.a8b52c8d-09e4-43e4-8b62-301cb5325ebe{fill:#00263a;}.e5450aef-6a15-4c09-8c9e-9fb60c0c2881{fill:#fff;}</style></defs><g id="f7f5b587-8b42-4bfa-b16d-449359d916b0" data-name="Layer 2"><g id="bdcc5279-b740-4222-9ca8-bfa63ab57f60" data-name="Layer 1"><path class="adf10b6a-8c6e-4ea7-a404-191a7728d744" d="M13.92,29.73a.85.85,0,0,0-1.11-.42l-4.42,2a.84.84,0,0,0,.35,1.6.71.71,0,0,0,.34-.08l4.42-2A.84.84,0,0,0,13.92,29.73Z"/><path class="adf10b6a-8c6e-4ea7-a404-191a7728d744" d="M24.83,32.42h0a.84.84,0,0,0-.42-1.11l-4.41-2a.84.84,0,1,0-.69,1.53l2.9,1.32c1.6.72,1.65.75,1.84.75h0A.83.83,0,0,0,24.83,32.42Z"/><path class="adf10b6a-8c6e-4ea7-a404-191a7728d744" d="M10,36.77a.85.85,0,0,0-.79.89.86.86,0,0,0,.29.58.79.79,0,0,0,.55.21h0a3.66,3.66,0,0,0,3.31-1.89,3.39,3.39,0,0,0,.4-1.74.78.78,0,0,0-.48-.7.8.8,0,0,0-.85.08c-.75.56-2.54.44-3.1.36a.82.82,0,0,0-1,.7.83.83,0,0,0,.7,1,9.16,9.16,0,0,0,2.44,0,2.58,2.58,0,0,1-1.57.53Z"/><path class="adf10b6a-8c6e-4ea7-a404-191a7728d744" d="M23.68,36.21a.84.84,0,0,0,.55-.33.84.84,0,0,0-.81-1.32,5.39,5.39,0,0,1-3.1-.36.8.8,0,0,0-.85-.08.82.82,0,0,0-.48.7,3.51,3.51,0,0,0,.4,1.74,3.68,3.68,0,0,0,3.3,1.89h.07a.84.84,0,0,0,0-1.68,2.6,2.6,0,0,1-1.57-.53A9.21,9.21,0,0,0,23.68,36.21Z"/><path class="adf10b6a-8c6e-4ea7-a404-191a7728d744" d="M13.86,47.64a.84.84,0,0,0,.82.68h3.73a.84.84,0,1,0,0-1.68h-2.9a2.5,2.5,0,0,1,2.1-2,.84.84,0,0,0,.6-1,.87.87,0,0,0-.39-.51.89.89,0,0,0-.64-.09A4.06,4.06,0,0,0,13.86,47.64Z"/><path class="eb054eac-1c8c-48fd-bcec-0396c44a4cb0" d="M24.16,45.55a.82.82,0,0,0-.63.1.84.84,0,0,0-.37.53.84.84,0,0,0,.63,1l.43.1.19,0a.87.87,0,0,0,.44-.13.84.84,0,0,0-.26-1.53Z"/><path class="eb054eac-1c8c-48fd-bcec-0396c44a4cb0" d="M31.19,48.87a.84.84,0,0,0-.05-.64.86.86,0,0,0-.49-.41l-.42-.13a.84.84,0,0,0-.64.06.77.77,0,0,0-.41.49.84.84,0,0,0,.05.64.86.86,0,0,0,.49.41l.42.13a.78.78,0,0,0,.26,0,.75.75,0,0,0,.38-.1A.77.77,0,0,0,31.19,48.87Z"/><path class="eb054eac-1c8c-48fd-bcec-0396c44a4cb0" d="M33,44.58l-.44,0a.83.83,0,0,0-.92.75.85.85,0,0,0,.75.92l.44,0H33a.78.78,0,0,0,.52-.19.8.8,0,0,0,.31-.56A.85.85,0,0,0,33,44.58Z"/><path class="eb054eac-1c8c-48fd-bcec-0396c44a4cb0" d="M26.62,49.24a.85.85,0,0,0-1.19.09.84.84,0,0,0,.09,1.18l.33.29a.83.83,0,0,0,.55.2.85.85,0,0,0,.64-.29A.84.84,0,0,0,27,49.53Z"/><path class="eb054eac-1c8c-48fd-bcec-0396c44a4cb0" d="M30.4,53.18a.84.84,0,0,0-1.18.08.81.81,0,0,0-.2.61.85.85,0,0,0,.28.58l.34.28a.82.82,0,0,0,.54.21.84.84,0,0,0,.55-1.48Z"/><path class="eb054eac-1c8c-48fd-bcec-0396c44a4cb0" d="M27.91,46.22h.47a.84.84,0,0,0,0-1.67l-.44,0a.86.86,0,0,0-.6.22.82.82,0,0,0-.27.59A.84.84,0,0,0,27.91,46.22Z"/><path class="eb054eac-1c8c-48fd-bcec-0396c44a4cb0" d="M35.55,6.5a.88.88,0,0,0,.42.11.83.83,0,0,0,.22,0,.79.79,0,0,0,.5-.39A.83.83,0,0,0,35.75,5a.87.87,0,0,0-.51.39.82.82,0,0,0-.08.63A.84.84,0,0,0,35.55,6.5Z"/><path class="adf10b6a-8c6e-4ea7-a404-191a7728d744" d="M26.73,25h3.64v5.13Zm-25,5.13V25H5.32ZM32,29.85v-5.3a8.13,8.13,0,0,0,4-6.1H47.76a2.11,2.11,0,0,0,1.83-3.17L41.38,1.06a2.11,2.11,0,0,0-3.66,0L33.78,8a.84.84,0,0,0-.08.64.77.77,0,0,0,.39.51.81.81,0,0,0,.63.08.9.9,0,0,0,.45-.29l.09-.15L39.18,1.9a.41.41,0,0,1,.37-.22h0a.44.44,0,0,1,.38.21l8.21,14.23a.43.43,0,0,1,0,.44.44.44,0,0,1-.38.21H31.34a.43.43,0,0,1-.38-.22.42.42,0,0,1,0-.43L35.42,8.4a.84.84,0,0,0,.08-.64.81.81,0,0,0-1-.58.86.86,0,0,0-.51.38L32.62,9.9c-.3-.22-.77-.53-1.85-1.28L29.71,7.9a.87.87,0,0,0-.8-.09.83.83,0,0,0-.5.62A4.39,4.39,0,0,1,24.11,12H7.73A7.74,7.74,0,0,0,0,19.72V33.83a45.67,45.67,0,0,0,.11,4.76L.4,40.27A16.1,16.1,0,0,0,7.05,50l1.07.68h0a16.24,16.24,0,0,0,14.21.77l7.39,9.88a.8.8,0,0,0,.65.34h.1a.86.86,0,0,0,.7-.53.78.78,0,0,0-.11-.81L21.58,47.68a.87.87,0,0,0-.56-.32.83.83,0,0,0-.62.15.86.86,0,0,0-.17,1.17l1.07,1.43A14.54,14.54,0,0,1,9,49.29l-1.07-.68a14.11,14.11,0,0,1-6-9.34,22.09,22.09,0,0,1-.22-4.59V33l5.69-8H24.68l5.69,8v1.51c0,2.93,0,4.42-.66,6.6l-9.33,1.38a.84.84,0,0,0,.25,1.66L37.69,41.6a.82.82,0,0,0,.55-.33.86.86,0,0,0,.16-.62.85.85,0,0,0-.95-.7l-5.92.87c0-.19.09-.37.13-.56L32,38.59a34.22,34.22,0,0,0,.09-4v-4.7ZM29.51,15.28a2.12,2.12,0,0,0,1.83,3.17h3C34,20.59,33.1,21.79,31,23.28H1.68V19.72a6.06,6.06,0,0,1,6.06-6H24.11A6.08,6.08,0,0,0,29.7,9.93l.36.24,1.72,1.19Z"/><rect class="a8b52c8d-09e4-43e4-8b62-301cb5325ebe" x="19.58" y="41.18" width="18.92" height="1.71" transform="matrix(0.99, -0.15, 0.15, 0.99, -5.84, 4.71)"/><rect class="a8b52c8d-09e4-43e4-8b62-301cb5325ebe" x="24.78" y="45.76" width="1.71" height="17.44" transform="translate(-27.58 26.31) rotate(-36.9)"/><path class="e5450aef-6a15-4c09-8c9e-9fb60c0c2881" d="M38.32,1.55,30,16a1.09,1.09,0,0,0,.93,1.64H48A1.08,1.08,0,0,0,49,16L40.69,1.55A1.39,1.39,0,0,0,38.32,1.55Z"/><path class="a8b52c8d-09e4-43e4-8b62-301cb5325ebe" d="M48,18.53H30.9a1.88,1.88,0,0,1-1.68-1,1.92,1.92,0,0,1,0-2L37.59,1.11A2.23,2.23,0,0,1,39.5,0h0a2.22,2.22,0,0,1,1.91,1.08l8.29,14.5a2,2,0,0,1,0,1.94A1.91,1.91,0,0,1,48,18.53ZM39.05,2,30.71,16.47a.23.23,0,0,0,.19.36H48a.23.23,0,0,0,.2-.12.23.23,0,0,0,0-.23L40,2a.5.5,0,0,0-.44-.23h0A.52.52,0,0,0,39.05,2Z"/><path class="eb054eac-1c8c-48fd-bcec-0396c44a4cb0" d="M39.55,11.86a1,1,0,0,0,1-1V6.91a1,1,0,0,0-2.06,0v3.92A1,1,0,0,0,39.55,11.86Z"/><path class="eb054eac-1c8c-48fd-bcec-0396c44a4cb0" d="M38.52,14.07a1,1,0,1,0,2.06,0v-.68a1,1,0,1,0-2.06,0Z"/></g></g></svg>