<svg xmlns="http://www.w3.org/2000/svg" viewBox="0 0 42.98 42.98"><defs><style>.abb35e8d-f67a-40dd-b477-b079b9097af8{fill:#00263a;}</style></defs><g id="b13dbb31-b261-4e92-8ee8-0056d46a36c6" data-name="Layer 2"><g id="bb498c20-3fb2-4425-bde8-b704b01a1b40" data-name="Layer 1"><g id="ff63b0e3-b999-44ac-9a96-0ad7123d409d" data-name="J4OPXq"><path class="abb35e8d-f67a-40dd-b477-b079b9097af8" d="M43,20.32v2.43c-.06.54-.11,1.08-.19,1.62a21,21,0,0,1-6.72,12.85,20.89,20.89,0,0,1-17.51,5.55A20.58,20.58,0,0,1,7.21,37.51,20.92,20.92,0,0,1,0,22.49,20.67,20.67,0,0,1,4.67,8.18,21,21,0,0,1,17.83.33C18.6.19,19.38.11,20.15,0h2.68c.56.07,1.11.13,1.66.21a21,21,0,0,1,9.56,3.88,21.25,21.25,0,0,1,8.69,14.32C42.84,19.05,42.91,19.68,43,20.32Zm-2.53.81A19,19,0,1,0,22.34,40.44,19,19,0,0,0,40.45,21.13Z"/><path class="abb35e8d-f67a-40dd-b477-b079b9097af8" d="M5.12,21.41a16.37,16.37,0,1,1,16.4,16.45A16.38,16.38,0,0,1,5.12,21.41ZM21.47,7.64A13.86,13.86,0,1,0,35.34,21.53,13.87,13.87,0,0,0,21.47,7.64Z"/><path class="abb35e8d-f67a-40dd-b477-b079b9097af8" d="M20.23,12.62V11.48a1.26,1.26,0,1,1,2.52,0c0,.42,0,.84,0,1.21a17.49,17.49,0,0,1,1.93.68,4.93,4.93,0,0,1,3.07,3.85,1.47,1.47,0,0,1-.23,1.24,1.21,1.21,0,0,1-1.31.44,1.13,1.13,0,0,1-.92-1.07c0-1.29-1.36-2.24-2.51-2.45v4.9c.48.15,1,.28,1.46.45A5.58,5.58,0,0,1,27,22.82a4.29,4.29,0,0,1-.83,5.82,6.45,6.45,0,0,1-3.06,1.48c-.3.07-.39.18-.37.47a6.81,6.81,0,0,1,0,1,1.25,1.25,0,0,1-2.5,0c0-.44,0-.89,0-1.34-.43-.13-.86-.22-1.26-.36a5.36,5.36,0,0,1-3.58-3.43,4.54,4.54,0,0,1-.19-1.16A1.23,1.23,0,0,1,16.36,24a1.26,1.26,0,0,1,1.34,1.12,2.83,2.83,0,0,0,2.53,2.46c0-1.57,0-3.14,0-4.7,0-.1-.18-.26-.3-.28a6.87,6.87,0,0,1-2.84-1.29,4.41,4.41,0,0,1,.53-7.56A20.25,20.25,0,0,1,20.23,12.62Zm0,2.73a3.72,3.72,0,0,0-2.1,1.25,1.57,1.57,0,0,0-.29,1.69,3.24,3.24,0,0,0,2.39,1.76ZM22.76,27.6a3.84,3.84,0,0,0,1.87-1,1.75,1.75,0,0,0,.61-1.57A2.87,2.87,0,0,0,22.76,23Z"/></g></g></g></svg>