<svg xmlns="http://www.w3.org/2000/svg" viewBox="0 0 53.65 62.7"><defs><style>.e9d5591b-6516-4fca-9ec2-399d4d6494bd{fill:#00263a;}.e38a20d7-28fc-4e70-91b2-9993b633dbb9{fill:none;}.e2d190cd-d425-45e8-a065-78a0ba8e36d0{fill:#8c734b;}.ab42b135-b0cb-4cf6-b9b1-71cae160f922{fill:#fff;}</style></defs><g id="ab96e185-240b-4c6a-a2f3-999724bcd499" data-name="Layer 2"><g id="a3980b12-35bb-4054-ad23-d5cfce9cbd2b" data-name="Layer 1"><path class="e9d5591b-6516-4fca-9ec2-399d4d6494bd" d="M48.56,62.7H5.1a2.38,2.38,0,0,1-1.81-3.92l7.06-8.23,1.39,1.18L4.68,60a.52.52,0,0,0-.08.59.54.54,0,0,0,.5.32H48.56a.56.56,0,0,0,.5-.32A.55.55,0,0,0,49,60l-7-8.24,1.38-1.18,7.06,8.23a2.37,2.37,0,0,1-1.8,3.92Z"/><rect class="e9d5591b-6516-4fca-9ec2-399d4d6494bd" x="14.91" y="53.37" width="23.79" height="1.83"/><rect class="e9d5591b-6516-4fca-9ec2-399d4d6494bd" x="11.43" y="56.72" width="30.75" height="2.08"/><rect class="e38a20d7-28fc-4e70-91b2-9993b633dbb9" x="1.79" y="48.08" width="50.08" height="1.84"/><path class="e2d190cd-d425-45e8-a065-78a0ba8e36d0" d="M52.76,46.24H.89a.91.91,0,0,0-.89.92v3.68a.91.91,0,0,0,.89.92H52.76a.91.91,0,0,0,.89-.92V47.16A.91.91,0,0,0,52.76,46.24Zm-.9,3.68H1.79V48.08H51.86Z"/><path class="e2d190cd-d425-45e8-a065-78a0ba8e36d0" d="M23,46.42V31.07h2.16V46.42h2.15V31.07H29.5V46.42h2.15V31.07h2.16A1.09,1.09,0,0,0,34.89,30V16.65a3.29,3.29,0,0,0-3.24-3.33H30.54A5.55,5.55,0,0,0,31.65,10V5.55a5.39,5.39,0,1,0-10.77,0V10A5.55,5.55,0,0,0,22,13.32H20.88a3.29,3.29,0,0,0-3.24,3.33V30a1.09,1.09,0,0,0,1.08,1.11h2.16V46.42H23ZM23,5.55a3.24,3.24,0,1,1,6.47,0V6L26.75,4.56a1,1,0,0,0-1,0L23,6Zm0,2.91,3.23-1.67L29.5,8.46V10A3.24,3.24,0,1,1,23,10ZM19.8,28.85V16.65a1.09,1.09,0,0,1,1.08-1.11H31.65a1.09,1.09,0,0,1,1.08,1.11v12.2H30.58v-10H28.42v10H24.11v-10H22v10Z"/><polygon class="e2d190cd-d425-45e8-a065-78a0ba8e36d0" points="27.72 46.24 25.93 46.24 25.88 46.24 25.88 46.41 27.77 46.41 27.77 46.24 27.72 46.24"/><polygon class="e2d190cd-d425-45e8-a065-78a0ba8e36d0" points="23.99 46.41 23.99 46.24 22.36 46.24 22.09 46.24 22.09 46.41 23.99 46.41"/><path class="ab42b135-b0cb-4cf6-b9b1-71cae160f922" d="M22,18.69h2.16v10h4.31v-10h2.16v10h2.15V16.47a1.09,1.09,0,0,0-1.08-1.11H20.88a1.09,1.09,0,0,0-1.08,1.11V28.68H22Z"/><polygon class="ab42b135-b0cb-4cf6-b9b1-71cae160f922" points="29.5 46.29 29.5 30.95 27.34 30.95 27.34 46.29 29.32 46.29 29.5 46.29"/><polygon class="ab42b135-b0cb-4cf6-b9b1-71cae160f922" points="25.19 46.29 25.19 30.95 23.03 30.95 23.03 46.29 23.21 46.29 25.19 46.29"/><path class="ab42b135-b0cb-4cf6-b9b1-71cae160f922" d="M26.26,13.14A3.28,3.28,0,0,0,29.5,9.81V8.28L26.26,6.62,23,8.28V9.81A3.28,3.28,0,0,0,26.26,13.14Z"/><path class="ab42b135-b0cb-4cf6-b9b1-71cae160f922" d="M26.75,4.39,29.5,5.8V5.37a3.24,3.24,0,1,0-6.47,0V5.8l2.75-1.41A1,1,0,0,1,26.75,4.39Z"/></g></g></svg>