<svg xmlns="http://www.w3.org/2000/svg" viewBox="0 0 47.69 60.61"><defs><style>.e129c208-0f05-4c82-9884-57fb0eeb66eb{fill:#8c734b;}.fba1a4d3-1aff-4de8-adf4-af8e1ded70b5{fill:#00263a;}.b45409ce-6eda-45a2-98f5-5453a5a1a29d{fill:#c4ad8b;}</style></defs><g id="bc429bab-8e99-45f2-9596-649bc780d9b0" data-name="Layer 2"><g id="bc32291f-7594-475c-9a4b-05ee4ae40bed" data-name="Layer 1"><path class="e129c208-0f05-4c82-9884-57fb0eeb66eb" d="M33.86,40.2a10.92,10.92,0,0,0-9.11,3.57l-3.1,3.43a5,5,0,0,0-.79,5.46H8.94a6.87,6.87,0,0,0-6.87,6.87v.1a1,1,0,0,0,1,1h21.7a.93.93,0,0,0,.46-.12L40,52.66h7.7v-2H39.74a.93.93,0,0,0-.46.12L24.51,58.62H4.14a4.9,4.9,0,0,1,4.8-4H22.85a.93.93,0,0,0,.55-.16h0l6-4a1,1,0,0,0-1.1-1.65L23,52.36a3,3,0,0,1,.13-3.83l3.09-3.43a9,9,0,0,1,7.46-2.93l6,.55h8v-2h-7.9Z"/><path class="fba1a4d3-1aff-4de8-adf4-af8e1ded70b5" d="M14.9,35.77h2v2h-2Z"/><path class="fba1a4d3-1aff-4de8-adf4-af8e1ded70b5" d="M14.9,39.74h2v2h-2Z"/><path class="fba1a4d3-1aff-4de8-adf4-af8e1ded70b5" d="M14.9,43.72h2v2h-2Z"/><path class="fba1a4d3-1aff-4de8-adf4-af8e1ded70b5" d="M14.9,47.69h2v2h-2Z"/><path class="fba1a4d3-1aff-4de8-adf4-af8e1ded70b5" d="M10.93,35.77h2v2h-2Z"/><path class="fba1a4d3-1aff-4de8-adf4-af8e1ded70b5" d="M10.93,39.74h2v2h-2Z"/><path class="fba1a4d3-1aff-4de8-adf4-af8e1ded70b5" d="M10.93,43.72h2v2h-2Z"/><path class="fba1a4d3-1aff-4de8-adf4-af8e1ded70b5" d="M10.93,47.69h2v2h-2Z"/><path class="fba1a4d3-1aff-4de8-adf4-af8e1ded70b5" d="M7,35.77h2v2H7Z"/><path class="fba1a4d3-1aff-4de8-adf4-af8e1ded70b5" d="M7,39.74h2v2H7Z"/><path class="fba1a4d3-1aff-4de8-adf4-af8e1ded70b5" d="M7,43.72h2v2H7Z"/><path class="fba1a4d3-1aff-4de8-adf4-af8e1ded70b5" d="M7,47.69h2v2H7Z"/><path class="fba1a4d3-1aff-4de8-adf4-af8e1ded70b5" d="M3,35.77H5v2H3Z"/><path class="fba1a4d3-1aff-4de8-adf4-af8e1ded70b5" d="M3,39.74H5v2H3Z"/><path class="fba1a4d3-1aff-4de8-adf4-af8e1ded70b5" d="M3,43.72H5v2H3Z"/><path class="fba1a4d3-1aff-4de8-adf4-af8e1ded70b5" d="M3,47.69H5v2H3Z"/><path class="fba1a4d3-1aff-4de8-adf4-af8e1ded70b5" d="M18.88,35.77h2v2h-2Z"/><path class="fba1a4d3-1aff-4de8-adf4-af8e1ded70b5" d="M18.88,39.74h2v2h-2Z"/><path class="fba1a4d3-1aff-4de8-adf4-af8e1ded70b5" d="M18.88,43.72h2v2h-2Z"/><path class="fba1a4d3-1aff-4de8-adf4-af8e1ded70b5" d="M22.85,35.77h2v2h-2Z"/><path class="fba1a4d3-1aff-4de8-adf4-af8e1ded70b5" d="M22.85,39.74h2v2h-2Z"/><path class="fba1a4d3-1aff-4de8-adf4-af8e1ded70b5" d="M26.83,35.77h2v2h-2Z"/><path class="e129c208-0f05-4c82-9884-57fb0eeb66eb" d="M27.07,33.78a4.72,4.72,0,0,0,4.72-4.72V23.84h-2v5.22a2.74,2.74,0,0,1-2.74,2.73H4.72A2.73,2.73,0,0,1,2,29.06V8H0V29.06a4.72,4.72,0,0,0,4.72,4.72Z"/><path class="e129c208-0f05-4c82-9884-57fb0eeb66eb" d="M2,2H29.81V21.86h2V1a1,1,0,0,0-1-1H1A1,1,0,0,0,0,1V6H2Z"/><path class="b45409ce-6eda-45a2-98f5-5453a5a1a29d" d="M33.3,33.66l3,1.62,1.62,2.95a1,1,0,0,0,1.34.4,1,1,0,0,0,.4-.4l1.62-2.95,2.95-1.62a1,1,0,0,0,.4-1.35,1,1,0,0,0-.4-.4L41.24,30.3l-1.62-3A1,1,0,0,0,38.27,27a1,1,0,0,0-.39.39l-1.62,3-3,1.61a1,1,0,0,0,0,1.75Zm4.17-1.76a1,1,0,0,0,.39-.39l.89-1.62.88,1.62a1,1,0,0,0,.4.39l1.61.89L40,33.67a1,1,0,0,0-.4.4l-.88,1.61-.89-1.61a1,1,0,0,0-.39-.4l-1.62-.88Z"/><path class="b45409ce-6eda-45a2-98f5-5453a5a1a29d" d="M39.05,20.35l2.07,1.13,1.12,2.06a1,1,0,0,0,1.35.39,1.07,1.07,0,0,0,.4-.39l1.12-2.06,2.06-1.13a1,1,0,0,0,0-1.74l-2.06-1.13L44,15.42a1,1,0,0,0-1.35-.4,1,1,0,0,0-.4.4l-1.12,2.06-2.07,1.13A1,1,0,0,0,38.66,20a1,1,0,0,0,.39.39Zm3.27-1.27a.94.94,0,0,0,.4-.39l.39-.72.4.72a1,1,0,0,0,.39.39l.73.4-.73.39a1,1,0,0,0-.39.4l-.4.72-.39-.72a1,1,0,0,0-.4-.4l-.72-.39Z"/><path class="fba1a4d3-1aff-4de8-adf4-af8e1ded70b5" d="M11.9,9.66v3.59H8.31a1.19,1.19,0,0,0-1.19,1.19v4.79a1.19,1.19,0,0,0,1.19,1.2H11.9V24a1.19,1.19,0,0,0,1.2,1.19h4.79A1.19,1.19,0,0,0,19.08,24V20.43h3.59a1.2,1.2,0,0,0,1.2-1.2V14.44a1.19,1.19,0,0,0-1.2-1.19H19.08V9.66a1.19,1.19,0,0,0-1.19-1.2H13.1A1.2,1.2,0,0,0,11.9,9.66Zm2.25,4.49v-4h2.68v4a1.35,1.35,0,0,0,1.35,1.35h4v2.68h-4a1.34,1.34,0,0,0-1.35,1.34v4H14.15v-4a1.34,1.34,0,0,0-1.34-1.34h-4V15.5h4A1.35,1.35,0,0,0,14.15,14.15Z"/></g></g></svg>