<svg xmlns="http://www.w3.org/2000/svg" viewBox="0 0 54.53 62.83"><defs><style>.b21ca4b0-e604-44fb-854f-4f743ac4e38b{fill:none;}.bd357bfa-867f-4cff-823b-da5538283b8a{fill:#c4ad8b;}.aefb563a-a676-4592-9c85-49408e0e2c82{fill:#fff;stroke:#00263a;stroke-miterlimit:10;stroke-width:1.4px;}.bcb2ac2c-90bb-4889-9ec5-ae645a9c0358{fill:#00263a;}.a8cd82f6-5fdf-454a-b3f9-eb286355d3f6{fill:#8c734b;}</style></defs><g id="a1ede556-f343-4dd9-9f88-b139c0bb4197" data-name="Layer 2"><g id="a27d06cb-29ea-4854-94a9-1343db821633" data-name="Layer 1"><path class="b21ca4b0-e604-44fb-854f-4f743ac4e38b" d="M21.39,53l-4.86-4.85a2.36,2.36,0,1,0-3.34,3.33l4.86,4.86A2.36,2.36,0,0,0,21.39,53Z"/><path class="b21ca4b0-e604-44fb-854f-4f743ac4e38b" d="M45.52,12a.65.65,0,0,0-.65-.65H19.12a.65.65,0,0,0-.65.65v3.21H45.52Z"/><path class="b21ca4b0-e604-44fb-854f-4f743ac4e38b" d="M24.22,54.64a4.49,4.49,0,0,1-4.5,4.5A4.45,4.45,0,0,1,18.47,59V60a.65.65,0,0,0,.65.64H38.65V54.25H24.21A2.54,2.54,0,0,1,24.22,54.64Zm5.1,1.75h5.47a1.08,1.08,0,0,1,0,2.15H29.32a1.08,1.08,0,0,1,0-2.15Z"/><path class="b21ca4b0-e604-44fb-854f-4f743ac4e38b" d="M16.33,17.85,14.67,16.2a2.37,2.37,0,0,0-4,1.67,2.4,2.4,0,0,0,.69,1.67l5,5Z"/><path class="bd357bfa-867f-4cff-823b-da5538283b8a" d="M29.32,58.54h5.47a1.08,1.08,0,0,0,0-2.15H29.32a1.08,1.08,0,0,0,0,2.15Z"/><path class="bd357bfa-867f-4cff-823b-da5538283b8a" d="M53.46,26.34a8.31,8.31,0,0,0-5.41,1.75,4.1,4.1,0,0,0-.39.35V12a2.79,2.79,0,0,0-2.79-2.79H19.12A2.79,2.79,0,0,0,16.33,12v2.85l-.14-.13a4.5,4.5,0,0,0-6.37,6.37l4.64,4.65a4.5,4.5,0,0,0-3.06,5.59,4.46,4.46,0,0,0,1.13,1.92l2.65,2.65a4.51,4.51,0,0,0-2.65,7.66l1.79,1.78a4.51,4.51,0,0,0-3.93,5A4.44,4.44,0,0,0,11.68,53l4.65,4.65V60a2.79,2.79,0,0,0,2.79,2.79h20.6a1.07,1.07,0,0,0,1.08-1.07V51.45a5.8,5.8,0,0,1,2.31-4.63l4.13-3.1a1.09,1.09,0,0,0,.42-.85V34.28c0-4.27,2.61-5.47,4.73-5.73V61.76a1.07,1.07,0,0,0,2.14,0V27.41A1.07,1.07,0,0,0,53.46,26.34ZM18.47,12a.65.65,0,0,1,.65-.65H44.87a.65.65,0,0,1,.65.65v3.21H18.47Zm-7.14,7.58a2.4,2.4,0,0,1-.69-1.67,2.37,2.37,0,0,1,4-1.67l1.66,1.65v6.68ZM14.05,31.7a2.36,2.36,0,0,1,3.34-3.34l4.86,4.85a2.36,2.36,0,0,1-3.34,3.34Zm0,10.3a2.36,2.36,0,1,1,3.34-3.34l4.86,4.86a2.36,2.36,0,0,1-3.34,3.34Zm-.86,9.44a2.36,2.36,0,1,1,3.34-3.33L21.39,53a2.36,2.36,0,0,1-3.34,3.34Zm25.46,9.24H19.12a.65.65,0,0,1-.65-.64V59a4.45,4.45,0,0,0,1.25.18,4.49,4.49,0,0,0,4.5-4.5,2.54,2.54,0,0,0,0-.39H38.65Zm6.87-18.35L41.83,45.1a8,8,0,0,0-3.18,6.35v.65H23.45a5.56,5.56,0,0,0-.54-.66l-1.79-1.78A4.51,4.51,0,0,0,23.77,42l-2.65-2.64A4.56,4.56,0,0,0,23,38.7l1.5-1.56a4.51,4.51,0,0,0-.71-5.44l-.07-.07-1.1-1.1-1.85-1.85s-2.13-2.11-2.28-2.22V17.32H45.52v25Z"/><path class="aefb563a-a676-4592-9c85-49408e0e2c82" d="M19.2,37.69A18.5,18.5,0,1,1,37.69,19.2V37.47Z"/><path class="bcb2ac2c-90bb-4889-9ec5-ae645a9c0358" d="M31.39,11.58a1.24,1.24,0,0,0-1.75,0L28.21,13l-1.44,1.44-7.6,7.6-3.25-3.17a1.25,1.25,0,0,0-.87-.35,1.24,1.24,0,0,0-.86,2.12l4.12,4a1.24,1.24,0,0,0,.87.36,1.2,1.2,0,0,0,.87-.37L28,16.74l1.55-1.54,1.86-1.87A1.23,1.23,0,0,0,31.39,11.58Z"/><path class="a8cd82f6-5fdf-454a-b3f9-eb286355d3f6" d="M30.42,17.23,28.7,19a8.08,8.08,0,0,1,0,1.84,8.72,8.72,0,0,1-15.57,4.44l0,0a8.3,8.3,0,0,1-1.78-4.27,8.47,8.47,0,0,1,0-2h0a8.72,8.72,0,0,1,9.58-7.77,8.63,8.63,0,0,1,5,2.23L27.33,12a10.59,10.59,0,0,0-15.76,1.29l-.05,0a10.71,10.71,0,0,0,11.2,17l.44-.11.57-.2c.29-.11.57-.23.85-.36l.23-.1h0a11.39,11.39,0,0,0,2-1.31A10.73,10.73,0,0,0,30.42,17.23Z"/></g></g></svg>