<svg xmlns="http://www.w3.org/2000/svg" viewBox="0 0 66.61 57.77"><defs><style>.b45e4821-4d21-4068-a140-8f22827fd41e{fill:#8c734b;}.fb18866c-bcb5-4c23-9cc3-2117e6008292{fill:#c4ad8b;}.f001d39b-5f39-4eb4-a6a7-dab9901cf401{fill:#00263a;}</style></defs><g id="aad4de38-8dd1-47fb-9dcb-482976fff68c" data-name="Layer 2"><g id="b4c33223-75af-4dd8-bb20-c0def3651ba9" data-name="Layer 1"><path class="b45e4821-4d21-4068-a140-8f22827fd41e" d="M65.5,30h-.28L62.13,19.71a1.13,1.13,0,0,0-1.07-.79H45.52a1.13,1.13,0,0,0-1.07.79L43.3,23.56l-1.16-3.85a1.1,1.1,0,0,0-1.06-.79H25.53a1.1,1.1,0,0,0-1.06.79l-1.16,3.85-1.15-3.85a1.12,1.12,0,0,0-1.07-.79H5.55a1.1,1.1,0,0,0-1.06.79L1.39,30H1.11A1.11,1.11,0,0,0,0,31.13v4.44a1.11,1.11,0,0,0,1.11,1.11v20a1.11,1.11,0,0,0,1.11,1.11H64.39a1.1,1.1,0,0,0,1.11-1.11v-20a1.11,1.11,0,0,0,1.11-1.11V31.13A1.11,1.11,0,0,0,65.5,30ZM10,21.14h6.66v4.44H10ZM2.22,32.24H20v2.22H2.22ZM21.09,55.55H3.33V36.68H21.09ZM21.38,30H3.71l2.67-8.88H7.77v5.55A1.11,1.11,0,0,0,8.88,27.8h8.88a1.11,1.11,0,0,0,1.11-1.11V21.14h1.4l1.88,6.29ZM30,21.14h6.66v4.44H30Zm-6.22,8.65.62-2h0l2-6.61h1.4v5.55a1.11,1.11,0,0,0,1.11,1.11h8.88a1.11,1.11,0,0,0,1.11-1.11V21.14h1.39l2,6.61h0l.61,2,.07.23H23.7ZM43.3,55.55h-20V36.68h20Zm1.11-21.09H22.2V32.24H44.41ZM50,21.14h6.66v4.44H50Zm-5.5,6.29,1.88-6.29h1.4v5.55a1.11,1.11,0,0,0,1.11,1.11h8.88a1.11,1.11,0,0,0,1.11-1.11V21.14h1.4L62.9,30H45.23ZM63.28,55.55H45.52V36.68H63.28Zm1.11-21.09H46.63V32.24H64.39Z"/><path class="fb18866c-bcb5-4c23-9cc3-2117e6008292" d="M30.79,51.11h5a3.34,3.34,0,0,0,2.77-5.18l-2.51-3.76a3.32,3.32,0,0,0-5.54,0L28,45.93a3.34,3.34,0,0,0,2.77,5.18Zm-.92-3.94,2.51-3.77a1.14,1.14,0,0,1,1.85,0l2.51,3.77a1.09,1.09,0,0,1,.06,1.14,1.11,1.11,0,0,1-1,.58h-5a1.11,1.11,0,0,1-.92-1.72Z"/><path class="fb18866c-bcb5-4c23-9cc3-2117e6008292" d="M49.63,51.9l1.44-1.44v1.76a1.11,1.11,0,0,0,1.11,1.11h4.44a1.11,1.11,0,0,0,1.11-1.11V50.46l1.44,1.44,1.57-1.57L59,48.62a5.55,5.55,0,0,0,0-6.12l1.71-1.7-1.57-1.57-1.71,1.7a5.55,5.55,0,0,0-6.12,0l-1.71-1.7L48.06,40.8l1.71,1.7a5.55,5.55,0,0,0,0,6.12l-1.71,1.71Zm4.77-9.67a3.32,3.32,0,0,1,3.13,2.22h-2v2.22h2a3.3,3.3,0,0,1-1.44,1.77,1.1,1.1,0,0,0-.56,1v1.71H53.29V49.4a1.11,1.11,0,0,0-.56-1,3.3,3.3,0,0,1-1.44-1.77h2V44.45h-2A3.32,3.32,0,0,1,54.4,42.23Z"/><polygon class="fb18866c-bcb5-4c23-9cc3-2117e6008292" points="11.1 46.02 11.1 47.32 9.21 49.22 10.78 50.79 12.21 49.35 13.65 50.79 15.22 49.22 13.32 47.32 13.32 46.02 14.89 44.45 17.76 44.45 17.76 42.23 15.54 42.23 15.54 40.01 13.32 40.01 13.32 42.88 12.21 43.99 11.1 42.88 11.1 40.01 8.88 40.01 8.88 42.23 6.66 42.23 6.66 44.45 9.53 44.45 11.1 46.02"/><path class="f001d39b-5f39-4eb4-a6a7-dab9901cf401" d="M29.71,5.81a.9.9,0,0,1,.89,1.28,21.6,21.6,0,0,1-1.29,2.16.8.8,0,0,1-1.15.19.75.75,0,0,1-.33-1.06,23.44,23.44,0,0,1,1.32-2.21C29.28,6,29.58,5.89,29.71,5.81Z"/><path class="f001d39b-5f39-4eb4-a6a7-dab9901cf401" d="M26.72,11.1a.9.9,0,0,1,.89,1.28,21.6,21.6,0,0,1-1.29,2.16.8.8,0,0,1-1.15.19.76.76,0,0,1-.33-1.06,23.44,23.44,0,0,1,1.32-2.21C26.29,11.26,26.6,11.18,26.72,11.1Z"/><path class="f001d39b-5f39-4eb4-a6a7-dab9901cf401" d="M38.18,5.82a2.32,2.32,0,0,1,.61.53c.41.59.77,1.22,1.12,1.85a.88.88,0,1,1-1.5.92c-.41-.64-.81-1.29-1.17-2A.91.91,0,0,1,38.18,5.82Z"/><path class="f001d39b-5f39-4eb4-a6a7-dab9901cf401" d="M41.25,11.42a3,3,0,0,1,.62.53c.4.6.76,1.23,1.12,1.85a.88.88,0,1,1-1.5.93c-.41-.65-.82-1.29-1.18-2A.92.92,0,0,1,41.25,11.42Z"/><path class="f001d39b-5f39-4eb4-a6a7-dab9901cf401" d="M33,7.68c0-.33,0-.66,0-1a.9.9,0,0,1,.86-.87.89.89,0,0,1,.89.84c0,.7,0,1.41,0,2.11a.83.83,0,0,1-.88.82A.85.85,0,0,1,33,8.73C33,8.38,33,8,33,7.68Z"/><path class="f001d39b-5f39-4eb4-a6a7-dab9901cf401" d="M33,1.87c0-.34,0-.67,0-1a.88.88,0,0,1,1.75,0q0,1.05,0,2.1a.83.83,0,0,1-.88.83A.85.85,0,0,1,33,2.92C33,2.57,33,2.22,33,1.87Z"/><path class="f001d39b-5f39-4eb4-a6a7-dab9901cf401" d="M33,13.77c0-.33,0-.66,0-1a.9.9,0,0,1,.86-.87.88.88,0,0,1,.89.83c0,.7,0,1.41,0,2.11a.82.82,0,0,1-.88.82.84.84,0,0,1-.87-.84C33,14.48,33,14.12,33,13.77Z"/><path class="f001d39b-5f39-4eb4-a6a7-dab9901cf401" d="M7.87,5.81a.9.9,0,0,1,.89,1.28,23.78,23.78,0,0,1-1.3,2.16.79.79,0,0,1-1.14.19A.76.76,0,0,1,6,8.38c.4-.76.85-1.5,1.32-2.21C7.44,6,7.74,5.89,7.87,5.81Z"/><path class="f001d39b-5f39-4eb4-a6a7-dab9901cf401" d="M4.88,11.1a.9.9,0,0,1,.89,1.28,23.78,23.78,0,0,1-1.3,2.16.79.79,0,0,1-1.14.19A.77.77,0,0,1,3,13.67a23.53,23.53,0,0,1,1.33-2.21C4.45,11.26,4.75,11.18,4.88,11.1Z"/><path class="f001d39b-5f39-4eb4-a6a7-dab9901cf401" d="M16.33,5.82a2.34,2.34,0,0,1,.62.53c.4.59.76,1.22,1.12,1.85a.88.88,0,1,1-1.5.92c-.41-.64-.82-1.29-1.18-2A.91.91,0,0,1,16.33,5.82Z"/><path class="f001d39b-5f39-4eb4-a6a7-dab9901cf401" d="M19.41,11.42A2.76,2.76,0,0,1,20,12c.41.6.77,1.23,1.12,1.85A.86.86,0,0,1,20.9,15a.88.88,0,0,1-1.26-.31c-.41-.65-.81-1.29-1.17-2A.92.92,0,0,1,19.41,11.42Z"/><path class="f001d39b-5f39-4eb4-a6a7-dab9901cf401" d="M11.19,7.68c0-.33,0-.66,0-1a.9.9,0,0,1,.86-.87.87.87,0,0,1,.88.84c0,.7,0,1.41,0,2.11a.87.87,0,0,1-1.74,0C11.17,8.38,11.19,8,11.19,7.68Z"/><path class="f001d39b-5f39-4eb4-a6a7-dab9901cf401" d="M11.19,1.91c0-.33,0-.66,0-1a.89.89,0,0,1,.86-.87.86.86,0,0,1,.88.83c0,.7,0,1.41,0,2.11a.82.82,0,0,1-.88.82A.83.83,0,0,1,11.19,3C11.17,2.62,11.19,2.26,11.19,1.91Z"/><path class="f001d39b-5f39-4eb4-a6a7-dab9901cf401" d="M11.19,13.77c0-.33,0-.66,0-1a.89.89,0,0,1,.86-.87.86.86,0,0,1,.88.83c0,.7,0,1.41,0,2.11a.82.82,0,0,1-.88.82.83.83,0,0,1-.86-.84C11.17,14.48,11.19,14.12,11.19,13.77Z"/><path class="f001d39b-5f39-4eb4-a6a7-dab9901cf401" d="M50.17,5.81a.91.91,0,0,1,.9,1.28,23.78,23.78,0,0,1-1.3,2.16.8.8,0,0,1-1.15.19.76.76,0,0,1-.33-1.06c.4-.76.85-1.5,1.32-2.21C49.74,6,50.05,5.89,50.17,5.81Z"/><path class="f001d39b-5f39-4eb4-a6a7-dab9901cf401" d="M47.19,11.1a.9.9,0,0,1,.89,1.28,23.78,23.78,0,0,1-1.3,2.16.79.79,0,0,1-1.14.19.76.76,0,0,1-.34-1.06c.4-.76.85-1.5,1.32-2.21C46.76,11.26,47.06,11.18,47.19,11.1Z"/><path class="f001d39b-5f39-4eb4-a6a7-dab9901cf401" d="M58.64,5.82a2.5,2.5,0,0,1,.62.53c.4.59.76,1.22,1.11,1.85a.88.88,0,1,1-1.49.92c-.41-.64-.82-1.29-1.18-2A.91.91,0,0,1,58.64,5.82Z"/><path class="f001d39b-5f39-4eb4-a6a7-dab9901cf401" d="M61.72,11.42a2.76,2.76,0,0,1,.61.53c.41.6.76,1.23,1.12,1.85A.86.86,0,0,1,63.21,15,.88.88,0,0,1,62,14.73c-.41-.65-.81-1.29-1.17-2A.92.92,0,0,1,61.72,11.42Z"/><path class="f001d39b-5f39-4eb4-a6a7-dab9901cf401" d="M53.49,7.68c0-.33,0-.66,0-1a.89.89,0,0,1,.85-.87.88.88,0,0,1,.89.84c0,.7,0,1.41,0,2.11a.87.87,0,0,1-1.74,0C53.48,8.38,53.49,8,53.49,7.68Z"/><path class="f001d39b-5f39-4eb4-a6a7-dab9901cf401" d="M53.49,1.87c0-.34,0-.67,0-1a.87.87,0,0,1,1.74,0q0,1.05,0,2.1a.83.83,0,0,1-.88.83.84.84,0,0,1-.86-.85C53.48,2.57,53.49,2.22,53.49,1.87Z"/><path class="f001d39b-5f39-4eb4-a6a7-dab9901cf401" d="M53.49,13.77c0-.33,0-.66,0-1a.89.89,0,0,1,.85-.87.87.87,0,0,1,.89.83c0,.7,0,1.41,0,2.11a.82.82,0,0,1-.88.82.83.83,0,0,1-.86-.84C53.48,14.48,53.49,14.12,53.49,13.77Z"/></g></g></svg>