<svg xmlns="http://www.w3.org/2000/svg" viewBox="0 0 45.28 63.85"><defs><style>.b427b697-2735-4ce2-ae8b-71355726f0de{fill:#8c734b;}.f382f286-0d4d-4624-8e0f-2cfab8010b89{fill:#00263a;}.ef6a45e0-f721-4164-8ec7-daea053bf133{fill:#c4ad8b;}</style></defs><g id="e2fe1562-066c-4b19-aef5-3a46ebabb051" data-name="Layer 2"><g id="eda26f94-8b52-46a2-904b-5ea6396a8c09" data-name="Layer 1"><g id="b314fde3-2c85-4d2b-a3fb-9988d775e465" data-name="OHPo4n.tif"><path class="b427b697-2735-4ce2-ae8b-71355726f0de" d="M22,58.76a6.59,6.59,0,0,1-.86-.49,2.76,2.76,0,0,1-1.18-2.37q0-10.69,0-21.39a2.68,2.68,0,0,1,2.88-2.9h.74V29.16a2.74,2.74,0,0,1,2.68-3V24.36c-.82,0-1.64,0-2.46,0s-1.12-.3-1.12-1.12c0-1.1,0-2.19,0-3.28,0-.68.32-1,1-1,2.4,0,4.79,0,7.19,0A2.66,2.66,0,0,1,33.5,21.6c0,1.49,0,3,0,4.47l0,.05c1.8.4,2.65,1.29,2.67,2.81,0,.68,0,1.35,0,2v.65h.9a2.66,2.66,0,0,1,2.71,2.67q0,10.92,0,21.84a2.65,2.65,0,0,1-1.54,2.39l-.49.25Zm3.4-27.19h9c0-.89,0-1.74,0-2.59a.91.91,0,0,0-1-1H26.34a.91.91,0,0,0-1,1C25.34,29.81,25.36,30.67,25.36,31.57ZM21.77,55.18c-.12,1.51.12,1.77,1.58,1.77H36.81c.9,0,1.22-.33,1.22-1.23v-.54l0-1.89V35.19c.12-1.52-.12-1.77-1.58-1.77H28c-1.7,0-3.4,0-5.09,0-.84,0-1.16.33-1.16,1.17,0,.19,0,.37,0,.6l.05,1.87V55.18Zm9.91-29c0-1.56,0-3.06,0-4.56a.78.78,0,0,0-.73-.82c-.95-.05-1.9,0-2.83,0v5.39Zm-7.19-5.4v1.74h1.75V20.77Z"/><path class="b427b697-2735-4ce2-ae8b-71355726f0de" d="M5.44,41a3.38,3.38,0,0,1,1.62-1.94c.13-.06.19-.37.19-.57A3,3,0,0,1,8,36.09c.11-.1.21-.25.34-.29.8-.26.75-.88.73-1.53,0-1.13,0-2.26,0-3.39,0-.76.31-1.08,1-1.08q1.67,0,3.33,0c.71,0,1,.33,1,1,0,1.38,0,2.75,0,4.13a.73.73,0,0,0,.3.55,2.75,2.75,0,0,1,1.49,2.6,1.15,1.15,0,0,0,.63,1.26,2.38,2.38,0,0,1,1.18,2.17q0,7.27,0,14.53a2.67,2.67,0,0,1-1.55,2.44l-.48.25H7.48a3.38,3.38,0,0,1-2-2.15Zm1.85,3.31v9l0,1.87c0,.3,0,.56,0,.82a.92.92,0,0,0,1,1h7.06a.92.92,0,0,0,1-1c0-.26,0-.52,0-.82l0-1.87v-9l0-1.87c0-.29,0-.55,0-.8a.9.9,0,0,0-1-1c-2.37,0-4.75,0-7.12,0a.89.89,0,0,0-1,1c0,.26,0,.52,0,.81Zm1.77-5.5H14.5c0-.28,0-.53,0-.77a.92.92,0,0,0-1-1q-1.73,0-3.45,0a.92.92,0,0,0-1,1C9.05,38.29,9.06,38.53,9.06,38.81Zm1.85-7.18V35.2h1.75V31.63Z"/><path class="f382f286-0d4d-4624-8e0f-2cfab8010b89" d="M29.87,37.89h0a6.77,6.77,0,0,0-4.85,2A7.09,7.09,0,0,0,23,45,6.66,6.66,0,0,0,25,49.75a7,7,0,0,0,4.88,2h0a6.79,6.79,0,0,0,4.83-2.06,6.86,6.86,0,0,0,2-4.87A6.94,6.94,0,0,0,29.87,37.89Zm5.29,6.93a5.21,5.21,0,0,1-1.56,3.74,5.28,5.28,0,0,1-3.74,1.53h0a5.28,5.28,0,0,1,0-10.56h0A5.3,5.3,0,0,1,35.16,44.82Z"/><path class="f382f286-0d4d-4624-8e0f-2cfab8010b89" d="M32.94,43.65l-.15-.06c-.32-.12-.64-.25-1-.35a.47.47,0,0,1-.37-.36c-.13-.42-.29-.82-.45-1.2a1.15,1.15,0,0,0-1.12-.76h0a1.06,1.06,0,0,0-1.12.81,2.26,2.26,0,0,1-1.92,1.93,1.21,1.21,0,0,0,0,2.29,2.33,2.33,0,0,1,1.95,2,1,1,0,0,0,1.09.78h0A1.1,1.1,0,0,0,31,47.85,2.2,2.2,0,0,1,32.93,46a1.14,1.14,0,0,0,.84-1.17A1.24,1.24,0,0,0,32.94,43.65Zm-1.72,1.17a2.26,2.26,0,0,0-1.35,1.37,2.3,2.3,0,0,0-1.36-1.37,2.34,2.34,0,0,0,1.36-1.38A2.33,2.33,0,0,0,31.22,44.82Z"/><path class="f382f286-0d4d-4624-8e0f-2cfab8010b89" d="M11.84,51.75a.89.89,0,0,1-.93-.65A2.44,2.44,0,0,0,8.84,49a1,1,0,0,1,0-2,2.41,2.41,0,0,0,2-2.05.89.89,0,0,1,1-.67,1,1,0,0,1,1,.65c.16.39.32.78.44,1.18a.64.64,0,0,0,.47.46c.38.12.74.27,1.11.41a1,1,0,0,1,.72,1,1,1,0,0,1-.7,1,2.39,2.39,0,0,0-2,2A.94.94,0,0,1,11.84,51.75Z"/></g><g id="fad2f478-fa06-48a7-8acf-735d540fd55b" data-name="Ft50JF.tif"><path class="ef6a45e0-f721-4164-8ec7-daea053bf133" d="M11.49,13.49c0-.6,0-1.16,0-1.72a11.39,11.39,0,0,1,1-5.16,11,11,0,0,1,4.61-5.12A10.93,10.93,0,0,1,22.58,0,11.15,11.15,0,0,1,33.15,7.42a12.14,12.14,0,0,1,.66,4.35c0,.55,0,1.11,0,1.7.39,0,.77,0,1.14,0H41c.9,0,1.79,0,2.69,0,1.13,0,1.58.46,1.58,1.6V62.31c0,1.08-.47,1.54-1.55,1.54H1.45A1.29,1.29,0,0,1,0,62.44c0-1.69,0-3.38,0-5.07,0-.95,0-1.9,0-2.85V15A1.3,1.3,0,0,1,1.48,13.5h10ZM31.6,15.77H2.27V61.6H43V15.77H31.6Zm0-2.29V11.29A9,9,0,0,0,18.24,3.36a8.69,8.69,0,0,0-4.52,7.15c-.09,1,0,2,0,3Z"/></g></g></g></svg>