<svg xmlns="http://www.w3.org/2000/svg" viewBox="0 0 49.84 32.02"><defs><style>.fee58147-e726-40c5-a5ae-6ef3c30b3523{fill:#8c734b;}</style></defs><g id="b4991dbd-6272-48a9-8194-64a9353e644c" data-name="Layer 2"><g id="a502d98f-427e-499c-9271-cb5a3b27f2b6" data-name="Layer 1"><g id="be90dc8f-41b2-4b6a-b0ca-81c86a33436a" data-name="dHQyja"><path class="fee58147-e726-40c5-a5ae-6ef3c30b3523" d="M16.32,20.7l.75,1.76c.7,1.64,1.41,3.27,2.11,4.91A1.89,1.89,0,0,1,18.24,30c-1.19.6-2.38,1.2-3.57,1.78a1.87,1.87,0,0,1-2.68-1q-2.09-4.84-4.15-9.7a.53.53,0,0,0-.61-.39,6.57,6.57,0,0,1-4.42-1.2A6.3,6.3,0,0,1,.12,13,6.33,6.33,0,0,1,5,7.74a6.88,6.88,0,0,1,1.76-.19c3.64,0,7.29,0,10.93,0a1.26,1.26,0,0,0,.83-.28C21.34,5,24.15,2.77,27,.52A2,2,0,0,1,28.77.07a1.85,1.85,0,0,1,1.38,1.85c0,1.94,0,3.87,0,5.81a.67.67,0,0,0,.38.68,6.31,6.31,0,0,1,3.38,5.74,6.33,6.33,0,0,1-3.47,5.74.48.48,0,0,0-.28.5c0,1.92,0,3.84,0,5.77a1.88,1.88,0,0,1-1.09,1.9,1.9,1.9,0,0,1-2.13-.35Q22.72,24.31,18.48,21a1.36,1.36,0,0,0-.68-.24C17.34,20.68,16.87,20.7,16.32,20.7ZM9.43,9.38v9.48h9a1.2,1.2,0,0,1,.79.29l4.91,3.93.37.28V4.9l-.37.27c-1.65,1.32-3.3,2.63-4.94,4a1.14,1.14,0,0,1-.75.26h-9Zm-1.9,0a4.88,4.88,0,0,0-5.06,2.38,4.7,4.7,0,0,0,.47,5.32c1.11,1.31,3.29,2.1,4.59,1.65Zm20.73,17V1.86c-.54.43-1,.83-1.52,1.2a.82.82,0,0,0-.37.75c0,1.31,0,2.61,0,3.92V24.55a.6.6,0,0,0,.11.41C27.05,25.44,27.63,25.89,28.26,26.38ZM17.51,28.29a2.08,2.08,0,0,0-.06-.24c-1-2.36-2-4.73-3-7.09A.38.38,0,0,0,14,20.7H10a2.21,2.21,0,0,0-.29.05l4,9.42Zm12.65-10.4A4.67,4.67,0,0,0,32,13.71a4.57,4.57,0,0,0-1.88-3.34Z"/><path class="fee58147-e726-40c5-a5ae-6ef3c30b3523" d="M31.31,6.77l1-1.54c3.27,2.06,5.25,4.88,5.34,8.79A10.11,10.11,0,0,1,32.3,23l-1-1.49c2.77-1.69,4.51-4,4.5-7.36S34.08,8.47,31.31,6.77Z"/></g><rect class="fee58147-e726-40c5-a5ae-6ef3c30b3523" x="39.28" y="2.92" width="7.31" height="2" transform="translate(9.8 31.51) rotate(-45)"/><rect class="fee58147-e726-40c5-a5ae-6ef3c30b3523" x="41.43" y="20.94" width="2" height="7.31" transform="translate(-4.96 37.2) rotate(-45)"/><rect class="fee58147-e726-40c5-a5ae-6ef3c30b3523" x="42.53" y="13.26" width="7.31" height="2" transform="translate(-0.15 0.51) rotate(-0.63)"/></g></g></svg>