<svg xmlns="http://www.w3.org/2000/svg" viewBox="0 0 46.14 56.83"><defs><style>.bf7543f5-26ad-43ca-a3c5-a6f52dea5e08{fill:#c4ad8b;}.f416821c-fd48-4ec5-89b9-996d7fb8cf1e{fill:#8c734b;}.a78696b7-f09d-433c-bdc3-e312101e21ea{fill:#00263a;}</style></defs><g id="aaf0eb11-808d-40b5-9b9f-353914418d40" data-name="Layer 2"><g id="bb7e8d5b-cf9f-4898-8df5-546de6c40edf" data-name="Layer 1"><path class="bf7543f5-26ad-43ca-a3c5-a6f52dea5e08" d="M35.68,6.64,34.9,8.11l9.57,5V27.3a28.75,28.75,0,0,1-.44,5l1.65.29a31,31,0,0,0,.46-5.28V12.14Z"/><path class="bf7543f5-26ad-43ca-a3c5-a6f52dea5e08" d="M1.67,27.3V20.4H0v6.9a30.42,30.42,0,0,0,10.48,23L11.57,49A28.77,28.77,0,0,1,1.67,27.3Z"/><path class="bf7543f5-26ad-43ca-a3c5-a6f52dea5e08" d="M1.67,13.15,23.07,1.88,33.43,7.34l.77-1.48L23.07,0,0,12.14v6.59H1.67Z"/><path class="bf7543f5-26ad-43ca-a3c5-a6f52dea5e08" d="M23.07,55.11a28.52,28.52,0,0,1-10.25-5.06l-1,1.32a30.21,30.21,0,0,0,11.06,5.41l.21,0,.21,0a30.43,30.43,0,0,0,22-22.53l-1.62-.38A28.67,28.67,0,0,1,23.07,55.11Z"/><path class="f416821c-fd48-4ec5-89b9-996d7fb8cf1e" d="M4.45,14.83V27.3A26,26,0,0,0,22.82,52.15l.25.08.24-.08A26,26,0,0,0,41.69,27.3V14.83L23.07,5ZM40,27.3a24.18,24.18,0,0,1-8.59,18.59V43.35l2.92-7.43V26.28H32.68v9.33L29.76,43v4.14a24.44,24.44,0,0,1-6.69,3.31,24.73,24.73,0,0,1-4.84-2.12V42.89l-3.47-4.32a7,7,0,0,1-1.53-4.35V31.73H11.56v2.49a8.69,8.69,0,0,0,1.9,5.4l3.1,3.86V47.3a24.18,24.18,0,0,1-10.45-20V15.83l17-8.92,17,8.92Z"/><path class="a78696b7-f09d-433c-bdc3-e312101e21ea" d="M20.61,13.38v.41a2.85,2.85,0,0,0-4,2.57V23.8a3.31,3.31,0,0,0-1.68-.46,3.36,3.36,0,0,0-3.35,3.35v3.37h1.67V26.69a1.68,1.68,0,0,1,3.36,0v5.92h1.67V16.36a1.18,1.18,0,0,1,2.35,0V28.63h1.67V13.38a1.18,1.18,0,0,1,2.36,0V28.63H26.3V15.36a1.18,1.18,0,0,1,2.36,0V28.63h1.67V19.34a1.18,1.18,0,0,1,2.35,0v5.27h1.67V19.34a2.83,2.83,0,0,0-2.84-2.82,2.9,2.9,0,0,0-1.18.25V15.36a2.84,2.84,0,0,0-2.85-2.82,2.81,2.81,0,0,0-1.23.28,2.85,2.85,0,0,0-5.64.56Z"/><path class="bf7543f5-26ad-43ca-a3c5-a6f52dea5e08" d="M23,39.07l-2.82-2.81L18.71,37.7,23,42l7.79-7.8-1.44-1.44Z"/><path class="a78696b7-f09d-433c-bdc3-e312101e21ea" d="M18.23,48.36V42.89l-3.47-4.32a7,7,0,0,1-1.53-4.35V31.73H11.56v2.49a8.69,8.69,0,0,0,1.9,5.4l3.1,3.86V47.3"/><polyline class="a78696b7-f09d-433c-bdc3-e312101e21ea" points="31.43 45.89 31.43 43.34 34.35 35.92 34.35 26.27 32.68 26.27 32.68 35.61 29.76 43.03 29.76 47.17"/></g></g></svg>