<svg xmlns="http://www.w3.org/2000/svg" viewBox="0 0 51.33 51.33"><defs><style>.bfecb46b-a957-49db-ad3f-26bec689479a{fill:#00263a;}.a7f663be-eed2-4526-8a79-03a6914fd3e7{fill:#8c734b;}.e5a4f35a-ad0c-4291-ab1d-60d909d1b01b{fill:#c4ad8b;}</style></defs><g id="ed68b44c-7aed-4bea-ab3e-0448377e8387" data-name="Layer 2"><g id="b8aa26bf-7b80-4d88-b211-235ffdd08dea" data-name="Layer 1"><path class="bfecb46b-a957-49db-ad3f-26bec689479a" d="M12.25,21.88a.8.8,0,0,0-.66-.35h-5a.83.83,0,0,0-.82.83v5a.83.83,0,0,0,.82.83h5a.83.83,0,0,0,.83-.83v-3.4l3-2.59-1.08-1.26ZM10.76,26.5H7.45V23.18h3.28L9.37,24.35,9,23.64l-1.48.74L8.37,26a.8.8,0,0,0,.57.44l.17,0a.84.84,0,0,0,.54-.2l1.11-1Z"/><path class="bfecb46b-a957-49db-ad3f-26bec689479a" d="M14.37,29.18,12.25,31a.8.8,0,0,0-.66-.35h-5a.82.82,0,0,0-.82.82v5a.83.83,0,0,0,.82.83h5a.83.83,0,0,0,.83-.83V33l3-2.59ZM10.76,35.6H7.45V32.29h3.28L9.37,33.46,9,32.75l-1.48.74.83,1.66a.83.83,0,0,0,.57.44h.17a.84.84,0,0,0,.54-.2l1.11-.95Z"/><path class="a7f663be-eed2-4526-8a79-03a6914fd3e7" d="M15.73,23.18H24v1.66H15.73Z"/><path class="a7f663be-eed2-4526-8a79-03a6914fd3e7" d="M15.73,26.5h5v1.65h-5Z"/><path class="a7f663be-eed2-4526-8a79-03a6914fd3e7" d="M22.36,26.5H24v1.65H22.36Z"/><path class="a7f663be-eed2-4526-8a79-03a6914fd3e7" d="M15.73,32.29H24V34H15.73Z"/><path class="a7f663be-eed2-4526-8a79-03a6914fd3e7" d="M15.73,35.6h5v1.66h-5Z"/><path class="a7f663be-eed2-4526-8a79-03a6914fd3e7" d="M22.36,35.6H24v1.66H22.36Z"/><path class="bfecb46b-a957-49db-ad3f-26bec689479a" d="M11.11,19.72a.84.84,0,0,0,1,0A14.7,14.7,0,0,0,18.22,7.78V7.45a.82.82,0,0,0-.61-.79L11.82,5a.9.9,0,0,0-.46,0L5.57,6.66a.81.81,0,0,0-.6.79v.33A14.69,14.69,0,0,0,11.11,19.72Zm.48-13.06,5,1.42a13,13,0,0,1-5,9.93,13,13,0,0,1-5-9.94Z"/><path class="e5a4f35a-ad0c-4291-ab1d-60d909d1b01b" d="M51.18,43.4,47,37.61a.82.82,0,0,0-1.13-.21l-.15.1-1-2.09V24.84A5.8,5.8,0,0,0,38.92,19h-.83V2.48A2.49,2.49,0,0,0,35.6,0H2.48A2.48,2.48,0,0,0,0,2.48V40.57a2.49,2.49,0,0,0,2.48,2.49h22l3.07,3.06a.79.79,0,0,0,.58.25H31l.38.75-.33.21a.82.82,0,0,0-.22,1.15L32.43,51a.81.81,0,0,0,.69.36H50.51a.82.82,0,0,0,.82-.82V43.88A.83.83,0,0,0,51.18,43.4Zm-48.7-2a.83.83,0,0,1-.82-.83V2.48a.82.82,0,0,1,.82-.82H35.6a.83.83,0,0,1,.83.82V19H35.6V4.14A1.66,1.66,0,0,0,34,2.48H4.14A1.67,1.67,0,0,0,2.48,4.14V38.92a1.66,1.66,0,0,0,1.66,1.65H34a1.65,1.65,0,0,0,1.65-1.65V25.67h.83v14.9a.83.83,0,0,1-.83.83H2.48ZM32.29,25.67H34V38.92H4.14V4.14H34V19H32.29a3.32,3.32,0,0,0,0,6.63Zm-.09,19.5a.82.82,0,0,0-.74-.46h-3l-1.65-1.65H35.6a2.5,2.5,0,0,0,2.49-2.49V24.84a.83.83,0,0,0-.83-.83h-5a1.66,1.66,0,0,1,0-3.31h6.63a4.15,4.15,0,0,1,4.14,4.14V35.6a.77.77,0,0,0,.08.37l1.23,2.45L32.72,46.19Zm14-6,.77,1.08L33.35,49.36l-.74-1.11Zm3.52,10.46H35.85l12-8,1.78,2.5Z"/><path class="a7f663be-eed2-4526-8a79-03a6914fd3e7" d="M32.29,12.42H29.55a.11.11,0,0,1-.09-.05,1.74,1.74,0,0,0-2.8-.46l-.28.28a.8.8,0,0,1-1.24-.2l-.66-1.31a2.84,2.84,0,0,0-5.08,0l-1.1,2.2,1.48.74,1.11-2.2a1.16,1.16,0,0,1,1.05-.66,1.17,1.17,0,0,1,1.06.66l.66,1.31a2.42,2.42,0,0,0,3.89.63l.28-.28a.08.08,0,0,1,.08,0,.07.07,0,0,1,.07,0,1.74,1.74,0,0,0,1.57,1h2.74Z"/><path class="a7f663be-eed2-4526-8a79-03a6914fd3e7" d="M18.22,14.9H29v1.66H18.22Z"/><path class="a7f663be-eed2-4526-8a79-03a6914fd3e7" d="M30.64,14.9h1.65v1.66H30.64Z"/><path class="a7f663be-eed2-4526-8a79-03a6914fd3e7" d="M26.5,34.78a3.31,3.31,0,1,0,3.31-3.32A3.31,3.31,0,0,0,26.5,34.78Zm3.31-1.66a1.66,1.66,0,1,1-1.66,1.66A1.65,1.65,0,0,1,29.81,33.12Z"/></g></g></svg>