<svg xmlns="http://www.w3.org/2000/svg" viewBox="0 0 45.28 59.53"><defs><style>.bb86d24c-2829-4061-b057-40e095cb93b9{fill:#8c734b;}.baf13197-124a-46f4-bf1c-fe661257184e{fill:#00263a;}.a72f63f2-d9fa-4b15-98a9-e7dd5625541c{fill:#c4ad8b;}</style></defs><g id="a225034d-d69e-4195-9cc7-573d8147f070" data-name="Layer 2"><g id="b69a565f-0c1f-498b-9ef6-5a11d924eb56" data-name="Layer 1"><g id="ac869355-bd95-4203-9c3d-f52e491428cb" data-name="TRWvJE.tif"><path class="bb86d24c-2829-4061-b057-40e095cb93b9" d="M18.05,47.82a3.47,3.47,0,0,0,.06-.45l.3-10.73c.06-2.12.13-4.23.21-6.35a1.53,1.53,0,0,1,.11-.47c.49-1.3,1-2.59,1.46-3.9a1.86,1.86,0,0,0,.11-.57c0-.76,0-1.52,0-2.28,0-.47.2-.66.66-.67H26.4c.44,0,.68.2.63.64a10.5,10.5,0,0,0,1.17,5.67,8,8,0,0,1,.59,3.06c.14,5.45.32,10.9.47,16.35,0,1.5,0,3,0,4.52,0,.22-.22.43-.34.64H18.05Zm9.69-12.48H19.6l-.27,8.94H28ZM19.27,48.78h8.79V45.45H19.27Zm.42-14.6h7.94V30.85H19.69Zm7.65-4.49c-.39-1-.78-2.05-1.14-3.07a.37.37,0,0,0-.43-.29c-1.23,0-2.45,0-3.68,0-.84,0-.84,0-1.13.78l-1,2.58ZM19.19,52.15h8.94V49.94H19.19Zm5.06-28.62v1.66h1.64V23.53ZM23.09,25.2V23.55H21.45V25.2Z"/><path class="bb86d24c-2829-4061-b057-40e095cb93b9" d="M35.1,53.29c-.16-.06-.33-.12-.48-.19a1.91,1.91,0,0,1-1.14-1.82v-9c0-1.51,0-3,0-4.53a1.53,1.53,0,0,1,.12-.6c.45-1.08.93-2.15,1.37-3.23a2.55,2.55,0,0,0,.18-.87c0-.54,0-1.07,0-1.64-.68-.11-.55-.66-.57-1.16H31.82a1.52,1.52,0,0,1-1.35-.68,1.92,1.92,0,0,1-.34-1c0-2.27,0-4.54,0-6.81a1.64,1.64,0,0,1,1.65-1.65h2.8c.17-.46.28-.54.77-.54,1.18,0,2.36,0,3.54,0a.8.8,0,0,1,.78.36V31l-.56.47c0,.58,0,1.25,0,1.91a2,2,0,0,1-.13.68c-.47,1.11-1,2.2-1.41,3.31a1.59,1.59,0,0,0-.13.64c0,1.88,0,3.77,0,5.65v7.58a1.88,1.88,0,0,1-1.17,1.83c-.14.07-.29.12-.44.18Zm.65-32.56v9.51h2.77V20.73Zm-3.38,3.91h2.21V23.51H32.39V22.4h2.2V21.28c-1,0-1.87,0-2.79,0-.37,0-.56.25-.56.66,0,2.16,0,4.33,0,6.49,0,.49.21.7.71.7h2.64V28h-2.2V26.88h2.19V25.75H32.37Zm3.92,6.76c0,.69,0,1.35,0,2a2.15,2.15,0,0,1-.15.71c-.46,1.12-1,2.23-1.42,3.35a1.22,1.22,0,0,0-.11.5c0,1.08,0,2.15,0,3.23,0,.1,0,.2,0,.29h1.67v-.4c0-1.11,0-2.22,0-3.33a1.58,1.58,0,0,1,.12-.61c.41-1,.78-2,1.26-2.89s.22-1.89.3-2.85Zm0,16.82V42.65H34.62v5.57Zm-1.66,1.15c0,.69,0,1.34,0,2a.85.85,0,0,0,.81.81.82.82,0,0,0,.85-.73c0-.69,0-1.37,0-2.07Z"/><path class="bb86d24c-2829-4061-b057-40e095cb93b9" d="M5.62,39.59a2.63,2.63,0,0,1,1.26-1.5C7,38,7,37.8,7,37.64a2.38,2.38,0,0,1,.59-1.86c.09-.08.16-.2.26-.23.63-.2.59-.69.58-1.19,0-.88,0-1.76,0-2.64,0-.58.24-.83.82-.83.86,0,1.73,0,2.59,0,.55,0,.81.25.81.8,0,1.07,0,2.14,0,3.2a.59.59,0,0,0,.24.44,2.12,2.12,0,0,1,1.15,2,.89.89,0,0,0,.49,1,1.85,1.85,0,0,1,.92,1.7c0,3.76,0,7.53,0,11.29a2.07,2.07,0,0,1-1.2,1.9l-.38.2H7.21a2.65,2.65,0,0,1-1.59-1.68Zm1.44,2.58v7l0,1.46c0,.23,0,.44,0,.64A.7.7,0,0,0,7.8,52h5.5a.7.7,0,0,0,.76-.73c0-.2,0-.41,0-.64l0-1.46v-7l0-1.46c0-.22,0-.42,0-.62a.7.7,0,0,0-.75-.75c-1.85,0-3.69,0-5.54,0a.7.7,0,0,0-.75.75c0,.2,0,.4,0,.62Zm1.38-4.28h4.22c0-.22,0-.41,0-.6a.72.72,0,0,0-.77-.77c-.89,0-1.79,0-2.68,0a.71.71,0,0,0-.77.77C8.43,37.48,8.44,37.67,8.44,37.89Zm1.44-5.58v2.78h1.35V32.31Z"/><path class="baf13197-124a-46f4-bf1c-fe661257184e" d="M10.6,48a.71.71,0,0,1-.73-.5,1.89,1.89,0,0,0-1.6-1.62.72.72,0,0,1-.53-.78.71.71,0,0,1,.54-.74,1.89,1.89,0,0,0,1.59-1.6.69.69,0,0,1,.74-.52.76.76,0,0,1,.77.51c.12.3.25.6.34.91a.49.49,0,0,0,.37.36l.86.32a.83.83,0,0,1,.56.77.74.74,0,0,1-.54.77,1.85,1.85,0,0,0-1.58,1.57A.72.72,0,0,1,10.6,48Z"/></g><g id="e5dc8bfb-aa22-4f37-9ce4-70299ae56f95" data-name="Ft50JF.tif"><path class="a72f63f2-d9fa-4b15-98a9-e7dd5625541c" d="M11.49,13.49c0-.6,0-1.16,0-1.72a11.39,11.39,0,0,1,1-5.16,11,11,0,0,1,4.61-5.12A10.93,10.93,0,0,1,22.58,0,11.15,11.15,0,0,1,33.15,7.42a12.14,12.14,0,0,1,.66,4.35c0,.55,0,1.11,0,1.7.39,0,.77,0,1.14,0H41c.9,0,1.79,0,2.69,0,1.13,0,1.58.46,1.58,1.6V58c0,1.07-.47,1.53-1.55,1.53H1.45A1.29,1.29,0,0,1,0,58.11C0,56.42,0,54.73,0,53c0-.95,0-1.9,0-2.85V15A1.3,1.3,0,0,1,1.48,13.5h10ZM31.6,15.77H2.27V57.27H43V15.77H31.6Zm0-2.29V11.29A9,9,0,0,0,18.24,3.36a8.69,8.69,0,0,0-4.52,7.15c-.09,1,0,2,0,3Z"/></g></g></g></svg>