<?xml version="1.0" encoding="utf-8"?>
<!-- Generator: Adobe Illustrator 24.2.1, SVG Export Plug-In . SVG Version: 6.00 Build 0)  -->
<svg version="1.1" id="Layer_1" xmlns="http://www.w3.org/2000/svg" xmlns:xlink="http://www.w3.org/1999/xlink" x="0px" y="0px"
	 viewBox="0 0 396 396" style="enable-background:new 0 0 396 396;" xml:space="preserve">
<style type="text/css">
	.st0{fill:#032639;}
	.st1{fill:none;stroke:#FFFFFF;stroke-width:4;stroke-miterlimit:10;}
</style>
<path class="st0" d="M163.3,183.7l21.3-21.7C176.8,168.6,169.6,175.8,163.3,183.7C163.3,183.7,163.3,183.7,163.3,183.7z"/>
<g id="bce91c24-f636-429b-a56c-53b4b3ef9712_1_">
	<g id="ea31d780-a6d1-407f-bb3b-f2b341231a16_1_">
		<g id="bcd0dc9b-94c5-443a-af3b-c7557f1d22bd_1_">
			<path class="st0" d="M196.4,0C88.3,0.9,1.1,88.2,0,195.9C-1.1,307.2,88.5,395.2,196.4,396C307,396.8,395,307.8,396,200.1
				C397.1,89.1,307.1-1,196.4,0z M299,331.4c-15,11.3-31.7,20-49.5,25.8c-20.9,6.9-42.3,9.1-64.2,7.5c-15.5-1.1-30.8-4.4-45.4-9.9
				c-34-12.7-63-36.1-82.7-66.6c-5.9-9.1-10.9-18.9-14.9-29C25.3,216,27,167.6,47.1,125.7c6.5-13.6,14.9-26.2,24.7-37.6
				c0.7-0.7,1.1-0.7,1.8,0c6.3,6.8,12.6,13.5,18.9,20.2c4.4,4.7,8.9,9.4,13.3,14.2c12.5,13.3,25,26.7,37.5,40
				c0.6,0.6,1.4,1.1,1.8,1.9c0,0,0.1,0,0.1,0c0.6,0.7,1.2,1.4,1.8,2.1c5.1,4.9,9.7,10.3,14.6,15.3c0.2,0.1,0.3,0.3,0.4,0.5
				c0.5,0.4,1,0.9,1.3,1.4c0,0,0,0.1,0,0.1c2.3,2.1,4.2,4.6,6.4,6.7c0.7,0.7,1.3,1.5,1.9,2.3c2.7,2.8,5.5,5.6,8.1,8.5
				c6.5,6.9,12.9,13.8,19.3,20.7c6,6.3,12,12.7,18,19c1.9,2,4.5,3.8,5.6,6c1.8,2.1,3.8,3.9,5.4,6.1c1.2,0.9,2.4,1.9,3.3,3.1
				c2.5,3.3,5.7,6.1,8.5,9.2c5.2,5.6,10.4,11.3,15.7,16.9c0.5,0.5,1,1,1.4,1.6c0.1,0,0.1,0.1,0.1,0.1c0.3,0.3,0.6,0.6,0.9,0.9
				c0.1,0.1,0.1,0.1,0.2,0.2c0,0,0.1,0.1,0.1,0.1c0.2,0.1,0.4,0.4,0.6,0.6c7.7,8.3,15.4,16.5,23.1,24.8c5.6,6,11.3,12,17.1,18
				C300.5,329.8,300.4,330.4,299,331.4z M352.5,262.2c-7,16.7-16.6,32.1-28.4,45.8c-1,1.1-1.5,0.8-2.3-0.1
				c-10.2-10.9-20.3-21.7-30.5-32.6c-12.7-13.5-25.3-26.9-37.9-40.4c-11.9-12.8-23.9-25.5-35.8-38.3c-2.5-2.7-5.1-5.4-7.6-8.1
				c-0.4-0.4-0.7-0.8-0.9-1.3c-2.1-1.5-3.7-3.6-5.5-5.5c-3.5-3.5-6.8-7.2-10.2-10.8c-4-4.3-7.9-8.5-11.9-12.8
				c-4.9-5.2-9.9-10.4-14.9-15.7c-2.6-2.8-5.1-5.6-7.7-8.5c-4.1-4.3-8.3-8.7-12.4-13l-45-48c-1.8-1.9-3.5-3.9-5.4-5.7
				c-1-1-0.9-1.4,0.1-2.1c8.3-6.4,17.3-12,26.6-16.7C201,9.2,296.2,36.7,341.3,111.6c2.7,4.2,5.2,8.6,7.4,13.2
				c5.2,11,9.3,22.6,12.2,34.4c3.7,15.9,5.2,32.2,4.2,48.5C364,226.5,359.8,244.9,352.5,262.2z"/>
			<path class="st0" d="M171.6,193.9L171.6,193.9L171.6,193.9L171.6,193.9z"/>
		</g>
		<g>
			<defs>
				<path id="SVGID_1_" d="M294.4,332.9c-28,20.3-61.8,31.2-96.4,31.1c-91,0-165-74-165-165c0-34.6,10.9-68.3,31.2-96.4L294.4,332.9
					z M331.9,295.4c20.3-28,31.2-61.8,31.1-96.4c0-91-74-165-165-165c-34.6,0-68.4,10.9-96.4,31.2L331.9,295.4z"/>
			</defs>
			<clipPath id="SVGID_2_">
				<use xlink:href="#SVGID_1_"  style="overflow:visible;"/>
			</clipPath>
		</g>
	</g>
</g>
<path class="st0" d="M188.4,213.8C188.4,213.8,188.4,213.7,188.4,213.8l-52.8-57.3c-1.9,0.2-3.9,0.4-6,0.8h0c-0.1,0-0.3,0-0.4,0.1
	c-0.4,0-0.7,0-1.1,0c-1.7,0.1-3.5,0.1-5.4,0.2c-0.7,0-1.4,0-2.1,0c-2.7,0-5.4,0-8.2-0.1c-2.8-0.1-5.8-0.4-8.6-0.9
	c-1.6-0.3-2.9-0.5-4.4-0.8c-1.5-0.3-2.9-0.7-4.3-1.2c-5.7-1.8-11.2-4.4-15.7-7.8c-2.3-1.7-4.3-3.6-6.1-5.5l-0.7-0.7l-0.3-0.3
	l-0.3-0.4c-0.4-0.5-0.8-1-1.2-1.5c-0.7-1-1.5-1.9-2.1-2.9c-1.3-1.9-2.4-3.8-3.3-5.5c-0.9-1.7-1.7-3.2-2.3-4.4
	c-1.2-2.5-1.9-3.9-1.9-3.9s0.5,1.5,1.4,4.1c0.4,1.3,1,2.9,1.7,4.7c0.7,1.8,1.5,3.8,2.6,6c0.4,0.8,0.8,1.7,1.3,2.5c0,0,0,0,0,0
	c0.1,0.3,0.3,0.6,0.4,0.8c0.3,0.5,0.7,1.1,1,1.7l0.3,0.4l0.3,0.5l0.6,0.9c1.6,2.3,3.5,4.6,5.7,6.8c4.4,4.4,10,8.1,16,10.9
	c1.5,0.7,3.1,1.3,4.6,1.9c1.6,0.6,3.3,1.2,4.7,1.6c3.2,0.9,6.3,1.6,9.3,2.2c1.5,0.3,2.9,0.5,4.3,0.7c-0.2,0.4-0.4,0.7-0.6,1.1
	c-4.9,9.2-5.8,21.4-6.2,28.3c-0.4,3.6-1,6.8-1.7,9.9c-0.3,1.2-0.6,2.4-0.9,3.6v0c-0.1,0.5-0.3,1.1-0.5,1.6
	c-1.7,5.9-3.9,10.6-6.1,14.5l0,0c-6.4,11.2-13.4,15-13.4,15c0,0.7-4.2,18.2-7,29.8c-0.2,0.8-0.4,1.5-0.5,2.3l-0.1,0
	c0,0-1,2.9-1.8,7.7c-0.8,5.2,2.5,9.9,5.3,9.9l5.7,0c4.3,0,5.6-4.7,3.7-7.8c-1.9-3.2-4-4.3-2.9-8.6l-0.1,0l9.5-26.6l12.8-6.3l7.9-3.9
	c-0.4,1.2-0.9,2.3-1.2,3.2c-0.5,1.4-1.9,4.6-1.1,5.9c2.8,4.2,9.4,20.1,11.9,23c0.5,1,1.2,2.5,1.8,4.6c2.3,8.1,5.9,8.5,8.6,8.5
	l3.9,0.1c4.1,0,4.9-5.1,2.4-7.6c-2.2-2.2-5.7-3.9-9-8.6c-3.7-6.5-5.9-14.7-7.3-17c-0.6-1-0.6-2.3,0.2-3.3c2.5-3.4,4.4-2.8,8.9-7
	c11.7-11.1,18-21.7,23.1-30.6l1.7,0.4c2.2,0.6,4-0.5,4.2-2.4l0-0.1c0.1-0.9-0.2-1.9-0.7-2.8C175.2,208,183.3,212.2,188.4,213.8z"/>
<path class="st0" d="M326.5,124.8c-1.2-0.4-2.4-0.9-3.5-1.2c-6.7-2.4-11.5-3.8-16.7-5.7c-6.1-2.2-4.5-8.4-10.1-11.2
	c-2.8-1.4-6.4-2.4-10.3-3c-1.6-0.2-3.2-0.4-4.9-0.6c-4.4-0.3-8.9-0.2-12.9,0.4c-3.8,0.5-7.1,2.5-9.6,5.2l-9.3,4.5
	c-4.5,3.1-3.2,8.4-1.2,13.5c-7,8.2-13.6,15.8-20,22c-2.2,2.1-4.3,4.1-6.5,5.9h0c-0.8-0.1-1.6-0.1-2.5-0.1
	c-6.2-0.2-12.6,0.5-19.1,2.1c-0.9,0.2-1.8,0.4-2.7,0.6c-4.6,0.8-9.2,0.9-13.8,0.8l62.5,67l1.5-16.1c1.8-3.2,2.4-6.8,4.2-12.5
	c0.7-2.1,1.5-4.6,2.7-7.4l2.3-4.6l1.3-2.6l1.6-3.3c0,0,0,0,0,0l1-2l3.1-6.3c0,0,0,0,0,0l8.4-17c1.7-2.4,4.9-3.3,7.6-2.1
	c5.8,2.5,9.7,4.6,15.2,9.9c1.8,1,5,0.5,7.3-0.3c0.5-0.2,1-0.4,1.4-0.6l0.9-0.4c1.2-0.5,1.6-1.7,1.5-2.9c0.1,0.4,0.2,0.8,0.2,1.2
	c0,1.1-0.3,2.2-0.6,3.3c-0.3,1.1-0.5,2.2-0.4,3.3c0.1,0.3,0.2,0.7,0.4,0.9c0.5,0.4,1.2,0.1,1.8-0.2c0.4-0.2,0.7-0.4,1.1-0.7
	c0.3-0.2,0.6-0.5,0.7-0.8c0.1-0.2,0-0.5,0-0.7c-0.1-1.1-0.2-2.1-0.4-3.2c-0.1-0.9-0.2-1.9-0.5-2.8c-0.6-1.6-1.7-3-3-4.1
	c-0.5-0.4-1-0.7-1.5-1.1l0.2-0.6l-0.5,0.4c-0.8-0.5-1.7-1.1-2.6-1.6c-2.1-1.2-4.3-2.5-6.3-3.9c-0.8-0.5-1.5-1.1-2.4-1.5
	c-0.8-0.4-1.7-0.5-2.5-0.4c-0.4-0.3-0.7-0.7-0.9-1.1c-0.5-0.9-0.7-1.8-0.5-2.6c0.1-0.5,0.3-0.9,0.6-1.2l0-0.1c1.9-2.1,4.9-3,7.7-2.4
	l15.7,4.7c2,0.3,4.2-0.2,6.2-1.3c1.9-1,3.7-2.4,5.3-4c0.7-0.7,1.3-1.4,1.8-2.1c0.5-0.6,0.9-1.2,1.2-1.8l0.4-0.6l1.4-2.4
	C329.5,127.5,328.5,125.2,326.5,124.8z"/>
<path class="st0" d="M180.9,157.7c-0.3,0-0.7,0-1,0c-2.1-0.1-4.1-0.2-6.2-0.3c-0.6,0-1.2,0-1.7-0.1c-11.5-0.5-18.9-1.2-25.9-1.3
	c-1.3,0-2.5,0-3.8,0c-1.5,0-3.1,0.1-4.7,0.3L180.9,157.7C180.9,157.7,180.9,157.7,180.9,157.7z"/>
<path class="st0" d="M214.5,241l-0.4,19.2c0,0.9,3,12.8,4.3,18.4v0c0.3,2.2,1.9,14.1,8.1,14.1l5.4,0.3l2.4,0.1c2.9,0,4.4-0.9,5-2.3
	c1,1.2,2.3,1.9,3.8,1.9l7.7,0.4c7,0,6-5.5,3.7-9.2c-1.7-2.7-5.1-3.7-7.2-5.4l-2.7-9.3c-1.4-4.8-1.9-9.9-1.4-15l2.6-27.5L192.6,215
	c9.5,2.9,16.7,5.1,22.4,6.4l-0.2,6.8l-0.2,10.1 M214.6,238.4l-0.1,2.6 M227,254.8l0.4-2.6 M227.4,252.2l2.5-15.2l0.9,23.2
	c0,1.2,0.2,2.4,0.5,3.6l3.7,14.7c0,0.4,0.2,1.6,0.5,3c-1.6-1.1-3.4-1.9-4.8-3l-2.9-9.6c-1.3-4.5-1.6-9.4-0.9-14.2"/>
<line class="st1" x1="127.9" y1="149.4" x2="262.9" y2="292.9"/>
<line class="st1" x1="153" y1="124.9" x2="287.5" y2="268.7"/>
</svg>
