<svg xmlns="http://www.w3.org/2000/svg" viewBox="0 0 44.2 48.19"><defs><style>.b2302dc3-5992-4b19-8032-cff4398414bd{fill:#00263a;}</style></defs><g id="e61d680d-6cb0-4778-a142-145eff6b6334" data-name="Layer 2"><g id="a88c5c93-2290-4da7-ad6d-23ccb664db33" data-name="Layer 1"><g id="e3a7c202-4170-442b-8d21-7232bcc5e2c2" data-name="5goUvz"><path class="b2302dc3-5992-4b19-8032-cff4398414bd" d="M4.4,0H38.85s.07.07.11.07a5,5,0,0,1,4.22,5.21c0,1.14,0,2.29,0,3.43,0,1-.34,1.33-1.33,1.34H35.2c0,.11,0,.16,0,.2q0,6.78,0,13.55c0,.29.11.36.38.4a10.06,10.06,0,0,1,3.85,18.54,10.29,10.29,0,0,1-4.22,1.44v2.6c0,1.09-.32,1.41-1.4,1.41H1a1,1,0,0,1-1-.89c0-.2,0-.41,0-.61V21.22C0,15.91,0,10.59,0,5.27A4.88,4.88,0,0,1,2.17.93,11.91,11.91,0,0,1,4.4,0ZM34.16,2H33.5C24.12,2,14.74,2,5.36,2A3.19,3.19,0,0,0,2,5.32q0,20.16,0,40.32v.52H33.1v-2c-.42-.06-.81-.11-1.19-.19a10,10,0,0,1,.79-19.8c.35,0,.44-.15.44-.49,0-2.25,0-4.51,0-6.77,0-3.65,0-7.31,0-11C33.14,4.62,33.09,3.23,34.16,2Zm-8,32.14a8,8,0,1,0,8.1-8A8,8,0,0,0,26.12,34.14ZM41.13,8c0-1.15.08-2.28,0-3.39A2.92,2.92,0,0,0,38.05,2a3,3,0,0,0-2.88,2.9c0,.92,0,1.85,0,2.77a1.55,1.55,0,0,0,0,.31Z"/><path class="b2302dc3-5992-4b19-8032-cff4398414bd" d="M14.08,18a3,3,0,0,1,.12-.43c1-2.57,1.91-5.14,2.9-7.69a1.54,1.54,0,0,1,.64-.74c.53-.27,1.09.06,1.34.73l2.46,6.55c.16.44.33.87.48,1.32a1,1,0,1,1-1.86.72c-.15-.34-.28-.7-.4-1.05a.38.38,0,0,0-.43-.33c-.83,0-1.66,0-2.49,0a.61.61,0,0,0-.42.3c-.19.36-.28.77-.46,1.13a1,1,0,0,1-1.13.54A1,1,0,0,1,14.08,18Zm4-5.07L17.28,15h1.6Z"/><path class="b2302dc3-5992-4b19-8032-cff4398414bd" d="M26.11,16.31c-.37.74-.69,1.39-1,2a1,1,0,0,1-1.39.56,1,1,0,0,1-.4-1.44c.49-1,1-2,1.51-3a.75.75,0,0,0,0-.74c-.52-1-1-2-1.5-3a1,1,0,1,1,1.79-.91l1,2c.37-.72.71-1.39,1-2.06a1,1,0,0,1,1.06-.61A1,1,0,0,1,29,10.61c-.5,1-1,2.05-1.53,3.07a.7.7,0,0,0,0,.74c.51,1,1,2,1.49,3a1,1,0,1,1-1.78.91C26.79,17.67,26.47,17,26.11,16.31Z"/><path class="b2302dc3-5992-4b19-8032-cff4398414bd" d="M13,37.15H6.27c-.69,0-1.12-.29-1.21-.81-.12-.69.34-1.2,1.14-1.21,1.31,0,2.63,0,4,0,3.21,0,6.42,0,9.64,0,.84,0,1.29.36,1.29,1s-.46,1-1.27,1H13Z"/><path class="b2302dc3-5992-4b19-8032-cff4398414bd" d="M9,11H7.22C6.5,11,6,10.64,6,10S6.49,9,7.2,9h5.69c.72,0,1.18.4,1.18,1s-.46,1-1.18,1H11.06v.56c0,2,0,4.05,0,6.07a2.81,2.81,0,0,1-.05.65,1,1,0,0,1-1.91,0,2.4,2.4,0,0,1-.06-.6q0-3.06,0-6.11Z"/><path class="b2302dc3-5992-4b19-8032-cff4398414bd" d="M13.07,32.12H6a1,1,0,0,1,0-2c.31,0,.63,0,.94,0h13c.66,0,1.08.28,1.17.79A1,1,0,0,1,20,32.11H13.07Z"/><path class="b2302dc3-5992-4b19-8032-cff4398414bd" d="M13.08,40.16H20a1,1,0,1,1,0,2H6.19a1,1,0,0,1-1.13-.78,1,1,0,0,1,1.11-1.22h6.91Z"/><path class="b2302dc3-5992-4b19-8032-cff4398414bd" d="M10.05,27.1c-1.32,0-2.63,0-4,0a1,1,0,0,1-.91-1.49A1.21,1.21,0,0,1,6,25.13c2.68,0,5.36,0,8,0a1,1,0,0,1,1,1,1,1,0,0,1-1,1Z"/><path class="b2302dc3-5992-4b19-8032-cff4398414bd" d="M37.43,29.05a3.55,3.55,0,0,1,.78.65.89.89,0,0,1-.11,1.09c-.58.74-1.16,1.48-1.75,2.21-1.5,1.87-3,3.74-4.51,5.59a1.7,1.7,0,0,1-.79.54.86.86,0,0,1-.95-.45.92.92,0,0,1,0-1.06,2.1,2.1,0,0,1,.22-.3l6.07-7.59a1.13,1.13,0,0,1,1-.57Z"/><path class="b2302dc3-5992-4b19-8032-cff4398414bd" d="M33.13,31.13a2,2,0,1,1-2-2A2,2,0,0,1,33.13,31.13Z"/><path class="b2302dc3-5992-4b19-8032-cff4398414bd" d="M35.16,37.15a2,2,0,1,1,2,2A2,2,0,0,1,35.16,37.15Z"/></g></g></g></svg>