<svg xmlns="http://www.w3.org/2000/svg" viewBox="0 0 70.69 44.41"><defs><style>.ae04e954-a615-4cb7-8fa6-0855700eb0e3{fill:#8c734b;}.a55dc3bf-784b-4489-a448-656014b452d2{fill:#00263a;}.be719e61-c053-4a7e-af9a-f5bbb54476ae{fill:#c4ad8b;}</style></defs><g id="ffce8d4d-327a-47d0-8ec0-d598fefb8468" data-name="Layer 2"><g id="b0894cc2-7ab0-4638-9fb3-c1dfa484d524" data-name="Layer 1"><g id="b022098f-225c-4ccf-9f5f-64ba321f8b7a" data-name="Outline"><path class="ae04e954-a615-4cb7-8fa6-0855700eb0e3" d="M67.74,20.83l-6.43-2.41L58.52,12,56.44,13l2.29,5.23H52.51V6.82h1.25l1.69,3.86,2.08-.91L54.74,3.4A5.69,5.69,0,0,0,49.54,0H7.07A4.56,4.56,0,0,0,2.52,4.54V6.82H4.8V4.54A2.27,2.27,0,0,1,7.07,2.27H49.54a3.41,3.41,0,0,1,3.12,2l.1.23H45.69a2.28,2.28,0,0,0-2.27,2.28V18.18a2.27,2.27,0,0,0,2.27,2.27H60.26L66.94,23a2.28,2.28,0,0,1,1.48,2.12v1.05H65a2.28,2.28,0,0,0-2.28,2.27v2.27H60.17a7.94,7.94,0,0,0-13,0H23.81a8,8,0,0,0-13,0H9.34v-3.4A1.14,1.14,0,0,0,8.2,26.13H4.8v-17H2.52V36.35A2.29,2.29,0,0,0,4.8,38.63h5.31A7.95,7.95,0,0,0,24.91,33H46a7.82,7.82,0,0,0-.25,3.4H27.52v2.28H46.46A8,8,0,0,0,61.27,33h7.15v3.4H63.87v2.28h4.55a2.28,2.28,0,0,0,2.27-2.28V25.08a4.57,4.57,0,0,0-3-4.25Zm-22-14h4.55V18.18H45.69ZM7.07,28.4v2.27H4.8V28.4Zm-2.27,8V33H9.67a8,8,0,0,0-.25,3.4ZM17.29,40.9A5.68,5.68,0,1,1,23,35.22,5.68,5.68,0,0,1,17.29,40.9Zm36.36,0a5.68,5.68,0,1,1,5.68-5.68A5.68,5.68,0,0,1,53.65,40.9ZM65,30.67V28.4h3.41v2.27Z"/><path class="ae04e954-a615-4cb7-8fa6-0855700eb0e3" d="M53.65,31.81a3.41,3.41,0,1,0,3.4,3.41A3.41,3.41,0,0,0,53.65,31.81Zm0,4.54a1.14,1.14,0,1,1,1.13-1.13A1.13,1.13,0,0,1,53.65,36.35Z"/><path class="ae04e954-a615-4cb7-8fa6-0855700eb0e3" d="M17.29,31.81a3.41,3.41,0,1,0,3.41,3.41A3.41,3.41,0,0,0,17.29,31.81Zm0,4.54a1.14,1.14,0,0,1,0-2.27,1.14,1.14,0,1,1,0,2.27Z"/><path class="ae04e954-a615-4cb7-8fa6-0855700eb0e3" d="M44.56,22.72H49.1V25H44.56Z"/></g><path class="ae04e954-a615-4cb7-8fa6-0855700eb0e3" d="M39,6.73V18.19H27.59V6.73H39m.7-2.19H26.89A1.49,1.49,0,0,0,25.4,6V18.89a1.49,1.49,0,0,0,1.49,1.5h12.8a1.5,1.5,0,0,0,1.5-1.5V6a1.5,1.5,0,0,0-1.5-1.49Z"/><path class="ae04e954-a615-4cb7-8fa6-0855700eb0e3" d="M21,6.73V18.19H9.56V6.73H21m.7-2.19H8.86A1.5,1.5,0,0,0,7.36,6V18.89a1.5,1.5,0,0,0,1.5,1.5h12.8a1.5,1.5,0,0,0,1.49-1.5V6a1.49,1.49,0,0,0-1.49-1.49Z"/><path class="a55dc3bf-784b-4489-a448-656014b452d2" d="M14.51,7.72h1.42V9.18H14.51Z"/><path class="a55dc3bf-784b-4489-a448-656014b452d2" d="M14.51,10.63h1.42v1.46H14.51Z"/><path class="a55dc3bf-784b-4489-a448-656014b452d2" d="M16.73,8.08,18,7.35l.71,1.26-1.23.73Z"/><path class="a55dc3bf-784b-4489-a448-656014b452d2" d="M18.15,10.6l1.23-.72.71,1.26-1.23.73Z"/><path class="a55dc3bf-784b-4489-a448-656014b452d2" d="M11.77,8.62l.71-1.27,1.23.73L13,9.35Z"/><path class="a55dc3bf-784b-4489-a448-656014b452d2" d="M10.36,11.15l.7-1.27,1.23.73-.71,1.27Z"/><path class="a55dc3bf-784b-4489-a448-656014b452d2" d="M32.54,7.72H34V9.18H32.54Z"/><path class="a55dc3bf-784b-4489-a448-656014b452d2" d="M32.54,10.63H34v1.46H32.54Z"/><path class="a55dc3bf-784b-4489-a448-656014b452d2" d="M34.76,8.08,36,7.35l.71,1.26-1.23.73Z"/><path class="a55dc3bf-784b-4489-a448-656014b452d2" d="M36.17,10.6l1.23-.72.71,1.26-1.23.73Z"/><path class="a55dc3bf-784b-4489-a448-656014b452d2" d="M29.8,8.62l.71-1.27,1.22.73L31,9.35Z"/><path class="a55dc3bf-784b-4489-a448-656014b452d2" d="M28.38,11.15l.71-1.27,1.23.73-.71,1.27Z"/><path class="a55dc3bf-784b-4489-a448-656014b452d2" d="M66.27,44H64.85V42.58h1.42Z"/><path class="a55dc3bf-784b-4489-a448-656014b452d2" d="M66.27,41.12H64.85V39.66h1.42Z"/><path class="a55dc3bf-784b-4489-a448-656014b452d2" d="M64.05,43.68l-1.23.73-.71-1.26,1.23-.73Z"/><path class="a55dc3bf-784b-4489-a448-656014b452d2" d="M62.63,41.15l-1.23.73-.7-1.26,1.22-.73Z"/><path class="a55dc3bf-784b-4489-a448-656014b452d2" d="M69,43.14,68.3,44.4l-1.23-.73.71-1.26Z"/><path class="a55dc3bf-784b-4489-a448-656014b452d2" d="M70.42,40.61l-.7,1.27-1.23-.73.71-1.27Z"/><path class="a55dc3bf-784b-4489-a448-656014b452d2" d="M5.57,44H4.16V42.58H5.57Z"/><path class="a55dc3bf-784b-4489-a448-656014b452d2" d="M5.57,41.12H4.16V39.66H5.57Z"/><path class="a55dc3bf-784b-4489-a448-656014b452d2" d="M3.35,43.68l-1.22.73-.71-1.26,1.22-.73Z"/><path class="a55dc3bf-784b-4489-a448-656014b452d2" d="M1.94,41.15l-1.23.73L0,40.62l1.23-.73Z"/><path class="a55dc3bf-784b-4489-a448-656014b452d2" d="M8.31,43.14,7.6,44.4l-1.22-.73.7-1.26Z"/><path class="a55dc3bf-784b-4489-a448-656014b452d2" d="M9.73,40.61,9,41.88l-1.23-.73.71-1.27Z"/><path class="a55dc3bf-784b-4489-a448-656014b452d2" d="M36.8,44H35.38V42.58H36.8Z"/><path class="a55dc3bf-784b-4489-a448-656014b452d2" d="M36.8,41.12H35.38V39.66H36.8Z"/><path class="a55dc3bf-784b-4489-a448-656014b452d2" d="M34.58,43.68l-1.22.73-.71-1.26,1.22-.73Z"/><path class="a55dc3bf-784b-4489-a448-656014b452d2" d="M33.17,41.15l-1.23.73-.71-1.26,1.23-.73Z"/><path class="a55dc3bf-784b-4489-a448-656014b452d2" d="M39.54,43.14l-.71,1.26-1.23-.73.71-1.26Z"/><path class="a55dc3bf-784b-4489-a448-656014b452d2" d="M41,40.61l-.71,1.27L39,41.15l.71-1.27Z"/><path class="be719e61-c053-4a7e-af9a-f5bbb54476ae" d="M53.63,28.81a6.43,6.43,0,1,1-6.42,6.43,6.44,6.44,0,0,1,6.42-6.43m0-1.56a8,8,0,1,0,8,8,8,8,0,0,0-8-8Z"/><path class="be719e61-c053-4a7e-af9a-f5bbb54476ae" d="M53.63,33.34a1.9,1.9,0,1,1-1.9,1.9,1.91,1.91,0,0,1,1.9-1.9m0-1.56a3.46,3.46,0,1,0,3.46,3.46,3.45,3.45,0,0,0-3.46-3.46Z"/><path class="be719e61-c053-4a7e-af9a-f5bbb54476ae" d="M17.3,28.81a6.43,6.43,0,1,1-6.42,6.43,6.44,6.44,0,0,1,6.42-6.43m0-1.56a8,8,0,1,0,8,8,8,8,0,0,0-8-8Z"/><path class="be719e61-c053-4a7e-af9a-f5bbb54476ae" d="M17.3,33.34a1.9,1.9,0,1,1-1.9,1.9,1.9,1.9,0,0,1,1.9-1.9m0-1.56a3.46,3.46,0,1,0,3.46,3.46,3.45,3.45,0,0,0-3.46-3.46Z"/></g></g></svg>