<svg xmlns="http://www.w3.org/2000/svg" viewBox="0 0 48.88 44.95"><defs><style>.abbc434a-51c3-4b8e-94d5-df81f26da8e4{fill:#00263a;}</style></defs><g id="f8512933-0657-487a-83fb-4b123de092c7" data-name="Layer 2"><g id="b2192a32-b930-4bee-93d1-e211e82cfffa" data-name="Layer 1"><g id="fd4717ef-a86f-410a-a399-3e3b3012fe99" data-name="nL0t9W"><path class="abbc434a-51c3-4b8e-94d5-df81f26da8e4" d="M48.88,41.71c-1.09,2.43-3,3.25-5.6,3.24-12.7-.07-25.4,0-38.1,0C3.41,44.93,1.81,44.6.76,43a4.48,4.48,0,0,1,.05-5Q8.62,23.92,16.4,9.83c1.33-2.42,2.65-4.85,4-7.25,1.93-3.38,6.08-3.47,8-.08Q38.57,20.83,48.65,39.21a1,1,0,0,0,.23.22ZM24.45,42.85H43.68c3,0,3.88-1.45,2.47-4L27,4.07C26.4,3,25.76,2.13,24.41,2.14s-2,.94-2.54,2L2.69,38.88c-1.37,2.49-.49,4,2.37,4Z"/><path class="abbc434a-51c3-4b8e-94d5-df81f26da8e4" d="M27,24.49c1.49,0,2.77,0,4.05,0a1.82,1.82,0,0,1,1.34.62,1.66,1.66,0,0,1-.36,1.4Q26.28,33.32,20.46,40c-.34.39-1.08.43-1.63.64-.08-.58-.37-1.24-.2-1.73,1-2.73,2.12-5.42,3.26-8.27-1.56,0-2.91,0-4.25,0-1.15,0-1.57-.59-1.17-1.7,1.6-4.49,3.16-9,4.85-13.44A2.27,2.27,0,0,1,23,14.38c1.94-.13,3.9-.06,5.85,0,1.68,0,2,.5,1.35,2.12C29.15,19.07,28.11,21.67,27,24.49Zm2.22,2.23a6.84,6.84,0,0,0-1.08-.15c-4.73.19-4-.45-2.54-4.1.8-2,1.56-4,2.4-6.13-1.38,0-2.46.06-3.54,0a1.46,1.46,0,0,0-1.75,1.2C21.6,20.76,20.4,24,19.25,27.17c-.15.43-.23.88-.38,1.45h3.46c2.26,0,2.46.3,1.65,2.35-.31.79-.59,1.59-.89,2.39l.31.13Z"/></g></g></g></svg>