<svg xmlns="http://www.w3.org/2000/svg" viewBox="0 0 50.86 51.65"><defs><style>.a81cc18d-daf5-4f62-ac05-0406be796d08{fill:#8c734b;}.ae302aaa-054f-4bd2-9e86-afab8071d570{fill:#00263a;}</style></defs><g id="a7c4b92e-e371-4f7f-b4d3-e9b97debc323" data-name="Layer 2"><g id="aba77564-e025-46f3-b260-d5294475bc89" data-name="Layer 1"><path class="a81cc18d-daf5-4f62-ac05-0406be796d08" d="M16.11,42.12A1,1,0,1,0,16,43.37a1,1,0,0,0,.12-1.25Z"/><path class="a81cc18d-daf5-4f62-ac05-0406be796d08" d="M16.14,18.18H14.67a6.13,6.13,0,1,0-9,0H4.16A4.17,4.17,0,0,0,0,22.35V33.84A3.13,3.13,0,0,0,3.13,37H4V50.66a1,1,0,0,0,1,1H15.29a1,1,0,0,0,1-1V47.14a1,1,0,0,0-2,0v2.53H11.17V37.84a1,1,0,1,0-2,0V49.67H6V33.12h8.28V48.05a1,1,0,0,0,2,0V37h.9a3.13,3.13,0,0,0,3.13-3.13V22.35a4.17,4.17,0,0,0-4.17-4.17ZM6,14a4.14,4.14,0,1,1,4.14,4.14A4.15,4.15,0,0,1,6,14Zm12.31,19.8A1.14,1.14,0,0,1,17.18,35h-.9V25.64a1,1,0,0,0-2,0v5.49H6V25.64a1,1,0,1,0-2,0V35h-.9A1.14,1.14,0,0,1,2,33.84V22.35a2.17,2.17,0,0,1,2.17-2.18h12a2.18,2.18,0,0,1,2.18,2.18V33.84Z"/><path class="a81cc18d-daf5-4f62-ac05-0406be796d08" d="M46.7,18.18H45.22A6.06,6.06,0,0,0,46.84,14,6.13,6.13,0,1,0,36.2,18.18H34.72a4.17,4.17,0,0,0-4.16,4.17V33.84a3.13,3.13,0,0,0,2.63,3.09l-.57,2.87a1,1,0,0,0,1,1.19H36l1.39,9.81a1,1,0,0,0,1,.85h4.76a1,1,0,0,0,1-.85L45.47,41h2.36a1,1,0,0,0,.77-.36,1,1,0,0,0,.21-.83l-.58-2.87a3.13,3.13,0,0,0,2.63-3.09V22.35A4.17,4.17,0,0,0,46.7,18.18ZM36.57,14a4.14,4.14,0,1,1,4.14,4.14A4.15,4.15,0,0,1,36.57,14Zm5.66,35.63h-3L38,41h5.51ZM34.8,39l.41-2h.37a1,1,0,0,0,1-1V31.13h8.28V36a1,1,0,0,0,1,1h.37l.41,2Zm14.08-5.16A1.15,1.15,0,0,1,47.73,35h-.89V25.64a1,1,0,0,0-2,0v3.5H36.57v-3.5a1,1,0,0,0-2,0V35h-.89a1.15,1.15,0,0,1-1.15-1.14V22.35a2.18,2.18,0,0,1,2.18-2.18h12a2.18,2.18,0,0,1,2.18,2.18V33.84Z"/><path class="ae302aaa-054f-4bd2-9e86-afab8071d570" d="M14.28,4.71a1,1,0,0,0,1.41,0,1,1,0,0,0,.15-1.22H35A1,1,0,0,0,35.88,5a1,1,0,0,0,.7-.29L38.09,3.2a1,1,0,0,0,0-1.4L36.58.29A1,1,0,0,0,35,1.5H15.84A1,1,0,0,0,14.28.29L12.78,1.8a1,1,0,0,0,0,1.4Z"/></g></g></svg>