<svg xmlns="http://www.w3.org/2000/svg" viewBox="0 0 59.43 59.42"><defs><style>.a837ac66-ef30-4c6a-8802-e2f1b6aca282{fill:#c4ad8b;}.fb53f3bf-f91f-4e34-9b3d-8865a2228cbd{fill:#8c734b;}.b7988e8b-259c-48bd-ad49-94093abbb3b4{fill:#00263a;}</style></defs><g id="fc900b86-a93a-4039-8227-f83fb9cc8006" data-name="Layer 2"><g id="e8891a26-0df3-4c31-b51d-22497f27bb05" data-name="Layer 1"><g id="afa73475-611f-4248-b02a-fc18278ed575" data-name="YDoR3X.tif"><path class="a837ac66-ef30-4c6a-8802-e2f1b6aca282" d="M59.43,5.14V0H12.26a1.32,1.32,0,0,0-.61,1.25c0,1.07,0,2.15,0,3.23S12,5.72,12.9,5.73h.68v.6c0,4.87,0,10.89,0,15.76l1.94-.39V5.77H55.59V28.64l-.54,0c-3.7,0-8.25,0-11.95,0l.26,2H57.49v1.86H42.65l-.79,1.92c5,0,11.28,0,16.26,0a1.38,1.38,0,0,0,1.31-.6V29.26c-.43-.74-1.17-.58-1.87-.61V5.75C58.21,5.68,59,5.91,59.43,5.14ZM57.5,3.79H13.62V2H57.5Z"/><path class="fb53f3bf-f91f-4e34-9b3d-8865a2228cbd" d="M21.21,44H24A1,1,0,0,1,25,45.05c0,.94,0,1.87,0,2.81a3.82,3.82,0,0,1-7.63,0c0-.95,0-1.91,0-2.86A1,1,0,0,1,18.47,44C19.38,43.94,20.3,44,21.21,44Zm-1.89,1.94c0,.7-.05,1.37,0,2a1.91,1.91,0,0,0,1.86,1.76,1.88,1.88,0,0,0,1.9-1.7,20.75,20.75,0,0,0,0-2.09Z"/><path class="a837ac66-ef30-4c6a-8802-e2f1b6aca282" d="M24.65,28.83c3.16,0,8.16,0,11.32,0l-2.16,1.92h-9Z"/><path class="a837ac66-ef30-4c6a-8802-e2f1b6aca282" d="M30.06,34.58H23.32l1.07-1.92h7.67S30.11,34.55,30.06,34.58Z"/><path class="fb53f3bf-f91f-4e34-9b3d-8865a2228cbd" d="M24.56,31.86c-.53,2.61-1.23,3.2-1.37,3.34-.64.61-1.27.91-1.89,1.56a4.63,4.63,0,0,0-.41.69c1.27,0,2.39-.07,3.5,0,2.46.2,4.55-1.6,6.23-3.48l4.15-4.18s1.25-1.19,1.68-1.62c3.58-4,6.86.65,7.13.65a3.36,3.36,0,0,1,.6,2.36,6.91,6.91,0,0,1-.93,2.63s-.92.86-1.19,1.13q-6.39,6.4-12.79,12.79a5.07,5.07,0,0,0-1.57,3.8c0,2.18,0,4.37,0,6.56a1.4,1.4,0,0,1-.61,1.31H0V44.85a.78.78,0,0,0,.11-.2,8.61,8.61,0,0,1,8.59-7.2c.91,0,1.82,0,3,0a4.41,4.41,0,0,0-.54-.72A8.36,8.36,0,0,1,7.7,28.84a8.25,8.25,0,0,1,5.16-6.91,12.89,12.89,0,0,1,1.31-.48,5.75,5.75,0,0,1,1-.2,7.09,7.09,0,0,1,.9-.07,8.65,8.65,0,0,1,8.63,7A9.37,9.37,0,0,1,24.56,31.86ZM25.8,57.49c0-1.8.08-3.53,0-5.26a7.86,7.86,0,0,1,2.66-6.41c3.65-3.53,7.19-7.15,10.78-10.74l.4-.42-3.47-3.47a4.88,4.88,0,0,1-.4.52c-1.82,1.83-3.66,3.65-5.48,5.49A6.9,6.9,0,0,1,25,39.36c-1.29,0-2.58,0-3.88,0a.73.73,0,0,0-.75.41,4.76,4.76,0,0,1-8.36,0,.88.88,0,0,0-.62-.37c-.88-.05-1.75,0-2.63,0a6.71,6.71,0,0,0-6.88,6.91V56.9c0,.19,0,.38,0,.57H7.68V47H9.57V57.49ZM9.84,28a6,6,0,0,0-.09,3.36,6.37,6.37,0,0,0,4.76,4.92,6.35,6.35,0,0,0,6.82-2.14,6.44,6.44,0,0,0,1.58-4.74c0-.33-.09-.58-.54-.63a9.85,9.85,0,0,1-5-2.13.63.63,0,0,0-.83-.05,9.14,9.14,0,0,1-3.76,1.24C11.85,27.87,10.87,27.89,9.84,28ZM44,30.79l-.21,1.86m-6-2.91,3.43,3.4a2.39,2.39,0,0,0,.8-2.29,2.33,2.33,0,0,0-1.87-1.92A2.41,2.41,0,0,0,37.74,29.74ZM18.62,25.1a8,8,0,0,0,3.48,1.61,5.63,5.63,0,0,0-2.53-2.63,9.83,9.83,0,0,0-1.93-.74c-2.27-.78-5.86.66-6.72,2.65a9.27,9.27,0,0,0,6-2ZM19,38a9.05,9.05,0,0,1-5.45,0,2.76,2.76,0,0,0,2.8,2.32A2.73,2.73,0,0,0,19,38Z"/></g><g id="be8fc538-dc11-46d3-814d-83fbc3641008" data-name="Ns80rK.tif"><path class="b7988e8b-259c-48bd-ad49-94093abbb3b4" d="M40.58,22.83a3.65,3.65,0,0,0-.91,1.78.68.68,0,0,1-.86.56.71.71,0,0,1-.57-.87,1.15,1.15,0,0,1,.24-.39c.35-.48.71-.94,1.06-1.42a.31.31,0,0,0-.1-.49,4.84,4.84,0,0,1-.63-.56c-.13-.14-.22-.12-.37,0a3.66,3.66,0,0,0-1.34,1.22.68.68,0,0,1-.84.32.66.66,0,0,1-.52-.67.77.77,0,0,1,.53-.74,14.47,14.47,0,0,0,1.53-1,.33.33,0,0,0,.1-.29c-.21-.48-.44-.94-.7-1.46-.34.16-.7.3-1,.49a.68.68,0,0,1-.87-.1.7.7,0,0,1-.15-.87.69.69,0,0,1,.78-.4A7.69,7.69,0,0,0,37,18c0-.55,0-1,0-1.47s.14-.91.22-1.45c-.35-.06-.73-.16-1.12-.19a.67.67,0,0,1-.67-.55.69.69,0,0,1,.33-.81.68.68,0,0,1,.85.06c.3.24.63.44,1,.66l.59-1A3.85,3.85,0,0,0,36.5,12a.68.68,0,0,1-.38-1,.72.72,0,0,1,1-.38,1,1,0,0,1,.32.33,3.9,3.9,0,0,0,1.42,1.38l2-1.34c-.18-.28-.36-.61-.58-.91a.73.73,0,1,1,1.29-.45,10.37,10.37,0,0,0,.15,1.1,6.61,6.61,0,0,0,1-.16.51.51,0,0,0,.24-.38,4.07,4.07,0,0,0-.19-1.76.7.7,0,0,1,.43-.89.74.74,0,0,1,1,.44.91.91,0,0,1,0,.49,4.21,4.21,0,0,0-.17,1.8c0,.21.1.28.31.33a14.9,14.9,0,0,1,1.71.46c.24.08.38,0,.48-.14a15.91,15.91,0,0,0,.73-1.57c.12-.34.27-.57.63-.61a.68.68,0,0,1,.77.43.66.66,0,0,1-.19.85,3.82,3.82,0,0,0-1.08,1.46c-.07.18-.09.29.1.42s.53.47.81.72a3.66,3.66,0,0,0,1.57-1.35.7.7,0,0,1,1-.19.7.7,0,0,1,.19,1,1,1,0,0,1-.44.3,3.71,3.71,0,0,0-1.64,1.12l.73,1.59c.35-.16.71-.32,1-.49a.7.7,0,0,1,1,.34.73.73,0,0,1-.4,1A1.65,1.65,0,0,1,51,16H49.85v1.86h1.26a.64.64,0,0,1,.65.45.71.71,0,0,1-.19.83.68.68,0,0,1-.81.11c-.12-.06-.23-.15-.35-.2l-.71-.27c-.33.63-.64,1.22-.93,1.81a.38.38,0,0,0,.08.34,13.07,13.07,0,0,0,1.45,1,.78.78,0,0,1,.5.76.71.71,0,0,1-.61.67.69.69,0,0,1-.78-.39A3.63,3.63,0,0,0,48,21.6l-2,1.33.6,1a.68.68,0,0,1,0,.9.7.7,0,0,1-.89.18,1.06,1.06,0,0,1-.39-.56,12.14,12.14,0,0,1-.17-1.23c-.37.06-.68.09-1,.16a.41.41,0,0,0-.22.26,3.71,3.71,0,0,0,.15,1.84.69.69,0,0,1-.34.89.7.7,0,0,1-.93-.22,1.43,1.43,0,0,1-.09-.69c0-.57.13-1.13.17-1.69,0-.25-.1-.37-.38-.42C41.89,23.19,41.25,23,40.58,22.83ZM38.37,17a5.07,5.07,0,1,0,5.06-5A5,5,0,0,0,38.37,17Z"/><path class="b7988e8b-259c-48bd-ad49-94093abbb3b4" d="M41.8,20.05a2.11,2.11,0,0,1-2.13-2.13,2.14,2.14,0,0,1,4.28,0A2.12,2.12,0,0,1,41.8,20.05Zm0-1.3a.84.84,0,0,0,.86-.76A.83.83,0,1,0,41,17.91.81.81,0,0,0,41.77,18.75Z"/><path class="b7988e8b-259c-48bd-ad49-94093abbb3b4" d="M41.44,13.69a.66.66,0,0,1,.68-.69.69.69,0,0,1,.72.7.74.74,0,0,1-.71.69A.7.7,0,0,1,41.44,13.69Z"/><path class="b7988e8b-259c-48bd-ad49-94093abbb3b4" d="M47.62,18a.67.67,0,0,1-.67.7.69.69,0,0,1-.72-.66.73.73,0,0,1,.7-.74A.7.7,0,0,1,47.62,18Z"/><path class="b7988e8b-259c-48bd-ad49-94093abbb3b4" d="M45.28,20.69A.66.66,0,0,1,44.6,20a.7.7,0,0,1,.69-.7A.73.73,0,0,1,46,20,.69.69,0,0,1,45.28,20.69Z"/></g><rect class="b7988e8b-259c-48bd-ad49-94093abbb3b4" x="20.82" y="10.31" width="10.84" height="1.53"/><rect class="b7988e8b-259c-48bd-ad49-94093abbb3b4" x="20.82" y="13.47" width="10.84" height="1.53"/><rect class="b7988e8b-259c-48bd-ad49-94093abbb3b4" x="20.82" y="16.62" width="10.84" height="1.53"/><rect class="b7988e8b-259c-48bd-ad49-94093abbb3b4" x="20.82" y="19.77" width="10.84" height="1.53"/></g></g></svg>