<svg xmlns="http://www.w3.org/2000/svg" viewBox="0 0 46.04 53.66"><defs><style>.ac0ab7f2-3ca6-4498-9c1d-af1c4303c393{fill:#8c734b;}.b43dc7be-479c-4f68-9216-56b1a72a6725{fill:#00263a;}.f3aa3afa-18a4-4ec1-92eb-bee9eefb75c5{fill:none;}.a593fe7b-a1bf-4dde-937b-527e5e2cf728{fill:#c4ad8b;}.eed44527-d373-4421-8382-71ebb5f88d25{fill:#fff;}</style></defs><g id="a1aad41e-01d7-4b59-b8bc-b68b53fa15eb" data-name="Layer 2"><g id="bc3f935c-9910-40c1-a572-9906490d3581" data-name="Layer 1"><path class="ac0ab7f2-3ca6-4498-9c1d-af1c4303c393" d="M33.94,13.84l-.5-.32c-3.39-2.19-15.72-2.19-19.11,0l-.5.32-.1,12c0,.1.12,10.57,10.26,11.41l0-.34h0l0,.35h.13c9.1-.9,9.85-11.29,9.86-11.42Zm-2.1,11.9c0,.35-.68,8.51-7.74,9.27-8.07-.72-8.16-8.84-8.16-9.19L16,15.12c3.16-1.33,12.56-1.33,15.71,0Z"/><rect class="b43dc7be-479c-4f68-9216-56b1a72a6725" x="22.47" y="20.23" width="2.86" height="10.71"/><path class="b43dc7be-479c-4f68-9216-56b1a72a6725" d="M22.2,18a1.69,1.69,0,1,0,3.37,0,1.69,1.69,0,0,0-3.37,0Z"/><path class="f3aa3afa-18a4-4ec1-92eb-bee9eefb75c5" d="M12.89,43.8,8,38.94A2.36,2.36,0,1,0,4.7,42.28l4.85,4.86A2.36,2.36,0,0,0,12.89,43.8Z"/><path class="f3aa3afa-18a4-4ec1-92eb-bee9eefb75c5" d="M37,2.79a.64.64,0,0,0-.64-.64H10.62a.65.65,0,0,0-.65.64V6H37Z"/><path class="f3aa3afa-18a4-4ec1-92eb-bee9eefb75c5" d="M15.73,45.47A4.5,4.5,0,0,1,11.22,50,4.43,4.43,0,0,1,10,49.8v1.07a.66.66,0,0,0,.65.65H30.15V45.08H15.71C15.72,45.21,15.73,45.34,15.73,45.47Zm5.09,1.76h5.47a1.07,1.07,0,1,1,0,2.14H20.82a1.07,1.07,0,1,1,0-2.14Z"/><path class="f3aa3afa-18a4-4ec1-92eb-bee9eefb75c5" d="M7.83,8.68,6.18,7a2.37,2.37,0,0,0-4,1.67,2.28,2.28,0,0,0,.69,1.67l5,5Z"/><path class="a593fe7b-a1bf-4dde-937b-527e5e2cf728" d="M20.82,49.37h5.47a1.07,1.07,0,1,0,0-2.14H20.82a1.07,1.07,0,1,0,0,2.14Z"/><path class="a593fe7b-a1bf-4dde-937b-527e5e2cf728" d="M45,17.17a8.36,8.36,0,0,0-5.41,1.75l-.38.35V2.79A2.8,2.8,0,0,0,36.38,0H10.62A2.79,2.79,0,0,0,7.83,2.79V5.65L7.7,5.51a4.51,4.51,0,0,0-6.38,6.38L6,16.53A4.51,4.51,0,0,0,4,24.05l2.64,2.64a4.51,4.51,0,0,0-3.93,5A4.44,4.44,0,0,0,4,34.35l1.78,1.79a4.5,4.5,0,0,0-3.93,5A4.56,4.56,0,0,0,3.18,43.8l4.65,4.65v2.42a2.79,2.79,0,0,0,2.79,2.79H31.23a1.07,1.07,0,0,0,1.07-1.07V42.29a5.8,5.8,0,0,1,2.32-4.64l4.12-3.09a1.07,1.07,0,0,0,.43-.86V25.11c0-4.27,2.61-5.46,4.72-5.73V52.59a1.08,1.08,0,0,0,2.15,0V18.25A1.08,1.08,0,0,0,45,17.17ZM10,2.79a.65.65,0,0,1,.65-.64H36.38a.64.64,0,0,1,.64.64V6H10ZM2.84,10.37A2.28,2.28,0,0,1,2.15,8.7,2.37,2.37,0,0,1,6.18,7L7.83,8.68v6.68ZM5.55,22.53a2.36,2.36,0,1,1,3.34-3.34l4.86,4.86a2.36,2.36,0,0,1-3.34,3.34Zm0,10.3a2.36,2.36,0,1,1,3.34-3.34l4.86,4.86a2.36,2.36,0,0,1-3.34,3.34ZM4.7,42.28A2.36,2.36,0,1,1,8,38.94l4.85,4.86a2.36,2.36,0,0,1-3.34,3.34Zm25.45,9.24H10.62a.66.66,0,0,1-.65-.65V49.8a4.43,4.43,0,0,0,1.25.17,4.5,4.5,0,0,0,4.51-4.5c0-.13,0-.26,0-.39H30.15ZM37,33.16l-3.69,2.77a8,8,0,0,0-3.18,6.36v.64H15a4.78,4.78,0,0,0-.54-.65L12.63,40.5a4.52,4.52,0,0,0,3.93-5,4.62,4.62,0,0,0-1.29-2.65l-2.64-2.64a4.38,4.38,0,0,0,1.85-.66L16,28a4.53,4.53,0,0,0-.72-5.44l-.07-.06-1.1-1.11-1.85-1.84S10.13,17.41,10,17.29V8.15H37v25Z"/><path class="eed44527-d373-4421-8382-71ebb5f88d25" d="M5.55,22.53a2.36,2.36,0,1,1,3.34-3.34l4.86,4.86a2.36,2.36,0,0,1-3.34,3.34Z"/></g></g></svg>