<svg xmlns="http://www.w3.org/2000/svg" viewBox="0 0 10.5 40.4"><defs><style>.b3232b98-6ba9-4f07-bb58-a1e36deb0d33{fill:#86704d;}</style></defs><g id="ec0b4130-f971-4094-a621-d059b4c59fde" data-name="Layer 2"><g id="f9e6cd08-393c-46d7-92d1-7f2cbca71d53" data-name="Layer 1"><path class="b3232b98-6ba9-4f07-bb58-a1e36deb0d33" d="M0,38.56V33.28c0-1.22,1.15-1.83,3.44-1.83H5.28c2.3,0,3.44.61,3.44,1.83v5.28c0,1.23-1.14,1.84-3.44,1.84H3.44C1.15,40.4,0,39.79,0,38.56ZM1.78,27.12a1.59,1.59,0,0,1-.63-1.41V1.84C1.15.61,2.3,0,4.59,0H7.06A6.34,6.34,0,0,1,9.61.4a1.29,1.29,0,0,1,.89,1.21L7.63,25.71a2,2,0,0,1-.69,1.41,4.09,4.09,0,0,1-2.23.42H4.07A4.41,4.41,0,0,1,1.78,27.12Z"/></g></g></svg>