<svg xmlns="http://www.w3.org/2000/svg" viewBox="0 0 43.79 43.8"><defs><style>.fb95f3bd-a0d3-42a2-be2d-b7f1d220b801{fill:#00263a;}</style></defs><g id="a79119f0-a72d-417b-bcb4-32e42a7c1bae" data-name="Layer 2"><g id="a22a68b5-7a94-4f3a-93d5-0eec6fe270cd" data-name="Layer 1"><g id="f93ec4d7-0696-4e8b-88de-0f3ba5d94be8" data-name="l5UzWG"><path class="fb95f3bd-a0d3-42a2-be2d-b7f1d220b801" d="M39.41,29.11H36.49v.46q0,6.32,0,12.63a1.47,1.47,0,0,1-.77,1.4,1.35,1.35,0,0,1-1.47,0,1.51,1.51,0,0,1-.69-1.4c0-4.71,0-9.42,0-14.14a2.17,2.17,0,0,0-.43-1.42,5.42,5.42,0,0,1-1-3.33c0-1.92,0-3.83,0-5.75a5.82,5.82,0,0,1,4.82-5.75.79.79,0,0,0,.22-.09,6.08,6.08,0,0,1-4-2.49,5.68,5.68,0,0,1-.94-4.55,5.84,5.84,0,1,1,9.34,5.77,6.88,6.88,0,0,1-2.82,1.3c.26.06.52.11.77.18a5.87,5.87,0,0,1,4.26,5.57c0,1.95,0,3.89,0,5.84a5.64,5.64,0,0,1-1.18,3.52,1.26,1.26,0,0,0-.28.87c0,4.8,0,9.61,0,14.41a2.13,2.13,0,0,1-.23,1,1.37,1.37,0,0,1-1.56.65,1.44,1.44,0,0,1-1.11-1.44c0-1.91,0-3.83,0-5.75V29.11Zm1.46-8.67c0-1,0-1.92,0-2.87a2.92,2.92,0,1,0-5.83,0c0,1.92,0,3.83,0,5.75a2.92,2.92,0,1,0,5.83,0C40.88,22.35,40.87,21.4,40.87,20.44Zm0-14.61A2.92,2.92,0,1,0,38,8.76,2.93,2.93,0,0,0,40.87,5.83Z"/><path class="fb95f3bd-a0d3-42a2-be2d-b7f1d220b801" d="M8.76,2.94H2.94V40.83H8.76v-.51c0-3.68,0-7.36,0-11a1.45,1.45,0,0,1,2-1.44,1.47,1.47,0,0,1,.94,1.43V42.13A1.48,1.48,0,0,1,10,43.79H1.63A1.47,1.47,0,0,1,0,42.15V1.65A1.48,1.48,0,0,1,1.67,0h8.39a1.48,1.48,0,0,1,1.62,1.61V14.47a1.47,1.47,0,1,1-2.92,0V2.94Z"/><path class="fb95f3bd-a0d3-42a2-be2d-b7f1d220b801" d="M21.89,27.71V22.17a4.1,4.1,0,0,1,0-.5,1.44,1.44,0,0,1,1.47-1.23q2.14,0,4.29,0A1.44,1.44,0,0,1,29.19,22c0,1.74,0,3.49,0,5.24v.51a2.92,2.92,0,0,1,2.67,1.79,3.34,3.34,0,0,1,.24,1.24c0,3.34,0,6.69,0,10a2.91,2.91,0,0,1-3,3H22a2.91,2.91,0,0,1-3-3c0-3.27,0-6.54,0-9.81A3,3,0,0,1,21.89,27.71Zm7.28,3H21.93V40.85h7.24Zm-2.91-7.31H24.84V27.7h1.42Z"/><path class="fb95f3bd-a0d3-42a2-be2d-b7f1d220b801" d="M9.51,20.43h6.36a1.47,1.47,0,1,1,0,2.92H9.4c.2.22.34.35.46.49a1.46,1.46,0,0,1,0,2,1.43,1.43,0,0,1-2,.06q-1.53-1.49-3-3a1.39,1.39,0,0,1,0-2c1-1,1.94-2,2.93-2.93a1.43,1.43,0,0,1,2.08,0A1.45,1.45,0,0,1,9.8,20c-.11.11-.23.2-.35.3Z"/><path class="fb95f3bd-a0d3-42a2-be2d-b7f1d220b801" d="M24.79,39.39H23.38V32.15h1.41Z"/><path class="fb95f3bd-a0d3-42a2-be2d-b7f1d220b801" d="M27.72,32.14v7.25H26.31V32.14Z"/></g></g></g></svg>