<svg xmlns="http://www.w3.org/2000/svg" viewBox="0 0 54.11 54.86"><defs><style>.ad5f7c8e-048a-4eca-9487-bed7f0163769{fill:#8c734b;}.f217cc9f-6172-4926-a91d-fd1f2275afc3{fill:#00263a;}.a969930c-2e93-47c7-8d79-3566f465dffd{fill:none;}.efe554b2-292d-4f59-bd01-fb4bf7ff887b{fill:#fff;}</style></defs><g id="a5344f33-52de-44fe-9f33-b41d145342ab" data-name="Layer 2"><g id="b80107e7-fac1-4116-84a4-502b0008e5b4" data-name="Layer 1"><path class="ad5f7c8e-048a-4eca-9487-bed7f0163769" d="M52.47,54.5H50.35V43.88a3.36,3.36,0,0,0-3.49-3.19h-5.4V38.57h5.4a5.47,5.47,0,0,1,5.61,5.31Z"/><path class="ad5f7c8e-048a-4eca-9487-bed7f0163769" d="M23.38,54.5H21.26V43.88a5.48,5.48,0,0,1,5.62-5.31h5.4v2.12h-5.4a3.37,3.37,0,0,0-3.5,3.19Z"/><polygon class="ad5f7c8e-048a-4eca-9487-bed7f0163769" points="36.87 43.39 31.22 40.13 31.22 33.46 33.34 33.46 33.34 38.91 36.87 40.94 40.4 38.91 40.4 33.46 42.52 33.46 42.52 40.13 36.87 43.39"/><path class="ad5f7c8e-048a-4eca-9487-bed7f0163769" d="M43.13,6.32H41a4.2,4.2,0,0,0-8.4,0H30.48a6.33,6.33,0,0,1,12.65,0Z"/><path class="ad5f7c8e-048a-4eca-9487-bed7f0163769" d="M36.82,35.38A11.8,11.8,0,0,1,25,23.59V19.78h2.12v3.81a9.67,9.67,0,0,0,19.34,0V19.78h2.12v3.81A11.8,11.8,0,0,1,36.82,35.38Z"/><rect class="ad5f7c8e-048a-4eca-9487-bed7f0163769" x="35.81" y="44.91" width="2.12" height="1.76"/><rect class="ad5f7c8e-048a-4eca-9487-bed7f0163769" x="35.81" y="48.49" width="2.12" height="1.76"/><path class="ad5f7c8e-048a-4eca-9487-bed7f0163769" d="M48.61,18.06H25V15a11.79,11.79,0,0,1,23.58,0Zm-2.12-2.12V15a9.67,9.67,0,0,0-19.34,0v.94Z"/><rect class="ad5f7c8e-048a-4eca-9487-bed7f0163769" x="30.43" y="21.6" width="1.95" height="2.12"/><rect class="ad5f7c8e-048a-4eca-9487-bed7f0163769" x="41.26" y="21.6" width="1.96" height="2.12"/><rect class="ad5f7c8e-048a-4eca-9487-bed7f0163769" y="52.73" width="54.11" height="2.12"/><rect class="ad5f7c8e-048a-4eca-9487-bed7f0163769" x="41.55" y="47.08" width="7.07" height="2.12"/><path class="ad5f7c8e-048a-4eca-9487-bed7f0163769" d="M16.93,51.59H14.81a4.78,4.78,0,1,0-9.55,0H3.14a6.9,6.9,0,1,1,13.79,0Z"/><rect class="ad5f7c8e-048a-4eca-9487-bed7f0163769" x="8.97" y="43.1" width="2.12" height="2.12"/><rect class="ad5f7c8e-048a-4eca-9487-bed7f0163769" x="8.97" y="38.85" width="2.12" height="2.12"/><rect class="ad5f7c8e-048a-4eca-9487-bed7f0163769" x="4.13" y="40.15" width="2.12" height="2.12" transform="translate(-19.91 8.12) rotate(-30)"/><rect class="ad5f7c8e-048a-4eca-9487-bed7f0163769" x="0.59" y="43.69" width="2.12" height="2.12" transform="translate(-37.93 23.8) rotate(-60)"/><rect class="ad5f7c8e-048a-4eca-9487-bed7f0163769" x="17.36" y="43.7" width="2.12" height="2.12" transform="translate(-19.92 15.22) rotate(-30.02)"/><rect class="ad5f7c8e-048a-4eca-9487-bed7f0163769" x="13.81" y="40.15" width="2.12" height="2.12" transform="translate(-28.25 33.49) rotate(-60)"/><path class="ad5f7c8e-048a-4eca-9487-bed7f0163769" d="M43.64,27.48A12.9,12.9,0,0,1,41,27.07a18.24,18.24,0,0,0-3.78-.56,22.07,22.07,0,0,0-3.74.38c-1.77.27-3.3.51-4.34.08a6.32,6.32,0,0,1-4-5.15L27,21.68a4.49,4.49,0,0,0,2.84,3.58,9.22,9.22,0,0,0,3.37-.2,24.37,24.37,0,0,1,4-.39,19.41,19.41,0,0,1,4.16.6,6.47,6.47,0,0,0,2.84.28,3.06,3.06,0,0,0,2.37-3.31L48.43,22a4.91,4.91,0,0,1-3.61,5.35A3.59,3.59,0,0,1,43.64,27.48Z"/><path class="f217cc9f-6172-4926-a91d-fd1f2275afc3" d="M36.82,35.38A11.8,11.8,0,0,1,25,23.59V21.94h2.12v1.65a9.67,9.67,0,0,0,19.34,0V21.94h2.12v1.65A11.8,11.8,0,0,1,36.82,35.38Z"/><path class="f217cc9f-6172-4926-a91d-fd1f2275afc3" d="M43.64,27.48A12.9,12.9,0,0,1,41,27.07a18.24,18.24,0,0,0-3.78-.56,22.07,22.07,0,0,0-3.74.38c-1.77.27-3.3.51-4.34.08a6.32,6.32,0,0,1-4-5.15L27,21.68a4.49,4.49,0,0,0,2.84,3.58,9.22,9.22,0,0,0,3.37-.2,24.37,24.37,0,0,1,4-.39,19.41,19.41,0,0,1,4.16.6,6.47,6.47,0,0,0,2.84.28,3.06,3.06,0,0,0,2.37-3.31L48.43,22a4.91,4.91,0,0,1-3.61,5.35A3.59,3.59,0,0,1,43.64,27.48Z"/><rect class="a969930c-2e93-47c7-8d79-3566f465dffd" x="24.06" y="19.8" width="25.4" height="15.91"/><rect class="efe554b2-292d-4f59-bd01-fb4bf7ff887b" x="24.06" y="16.23" width="25.4" height="1.58"/><path class="f217cc9f-6172-4926-a91d-fd1f2275afc3" d="M49.81,14.07H23.72l-.21,0H50Z"/><path class="f217cc9f-6172-4926-a91d-fd1f2275afc3" d="M23.27,14.14a.79.79,0,0,1,.22-.05Z"/><path class="f217cc9f-6172-4926-a91d-fd1f2275afc3" d="M50,14.09a.79.79,0,0,1,.22.05Z"/><rect class="f217cc9f-6172-4926-a91d-fd1f2275afc3" x="24.06" y="18.81" width="25.4" height="0.99"/><rect class="f217cc9f-6172-4926-a91d-fd1f2275afc3" x="24.06" y="17.81" width="25.4" height="1"/><path class="f217cc9f-6172-4926-a91d-fd1f2275afc3" d="M50,14.09h0Z"/><path class="f217cc9f-6172-4926-a91d-fd1f2275afc3" d="M23.5,14.09h0Z"/><path class="f217cc9f-6172-4926-a91d-fd1f2275afc3" d="M50.26,14.14a1.72,1.72,0,0,1,1.27,1.65v2.29a1.72,1.72,0,0,1-1.72,1.72h-.34V35.71H24.06V19.8h-.34A1.72,1.72,0,0,1,22,18.08V15.79a1.72,1.72,0,0,1,1.27-1.65,1.56,1.56,0,0,0-1.35,1.53v20.6a1.58,1.58,0,0,0,1.58,1.58H50a1.58,1.58,0,0,0,1.58-1.58V15.67A1.56,1.56,0,0,0,50.26,14.14Z"/><polygon class="f217cc9f-6172-4926-a91d-fd1f2275afc3" points="49.54 16.06 23.99 16.06 23.99 17.81 24.06 17.81 24.06 16.23 49.47 16.23 49.47 17.81 49.54 17.81 49.54 16.06"/><path class="f217cc9f-6172-4926-a91d-fd1f2275afc3" d="M22,15.79v2.29a1.72,1.72,0,0,0,1.72,1.72h.34v-1h-.34a.73.73,0,0,1-.73-.73V15.79a.73.73,0,0,1,.73-.73H49.81a.73.73,0,0,1,.73.73v2.29a.73.73,0,0,1-.73.73h-.34v1h.34a1.72,1.72,0,0,0,1.72-1.72V15.79a1.72,1.72,0,0,0-1.27-1.65.79.79,0,0,0-.22-.05H23.49a.79.79,0,0,0-.22.05A1.72,1.72,0,0,0,22,15.79Z"/><path class="f217cc9f-6172-4926-a91d-fd1f2275afc3" d="M24,17.81V16.06H49.54v1.75h-.07v1h.34a.73.73,0,0,0,.73-.73V15.79a.73.73,0,0,0-.73-.73H23.72a.73.73,0,0,0-.73.73v2.29a.73.73,0,0,0,.73.73h.34v-1Z"/></g></g></svg>