<svg xmlns="http://www.w3.org/2000/svg" viewBox="0 0 73.46 59.67"><defs><style>.e112e684-947a-4a24-9622-588ad0696075{fill:#c4ad8b;}.f3ce1c1d-4dc5-489c-bc19-87face13a633{fill:#8c734b;}.bcd09d9e-48e2-4886-851f-c47135eea9c7{fill:#00263a;}.f8e8a09d-0ead-42d3-9bd6-662add327b77{fill:#fff;}</style></defs><g id="ee7f1a5d-0dc1-4947-b0ba-6d8b506d2829" data-name="Layer 2"><g id="a16d05ed-31ef-429d-a585-e3f804f46b76" data-name="Layer 1"><g id="eb52a506-9562-4993-859b-502fcd7a08ae" data-name="ZoH5Wc.tif"><path class="e112e684-947a-4a24-9622-588ad0696075" d="M2.82,52.58c-.21-.09-.43-.16-.64-.26A3.55,3.55,0,0,1,0,48.8V39.51Q0,27,0,14.47a5.43,5.43,0,0,1,.19-1.56,3.5,3.5,0,0,1,3.3-2.4H5.28V9.93c0-2.34,0-4.69,0-7A2.78,2.78,0,0,1,8.18,0C12.11.07,16,0,20,0a2.64,2.64,0,0,1,2.83,2.81c0,2.33,0,4.65,0,7v.7h1.69A3.49,3.49,0,0,1,27.89,13a4.81,4.81,0,0,1,.17,1.31q0,6.86,0,13.7v.89h12a3.57,3.57,0,0,1,3.62,2.47A3.52,3.52,0,0,1,42,35.53a3.44,3.44,0,0,1-4.41-1,.89.89,0,0,0-.8-.39c-2.7,0-5.41,0-8.11,0h-.57v.63q0,7.08,0,14.16a3.46,3.46,0,0,1-2,3.26,7.88,7.88,0,0,1-.85.33ZM5.25,12.31H3.72a1.73,1.73,0,0,0-1.93,1.93V48.87a1.77,1.77,0,0,0,2,2H24.13c1.52,0,2.15-.62,2.15-2.15q0-7,0-14a3.42,3.42,0,0,0,0-.45l-.24,0c-3,0-6.06,0-9.08,0a.84.84,0,0,0-.54.28,4.26,4.26,0,0,1-2.81,1.44,4.39,4.39,0,1,1,2.77-7.36,1,1,0,0,0,.8.35h9.14V14.35a4.18,4.18,0,0,0-.05-.61,1.48,1.48,0,0,0-1.18-1.34,13.67,13.67,0,0,0-2.22,0V21l.14-.09c.22.29.56.54.65.87.18.59-.3,1-1.05,1H5.34a.88.88,0,0,1-.28-1.73L5.25,21ZM21,21a3.82,3.82,0,0,0,0-.43V2.83c0-.76-.32-1.06-1.12-1.06H8.2C7.33,1.77,7,2.07,7,2.94V21ZM12.86,29a2.56,2.56,0,0,0-2.29,2.95,2.49,2.49,0,0,0,1.86,2.16,2.49,2.49,0,0,0,2.72-.84,2.06,2.06,0,0,1,1.69-.8q9.94,0,19.9,0A2.28,2.28,0,0,1,39,33.49a1.66,1.66,0,0,0,1.92.59,1.75,1.75,0,0,0,1.18-1.64,1.72,1.72,0,0,0-1.91-1.74H17a2.14,2.14,0,0,1-1.87-.85A2.57,2.57,0,0,0,12.86,29Z"/><path class="e112e684-947a-4a24-9622-588ad0696075" d="M13.17,47.34a3.52,3.52,0,1,1,3.5-3.55A3.55,3.55,0,0,1,13.17,47.34Zm-1.74-3.51a1.75,1.75,0,0,0,1.73,1.74,1.74,1.74,0,1,0,0-3.48A1.7,1.7,0,0,0,11.43,43.83Z"/><path class="e112e684-947a-4a24-9622-588ad0696075" d="M14.93,10.45V18a4.34,4.34,0,0,1,0,.51.87.87,0,0,1-.8.81.79.79,0,0,1-.89-.54.42.42,0,0,0-.52-.34,2.36,2.36,0,0,1-.46,0,.86.86,0,0,1-.85-.85.88.88,0,0,1,.81-.9c.29,0,.58,0,.9,0V14.93c-.71-.08-1.62.21-1.7-.91,0-.6.31-.77,1.7-.89V10.44C11,9.47,10.2,8,10.62,6.2a3.51,3.51,0,0,1,6.85.08A3.57,3.57,0,0,1,14.93,10.45ZM14,8.76A1.72,1.72,0,0,0,15.77,7a1.76,1.76,0,0,0-1.72-1.74A1.79,1.79,0,0,0,12.28,7,1.77,1.77,0,0,0,14,8.76Z"/><path class="e112e684-947a-4a24-9622-588ad0696075" d="M13.16,32.45a.91.91,0,0,1-.88-.89.86.86,0,0,1,.87-.87.84.84,0,0,1,.87.87A.89.89,0,0,1,13.16,32.45Z"/></g><g id="a3cac34a-6282-4616-8474-ad8db527a213" data-name="2fOmir.tif"><path class="f3ce1c1d-4dc5-489c-bc19-87face13a633" d="M54.9,59.67a5.29,5.29,0,0,1-2.58-1.38A4.35,4.35,0,0,1,51,55.22C51,49.6,51,44,51,38.35a13.1,13.1,0,0,1,3.48-8.7l.35-.39.06-.1c-.68-.51-.65-1.27-.63-2,0-.54,0-1.09,0-1.63A1.72,1.72,0,0,1,55.08,24a.53.53,0,0,0,.2-.37c0-.82,0-1.64,0-2.49l-.5-.16c-.47,1.05-.89,2.09-1.39,3.09a14.92,14.92,0,0,1-2.6,3.62,2,2,0,0,1-2.69.31,1.94,1.94,0,0,1-.51-2.62A20.84,20.84,0,0,0,50,18.73c0-.18,0-.37.08-.58H48.9a1.83,1.83,0,0,1-2.09,1.42,5.11,5.11,0,0,1-1,0,1.66,1.66,0,0,1-1.33-1.67c0-1.79,0-3.57,0-5.35a1.68,1.68,0,0,1,1.78-1.7h.53a1.82,1.82,0,0,1,2.06,1.45H70.56a2.7,2.7,0,0,1,2.77,1.95,2.91,2.91,0,0,1-2.24,3.72,3.49,3.49,0,0,0-2.72,3.32c0,.77,0,1.54,0,2.31a.73.73,0,0,0,.23.47,1.84,1.84,0,0,1,.74,1.5,16.29,16.29,0,0,1,0,2.21,8.62,8.62,0,0,1-.52,1.59,13.72,13.72,0,0,1,2.62,3.92A14.05,14.05,0,0,1,72.63,39c0,2.36,0,4.72,0,7.08a1.7,1.7,0,0,1,0,.39.76.76,0,0,1-.76.67.74.74,0,0,1-.68-.79c0-.82,0-1.64,0-2.46,0-2,0-4-.08-6a11.78,11.78,0,0,0-4-8.2.78.78,0,0,0-.47-.16q-4.77,0-9.54,0a.77.77,0,0,0-.47.17,12,12,0,0,0-4,7.53,15.86,15.86,0,0,0-.1,2.07c0,5.23,0,10.47,0,15.71a3.12,3.12,0,0,0,3.24,3.24h12a3.2,3.2,0,0,0,3.49-3.47V49.51c0-.64.23-.94.7-.94s.76.33.76,1v5.25a4.62,4.62,0,0,1-3.73,4.81c-.05,0-.08,0-.12.08Zm-6-43h3.8a2.19,2.19,0,0,1,2.13,2c.06.77.27,1,1,1H66.7a.6.6,0,0,0,.67-.4,4.71,4.71,0,0,1,3.46-2.76A1.37,1.37,0,0,0,72,14.87a1.28,1.28,0,0,0-1.34-1.18H48.88Zm7.87,7h1.63c.51,0,.81.31.79.77s-.3.67-.82.67c-.72,0-1.44,0-2.17,0-.3,0-.43.12-.42.43,0,.68,0,1.35,0,2,0,.34.11.45.44.45H67.43c.34,0,.46-.13.46-.45V25.83c0-.63,0-.67-.69-.67-1.91,0-3.82,0-5.74,0a1.07,1.07,0,0,1-.72-.34c-.35-.48,0-1.08.72-1.09h5.39V21.14H56.75Zm-5.2-5.58c0,.1,0,.19-.06.28a22.2,22.2,0,0,1-2.61,7.64.51.51,0,0,0,.14.76c.32.21.54,0,.76-.19a13.72,13.72,0,0,0,3.57-6.44c.32-1.52.1-2.23-1.49-2.06ZM47.4,15.2c0-.82,0-1.64,0-2.46,0-.13,0-.38-.08-.39a4.28,4.28,0,0,0-1.13,0c-.09,0-.2.36-.2.56,0,1.43,0,2.86,0,4.29,0,1,0,1,1,1,.3,0,.43-.12.42-.44C47.39,16.87,47.4,16,47.4,15.2Z"/><path class="bcd09d9e-48e2-4886-851f-c47135eea9c7" d="M69.48,43.85a7.67,7.67,0,1,1-7.66-7.67A7.7,7.7,0,0,1,69.48,43.85Zm-7.69,6.21a6.2,6.2,0,1,0-6.18-6.23A6.19,6.19,0,0,0,61.79,50.06Z"/><path class="bcd09d9e-48e2-4886-851f-c47135eea9c7" d="M41.4,11.93c0,.64-.57,1-1,.74a17.71,17.71,0,0,1-1.77-1.07.64.64,0,0,1-.16-.94.62.62,0,0,1,.87-.27,20.57,20.57,0,0,1,1.81,1.08C41.26,11.58,41.33,11.83,41.4,11.93Z"/><path class="bcd09d9e-48e2-4886-851f-c47135eea9c7" d="M37.05,9.48a.74.74,0,0,1-1,.73,19.71,19.71,0,0,1-1.77-1.06.65.65,0,0,1-.16-.94A.63.63,0,0,1,35,7.93c.62.33,1.22.7,1.81,1.09C36.92,9.13,37,9.38,37.05,9.48Z"/><path class="bcd09d9e-48e2-4886-851f-c47135eea9c7" d="M41.39,18.89a2.26,2.26,0,0,1-.43.5c-.49.34-1,.63-1.52.92a.71.71,0,0,1-1-.19.72.72,0,0,1,.26-1c.53-.33,1.06-.67,1.61-1A.75.75,0,0,1,41.39,18.89Z"/><path class="bcd09d9e-48e2-4886-851f-c47135eea9c7" d="M36.79,21.42a2.09,2.09,0,0,1-.44.5c-.48.33-1,.63-1.52.92a.72.72,0,1,1-.75-1.23c.52-.34,1.05-.67,1.6-1A.76.76,0,0,1,36.79,21.42Z"/><path class="bcd09d9e-48e2-4886-851f-c47135eea9c7" d="M39.86,14.66h.82a.72.72,0,0,1,0,1.44c-.58,0-1.16,0-1.73,0a.69.69,0,0,1-.68-.73.7.7,0,0,1,.7-.71Z"/><path class="bcd09d9e-48e2-4886-851f-c47135eea9c7" d="M34.86,14.66h.82a.73.73,0,0,1,.71.71.73.73,0,0,1-.69.73c-.57,0-1.15,0-1.73,0a.68.68,0,0,1-.67-.73.69.69,0,0,1,.69-.71Z"/><path class="bcd09d9e-48e2-4886-851f-c47135eea9c7" d="M61.78,48.11a1,1,0,0,1-1.07-.75A2.8,2.8,0,0,0,58.35,45a1.19,1.19,0,0,1,0-2.23A2.76,2.76,0,0,0,60.7,40.4a1.05,1.05,0,0,1,1.1-.77,1.14,1.14,0,0,1,1.13.75c.18.44.36.89.5,1.35a.73.73,0,0,0,.54.53c.43.13.85.3,1.27.46a1.2,1.2,0,0,1,.82,1.13,1.09,1.09,0,0,1-.8,1.14A2.7,2.7,0,0,0,63,47.29,1.09,1.09,0,0,1,61.78,48.11ZM64,43.87a2.62,2.62,0,0,1-2.24-2.26,2.62,2.62,0,0,1-2.21,2.28,2.56,2.56,0,0,1,2.23,2.22A2.58,2.58,0,0,1,64,43.87Z"/></g><path class="bcd09d9e-48e2-4886-851f-c47135eea9c7" d="M5.28,9.93c0-2.34,0-4.69,0-7A2.78,2.78,0,0,1,8.18,0C12.11.07,16,0,20,0a2.64,2.64,0,0,1,2.83,2.81c0,2.33,0,4.65,0,7l0,2.56V21l.14-.09c.22.29.56.54.65.87.18.59-.3,1-1.05,1H5.34a.88.88,0,0,1-.28-1.73L5.25,21v-8.7Z"/><path class="f8e8a09d-0ead-42d3-9bd6-662add327b77" d="M21,21a3.82,3.82,0,0,0,0-.43V2.83c0-.76-.32-1.06-1.12-1.06H8.2C7.33,1.77,7,2.07,7,2.94V21Z"/><path class="bcd09d9e-48e2-4886-851f-c47135eea9c7" d="M14.93,10.45V18a4.34,4.34,0,0,1,0,.51.87.87,0,0,1-.8.81.79.79,0,0,1-.89-.54.42.42,0,0,0-.52-.34,2.36,2.36,0,0,1-.46,0,.86.86,0,0,1-.85-.85.88.88,0,0,1,.81-.9c.29,0,.58,0,.9,0V14.93c-.71-.08-1.62.21-1.7-.91,0-.6.31-.77,1.7-.89V10.44C11,9.47,10.2,8,10.62,6.2a3.51,3.51,0,0,1,6.85.08A3.57,3.57,0,0,1,14.93,10.45ZM14,8.76A1.72,1.72,0,0,0,15.77,7a1.76,1.76,0,0,0-1.72-1.74A1.79,1.79,0,0,0,12.28,7,1.77,1.77,0,0,0,14,8.76Z"/></g></g></svg>