<svg xmlns="http://www.w3.org/2000/svg" viewBox="0 0 55.28 52.86"><defs><style>.e187e55f-2554-46e7-a13e-c0f6a797bf48{fill:#c4ad8b;}.e2048a84-e723-488f-8829-a625119d545b{fill:#8c734b;}.adce3142-d7fe-49f9-bca6-23ab8ca46d75{fill:none;stroke:#00263a;stroke-linecap:round;stroke-miterlimit:10;stroke-dasharray:3 3 3 3 3 3;}</style></defs><g id="b298d6a8-6791-44d1-96cc-a0da6a0899b9" data-name="Layer 2"><g id="bb044fb7-e9be-43a9-bdab-f7b6e37d1bce" data-name="Layer 1"><g id="ee7eeca0-4651-43ff-be77-50302e13093e" data-name="Ft50JF.tif"><path class="e187e55f-2554-46e7-a13e-c0f6a797bf48" d="M41.28,2.92c.47,0,.93.05,1.39.05h7.39c1.1,0,2.19,0,3.29,0,1.38,0,1.93.46,1.93,1.59v42.9c0,1.08-.57,1.54-1.9,1.54H1.77C.66,49,0,48.48,0,47.56c0-1.69,0-3.38,0-5.07,0-1,0-1.9,0-2.85V4.43C0,3.43.59,3,1.81,3H14Zm-2.36,2H16.36l-2.83,0H2V47H53.32V4.9H38.92Z"/></g><path class="e2048a84-e723-488f-8829-a625119d545b" d="M46.24,17.33H45.08a4.83,4.83,0,1,0-7.11,0H36.81a3.29,3.29,0,0,0-3.28,3.28v9.05A2.47,2.47,0,0,0,35.6,32.1l-.45,2.26a.76.76,0,0,0,.16.65.78.78,0,0,0,.61.28h1.85L38.87,43a.79.79,0,0,0,.78.67H43.4a.78.78,0,0,0,.77-.67l1.1-7.73h1.86a.76.76,0,0,0,.6-.28.8.8,0,0,0,.17-.65l-.46-2.26a2.47,2.47,0,0,0,2.08-2.44v-9A3.29,3.29,0,0,0,46.24,17.33Zm-8-3.26a3.26,3.26,0,1,1,3.26,3.26A3.27,3.27,0,0,1,38.26,14.07Zm4.46,28.06h-2.4l-1-6.84h4.34Zm-5.85-8.4.32-1.6h.29a.78.78,0,0,0,.78-.78V27.53h6.52v3.82a.78.78,0,0,0,.78.78h.29l.32,1.6ZM48,29.66a.9.9,0,0,1-.9.9h-.7V23.21a.79.79,0,0,0-1.57,0V26H38.26V23.21a.78.78,0,0,0-1.56,0v7.35H36a.9.9,0,0,1-.9-.9v-9a1.72,1.72,0,0,1,1.72-1.71h9.43A1.72,1.72,0,0,1,48,20.61v9.05Z"/><line class="adce3142-d7fe-49f9-bca6-23ab8ca46d75" x1="27.64" y1="0.5" x2="27.64" y2="52.36"/></g></g></svg>