<svg xmlns="http://www.w3.org/2000/svg" xmlns:xlink="http://www.w3.org/1999/xlink" viewBox="0 0 396.03 396"><defs><style>.ad45e223-ab56-4535-b4ab-81dfc1df8633{fill:none;}.b0bf392f-906c-4e5a-bb07-a3d8303165d4{fill:#032639;}.be9752d7-cf34-419b-b1ad-dd4a65ee6f0b{clip-path:url(#a613ef6c-df16-41e4-bc07-6c2140dbea21);}.bfcbb24f-b56c-459b-b437-93c6b7c4c021{fill:#022638;}</style><clipPath id="a613ef6c-df16-41e4-bc07-6c2140dbea21"><path class="ad45e223-ab56-4535-b4ab-81dfc1df8633" d="M294.4,332.85A164.05,164.05,0,0,1,198,364c-91,0-165-74-165-165a164.17,164.17,0,0,1,31.16-96.39Zm37.47-37.46A164.17,164.17,0,0,0,363,199c0-91-74-165-165-165a164.06,164.06,0,0,0-96.39,31.16Z"/></clipPath></defs><g id="bce91c24-f636-429b-a56c-53b4b3ef9712" data-name="Layer 2"><g id="ea31d780-a6d1-407f-bb3b-f2b341231a16" data-name="Layer 2"><g id="bcd0dc9b-94c5-443a-af3b-c7557f1d22bd" data-name="1DCQmY"><path class="b0bf392f-906c-4e5a-bb07-a3d8303165d4" d="M196.36,0C307.06-1,397.11,89.13,396,200.1,395,307.76,307,396.76,196.38,396,88.51,395.24-1.08,307.22,0,195.86,1.07,88.23,88.26.88,196.36,0ZM258,285.32a8.65,8.65,0,0,0-2.23-3c-5.27-5.58-10.48-11.23-15.71-16.86-2.85-3.06-6-5.91-8.51-9.2s-6.71-4.46-8.5-8.69c-1-2.46-3.86-4.38-5.9-6.52q-9-9.48-18-19c-6.46-6.88-12.86-13.82-19.32-20.71-2.67-2.85-5.42-5.64-8.13-8.46a29,29,0,0,0-1.94-2.34c-2.57-2.49-4.69-5.42-7.54-7.64a1.63,1.63,0,0,0-.59-1.08c-5.45-5.51-10.38-11.53-16.14-16.76-.29-1.22-1.38-1.8-2.15-2.62q-18.73-20-37.51-40c-4.45-4.72-8.94-9.41-13.35-14.15-6.29-6.75-12.62-13.46-18.88-20.23-.64-.7-1.09-.72-1.75,0a168.79,168.79,0,0,0-24.74,37.62,167.11,167.11,0,0,0-4.72,133.61,163.83,163.83,0,0,0,14.85,29,168.35,168.35,0,0,0,82.67,66.58,163.11,163.11,0,0,0,45.43,9.9c21.86,1.54,43.28-.61,64.15-7.53A169.8,169.8,0,0,0,299,331.42c1.35-1,1.51-1.57.31-2.82q-8.61-8.93-17.07-18-11.6-12.35-23.13-24.75C258.77,285.56,258.61,284.89,258,285.32ZM158.89,134.06c2.55,2.83,5.06,5.69,7.66,8.47,4.93,5.25,9.93,10.43,14.86,15.68,4,4.23,7.9,8.52,11.86,12.78,3.37,3.63,6.7,7.3,10.17,10.84,1.8,1.84,3.38,3.91,5.49,5.45a3.85,3.85,0,0,0,.94,1.32q3.84,4,7.63,8.08,17.91,19.13,35.82,38.26,18.94,20.2,37.93,40.38,15.28,16.28,30.52,32.59c.84.9,1.37,1.2,2.35.06a170.48,170.48,0,0,0,28.42-45.77,165.18,165.18,0,0,0,12.53-54.43,169.14,169.14,0,0,0-4.23-48.5,182.93,182.93,0,0,0-12.18-34.45,129.32,129.32,0,0,0-7.4-13.18A167.17,167.17,0,0,0,122.89,48.48,169.89,169.89,0,0,0,96.25,65.2c-1,.75-1.15,1.18-.14,2.14,1.89,1.8,3.57,3.81,5.36,5.71q22.5,24,45,48C150.59,125.38,154.75,129.71,158.89,134.06Z"/><path class="b0bf392f-906c-4e5a-bb07-a3d8303165d4" d="M171.65,193.92l0,.08-.06,0Z"/></g><g class="be9752d7-cf34-419b-b1ad-dd4a65ee6f0b"><path class="bfcbb24f-b56c-459b-b437-93c6b7c4c021" d="M118.69,249.93l218.38-58.51,7.83,29.21L126.52,279.14Zm-5.48,32.78,6.65-1.79L112,251.71l-6.66,1.79Zm-13.32,3.56,6.66-1.78-7.83-29.21-6.66,1.79Zm-13.32,3.57,6.66-1.78-7.82-29.21-6.66,1.78Z"/><path class="bfcbb24f-b56c-459b-b437-93c6b7c4c021" d="M118.69,249.93l218.38-58.51L341,206,122.61,264.53Zm-9.4,18.17,6.66-1.78L112,251.71l-6.66,1.79ZM96,271.67l6.66-1.78-3.92-14.61-6.66,1.79Zm-13.32,3.57,6.66-1.79-3.91-14.6-6.66,1.78Z"/><path class="bfcbb24f-b56c-459b-b437-93c6b7c4c021" d="M82.92,249.08l-6.84,1.82c-6.28-23.6-7.68-41.31-4.42-55.73C75.82,176.85,87.38,164,107,155.73c47.86-20,42.19-49.89,35.22-76.47l6.85-1.8c7.29,27.8,13.84,62.57-39.34,84.81-17.37,7.27-27.58,18.54-31.18,34.47C75.57,210,77,226.63,82.92,249.08Zm42.52-81.23c39.79-16.64,48.88-48.24,36.9-93.93l-6.85,1.8c11.09,42.32,3.74,70.32-32.78,85.6-42.17,17.64-44,46-33.4,86l6.85-1.82C86,207.35,87.66,183.66,125.44,167.85Zm15.69,5.59c52.12-21.81,42.09-73.94,34.45-103.07l-6.86,1.8c8.62,32.87,14.48,76-30.33,94.73-21.25,8.89-32.5,17.77-37.61,29.69-4.73,11-4.22,24.72,1.77,47.22L109.4,242C99.47,204.66,102.67,189.53,141.13,173.44Z"/></g></g></g></svg>