<svg xmlns="http://www.w3.org/2000/svg" viewBox="0 0 51.72 55.73"><defs><style>.bda2e694-07d3-4213-b2c1-c86fed2a74f3{fill:#c4ad8b;}.b1e59030-90d9-419e-8b3c-452f34f5cbc8{fill:#00263a;}.f7dda36a-296c-40d4-ad3f-7a7bdb217ced{fill:#8c734b;}</style></defs><g id="a62c201d-8d5f-4641-9391-8992c904583c" data-name="Layer 2"><g id="b91fea2d-5075-421a-9812-f07fefb7495e" data-name="Layer 1"><g id="e1e5e30f-478c-495a-9a2e-a3c59a177a88" data-name="4MIQbE.tif"><path class="bda2e694-07d3-4213-b2c1-c86fed2a74f3" d="M14.1,55.73a1.35,1.35,0,0,1-.6-1.32,40.64,40.64,0,0,1,.14-4.56,6.48,6.48,0,0,1,6.51-5.53h.66a5.56,5.56,0,0,1-.73-.79c-.51-.84-.95-1.72-1.45-2.57-.11-.18-.31-.41-.48-.44a2.87,2.87,0,0,1-.7-5.62c-.27-.14-.68-.22-.85-.47a1.88,1.88,0,0,1-.23-1.06A9.29,9.29,0,0,1,22,24.21a9.46,9.46,0,0,1,13.21,7.3c.12.91,0,1.84,0,2.76a.68.68,0,0,0,.21.43,2.68,2.68,0,0,1,.65,3,2.77,2.77,0,0,1-2.36,1.9c-.15,0-.4.17-.41.28A7.68,7.68,0,0,1,31,44.21s0,0,0,0a16.76,16.76,0,0,1,2.16.31,6.5,6.5,0,0,1,4.93,5.28.62.62,0,0,0,.1.2v5.71ZM36.33,53.8c0-1,0-1.85,0-2.74a4.74,4.74,0,0,0-4.87-4.83q-5.58-.06-11.16,0a4.59,4.59,0,0,0-4.71,3.66,29.43,29.43,0,0,0-.24,3.91ZM33.49,33a7.56,7.56,0,0,0-3.6-6.54,7.28,7.28,0,0,0-8.38.2A7.46,7.46,0,0,0,18.26,33a9.45,9.45,0,0,0,1.15-.3c2.55-1.12,5.1-2.24,7.64-3.39a1.33,1.33,0,0,1,1.57.19c1.3,1.07,2.62,2.11,3.95,3.14A3.54,3.54,0,0,0,33.49,33Zm-2.05,6.3c-1.19-.35-2.42-.64-3.6-1.08a5.44,5.44,0,0,0-3.95,0c-1.18.43-2.41.72-3.61,1.07a5.62,5.62,0,0,0,11.16,0Zm-11.28-2c1.36-.39,2.69-.69,4-1.14a4.94,4.94,0,0,1,3.45,0c1.29.45,2.63.76,4,1.14,0-1,0-1.85,0-2.74a.62.62,0,0,0-.23-.43q-1.7-1.39-3.43-2.74a.75.75,0,0,0-.62-.07c-2.28,1-4.55,2-6.82,3a.57.57,0,0,0-.29.36C20.15,35.57,20.16,36.42,20.16,37.32Zm13.33.28c.6-.08.95-.45.92-.94a.86.86,0,0,0-.92-.82Zm-15.25-.88c-.6.1-.93.41-.91,1a.86.86,0,0,0,.91.9Z"/><path class="b1e59030-90d9-419e-8b3c-452f34f5cbc8" d="M51.72,16.66a1.28,1.28,0,0,1-1.24.54c-1.72,0-3.45,0-5.17,0h-.58a.9.9,0,0,0,0,.22c.19,1.23,0,1.45-1.21,1.58-2.82.28-5.64.52-8.46.79s-5.64.6-8.46.79a23.7,23.7,0,0,1-3.76-.2c-2.46-.21-4.92-.46-7.39-.7s-5-.46-7.44-.72c-1-.11-1.21-.42-1-1.44a2.33,2.33,0,0,0,0-.32H4.64c-1.15,0-2.3,0-3.45,0A1.25,1.25,0,0,1,0,16.66v-11a1.23,1.23,0,0,1,1.19-.55c1.15,0,2.3,0,3.45,0H7.08C7,4.91,7,4.76,7,4.6a.87.87,0,0,1,.73-1.19l.48-.1Q16,1.81,23.83.33A6.76,6.76,0,0,1,26.2,0c5.82,1,11.62,2.17,17.43,3.28,1.13.21,1.31.48,1.06,1.6,0,.06,0,.12,0,.21,2,0,3.92,0,5.86,0a1.23,1.23,0,0,1,1.19.55ZM42.85,5l-.24-.07C37.54,3.94,32.48,3,27.41,2a6.08,6.08,0,0,0-2.11-.17c-4.11.73-8.2,1.54-12.3,2.32L8.88,5,9,5.46c.41,1.47.84,2.93,1.23,4.4a1.91,1.91,0,0,1,0,.89c-.47,2.17-1,4.33-1.45,6.54l5.7.55c2.94.29,5.89.56,8.83.84a17.24,17.24,0,0,0,2.57.21c1.6-.07,3.18-.28,4.77-.43l8.73-.83,3.48-.34c-.35-1.58-.62-3.12-1-4.62A7,7,0,0,1,42,8C42.35,7,42.56,6,42.85,5Zm1.43,10.48H50V6.85H44.39a.54.54,0,0,0-.33.3c-.24.77-.43,1.56-.69,2.32a2.91,2.91,0,0,0-.06,1.68C43.66,12.58,44,14,44.28,15.45Zm-36.84,0c.37-1.68.74-3.34,1.1-5a1.14,1.14,0,0,0,0-.48C8.24,9.08,8,8.17,7.72,7.26a.47.47,0,0,0-.55-.42c-1.64,0-3.27,0-4.91,0l-.49,0v8.6Z"/><path class="b1e59030-90d9-419e-8b3c-452f34f5cbc8" d="M12.08,13.71V12.07H39.61v1.64Z"/><path class="b1e59030-90d9-419e-8b3c-452f34f5cbc8" d="M39.63,6.89V8.54H12.1V6.89Z"/><path class="f7dda36a-296c-40d4-ad3f-7a7bdb217ced" d="M18.42,37.61a12.82,12.82,0,0,0,3.35-.7A23.64,23.64,0,0,1,26,35.77a24.93,24.93,0,0,1,4.31,1.13l2.57.71s.61.1.74,0l-.07,2a10.59,10.59,0,0,1-2-.28c-1-.25-3.81-1.08-4.16-1.2a6,6,0,0,0-1.45-.23,4.17,4.17,0,0,0-1.4.18s-2.65.92-4.14,1.25a15.21,15.21,0,0,1-2.05.31,1,1,0,0,0-.21,0l.2-2Z"/><path class="f7dda36a-296c-40d4-ad3f-7a7bdb217ced" d="M25.76,46.29a8.16,8.16,0,0,1-6.41-3.64,10.28,10.28,0,0,1-1.16-3.42L20.37,39a8.19,8.19,0,0,0,.9,2.62,6,6,0,0,0,4.49,2.5,5.45,5.45,0,0,0,4-1.42,4,4,0,0,0,1.41-2.11,6.19,6.19,0,0,0,.21-1.81l2.19-.15a8.5,8.5,0,0,1-.29,2.57,6.2,6.2,0,0,1-2,3.08A7.63,7.63,0,0,1,25.76,46.29Z"/></g></g></g></svg>