<svg xmlns="http://www.w3.org/2000/svg" viewBox="0 0 78.68 54.31"><defs><style>.e26d6497-a980-41b5-95ba-64e4bc31d50f{fill:#8c734b;}.eb29417f-f2ae-45fb-9219-a6500b859e4e{fill:#c4ad8b;}.a6ddd3e0-c6fe-4518-a1a0-3bbf1c6afe7e,.e1314daf-1800-4a4f-8b36-74b09668e22d{fill:#00263a;}.e1314daf-1800-4a4f-8b36-74b09668e22d{stroke:#00263a;stroke-linecap:round;stroke-linejoin:round;stroke-width:0.19px;}</style></defs><g id="a38deaa5-f64a-411e-8eb7-154d61795d9e" data-name="Layer 2"><g id="b5e52a32-1ef3-488b-9e7a-a62ba0f23a4c" data-name="Layer 1"><path class="e26d6497-a980-41b5-95ba-64e4bc31d50f" d="M75.28,54.31H3.41A3.4,3.4,0,0,1,.82,48.7L11.89,35.79a3,3,0,0,1,2.28-1h2.48v2H14.17a1.06,1.06,0,0,0-.79.37L2.31,50a1.44,1.44,0,0,0,1.1,2.37H75.28A1.44,1.44,0,0,0,76.37,50L65.3,37.07a1,1,0,0,0-.79-.37H62.72v-2h1.79a3,3,0,0,1,2.28,1L77.86,48.7a3.4,3.4,0,0,1-2.58,5.61Z"/><rect class="e26d6497-a980-41b5-95ba-64e4bc31d50f" x="45.19" y="34.74" width="3.21" height="1.96"/><rect class="e26d6497-a980-41b5-95ba-64e4bc31d50f" x="26.11" y="34.74" width="3.21" height="1.96"/><g id="ba4a95d5-8632-4bbc-81fc-e744fd445fa3" data-name="OHPo4n.tif"><path class="eb29417f-f2ae-45fb-9219-a6500b859e4e" d="M48,47.34a1.18,1.18,0,0,1-.5-1.1q0-13.83,0-27.66c0-1.75.63-2.51,2.37-2.85V13.67A2.39,2.39,0,0,1,52.26,11V7.34c0-.68.12-.84.78-1.08V4.76l-.44,0H51.36a16.88,16.88,0,0,0-3.63.08A15.84,15.84,0,0,0,44.5,6.34l-2.82,1.4c-.72.36-1.25,0-1.25-.77,0-1,0-1.94,0-2.91a.82.82,0,0,1,.48-.83c2.08-1,4.16-2.09,6.25-3.12A1.31,1.31,0,0,1,47.67,0h9.17c.68,0,.94.27.94,1,0,1.76,0,3.51,0,5.26.71.3.79.43.79,1.19V11a2.45,2.45,0,0,1,2.37,2.8v2a2.52,2.52,0,0,1,2.37,1.89V47.34ZM61.7,37.85V25.29H49.13V37.85Zm0,1.63H49.14v6.26H61.71ZM49.11,23.64H61.73V18.53c0-.93-.24-1.17-1.16-1.17H49.92a.8.8,0,0,0-.81.82C49.1,20,49.11,21.8,49.11,23.64Zm10.25-7.88c0-.8,0-1.56,0-2.31a.77.77,0,0,0-.81-.82q-3.13,0-6.26,0a.72.72,0,0,0-.79.67c0,.82,0,1.63,0,2.46ZM53,1.58c-1.74,0-3.45,0-5.15,0a.78.78,0,0,0-.33.09Q44.91,3,42.28,4.32a.51.51,0,0,0-.26.35,10.4,10.4,0,0,0,0,1.14c1-.48,1.9-.86,2.75-1.38a8.65,8.65,0,0,1,5.52-1.29c.9.09,1.83,0,2.76,0ZM57,11V7.92H53.88V11Zm-.8-4.73V1.61H54.65V6.29Z"/><path class="eb29417f-f2ae-45fb-9219-a6500b859e4e" d="M30.37,47.34a6.17,6.17,0,0,1-.76-.42,2.43,2.43,0,0,1-1-2.08q0-9.31,0-18.64a2.35,2.35,0,0,1,2.52-2.53h.64V21.53a2.37,2.37,0,0,1,2.33-2.61V17.36H31.94c-.71,0-1-.26-1-1V13.51c0-.59.29-.88.87-.88,2.09,0,4.18,0,6.26,0A2.31,2.31,0,0,1,40.42,15c0,1.29,0,2.59,0,3.89a.05.05,0,0,0,0,0c1.57.35,2.31,1.13,2.33,2.45,0,.59,0,1.19,0,1.78v.56h.79A2.32,2.32,0,0,1,45.94,26q0,9.53,0,19a2.29,2.29,0,0,1-1.34,2.08l-.42.22Zm3-23.71h7.89c0-.77,0-1.51,0-2.25a.79.79,0,0,0-.87-.86H34.18a.78.78,0,0,0-.85.83C33.31,22.1,33.33,22.85,33.33,23.63ZM30.2,44.22c-.11,1.31.1,1.54,1.38,1.54h7.24c1.5,0,3,0,4.49,0,.78,0,1.06-.28,1.06-1.07v-.47l0-1.65V26.79c.1-1.32-.11-1.54-1.38-1.54H35.62c-1.48,0-3,0-4.44,0-.73,0-1,.29-1,1v.52l0,1.63v15.8Zm8.64-25.29c0-1.36,0-2.67,0-4a.67.67,0,0,0-.63-.71c-.82,0-1.66,0-2.47,0v4.7Zm-6.27-4.71v1.52h1.52V14.22Z"/><path class="eb29417f-f2ae-45fb-9219-a6500b859e4e" d="M16,31.86a2.85,2.85,0,0,1,1.41-1.69c.11-.05.17-.33.16-.5a2.61,2.61,0,0,1,.66-2.09c.09-.09.18-.22.29-.26.7-.22.65-.76.64-1.33,0-1,0-2,0-3,0-.65.27-.93.91-.94H23c.62,0,.9.28.9.89,0,1.2,0,2.4,0,3.6a.63.63,0,0,0,.26.48,2.39,2.39,0,0,1,1.3,2.27A1,1,0,0,0,26,30.43a2.08,2.08,0,0,1,1,1.9c0,4.22,0,8.44,0,12.66a2.33,2.33,0,0,1-1.35,2.13l-.42.22h-7.5A2.94,2.94,0,0,1,16,45.47Zm1.61,2.89v7.84l0,1.63c0,.26,0,.49,0,.71a.8.8,0,0,0,.86.83c2.05,0,4.11,0,6.16,0a.8.8,0,0,0,.86-.82c0-.23,0-.46,0-.72l0-1.63V34.75l0-1.64c0-.25,0-.47,0-.7a.78.78,0,0,0-.83-.84c-2.07,0-4.15,0-6.22,0a.78.78,0,0,0-.83.84c0,.23,0,.45,0,.7ZM19.12,30h4.74c0-.25,0-.46,0-.67a.8.8,0,0,0-.87-.87q-1.5,0-3,0a.81.81,0,0,0-.87.87C19.11,29.49,19.12,29.7,19.12,30Zm1.62-6.26V26.8h1.51V23.69Z"/><path class="e1314daf-1800-4a4f-8b36-74b09668e22d" d="M43.14,35.17a5.88,5.88,0,1,1-5.88-5.88A5.91,5.91,0,0,1,43.14,35.17Zm-5.9,4.76a4.75,4.75,0,1,0-4.74-4.78A4.76,4.76,0,0,0,37.24,39.93Z"/><path class="e1314daf-1800-4a4f-8b36-74b09668e22d" d="M37.23,38.43a.79.79,0,0,1-.82-.57A2.15,2.15,0,0,0,34.6,36a.79.79,0,0,1-.59-.87.8.8,0,0,1,.61-.84,2.13,2.13,0,0,0,1.79-1.8.8.8,0,0,1,.84-.59.87.87,0,0,1,.86.58c.14.34.28.68.39,1a.57.57,0,0,0,.41.41c.33.1.65.23,1,.35a.94.94,0,0,1,.64.87.84.84,0,0,1-.62.87,2.07,2.07,0,0,0-1.77,1.76A.83.83,0,0,1,37.23,38.43ZM39,35.18a2,2,0,0,1-1.71-1.73,2,2,0,0,1-1.7,1.75,2,2,0,0,1,1.71,1.7A2,2,0,0,1,39,35.18Z"/><path class="a6ddd3e0-c6fe-4518-a1a0-3bbf1c6afe7e" d="M21.54,41.23a.78.78,0,0,1-.81-.57,2.11,2.11,0,0,0-1.8-1.81.82.82,0,0,1-.59-.88.79.79,0,0,1,.6-.83,2.1,2.1,0,0,0,1.78-1.79.8.8,0,0,1,.84-.59.87.87,0,0,1,.86.58,9.65,9.65,0,0,1,.38,1,.56.56,0,0,0,.42.41c.33.1.64.23,1,.35a.93.93,0,0,1,.63.87.82.82,0,0,1-.61.86,2.08,2.08,0,0,0-1.77,1.75A.81.81,0,0,1,21.54,41.23Z"/></g></g></g></svg>